<?xml version="1.0" standalone="no"?>
<!DOCTYPE svg PUBLIC "-//W3C//DTD SVG 1.1//EN" "http://www.w3.org/Graphics/SVG/1.1/DTD/svg11.dtd" >
<svg>
<metadata>
Created by FontForge 20110222 at Thu Feb 26 14:25:58 2015
 By deploy user
Copyright (c) 2003-2006 Peter Bilak, Typotheque V.O.F. All rights reserved.
</metadata>
<defs>
<font id="FedraSansCondStd-Book" horiz-adv-x="420" >
  <font-face 
    font-family="Fedra Sans Cond Std Book"
    font-weight="350"
    font-stretch="condensed"
    units-per-em="1000"
    panose-1="2 0 5 6 3 0 0 2 0 4"
    ascent="780"
    descent="-220"
    x-height="546"
    cap-height="707"
    bbox="-97 -284 1274.84 944"
    underline-thickness="50"
    underline-position="-50"
    unicode-range="U+0020-FE69"
  />
<missing-glyph horiz-adv-x="712" 
d="M305 375v27h27v-27h-27zM380 525v27h27v-27h-27zM305 525v27h27v-27h-27zM230 525v27h27v-27h-27zM80 0v27h27v-27h-27zM155 0v27h27v-27h-27zM230 0v27h27v-27h-27zM305 0v27h27v-27h-27zM380 0v27h27v-27h-27zM80 75v27h27v-27h-27zM80 150v27h27v-27h-27zM80 225v27
h27v-27h-27zM80 300v27h27v-27h-27zM80 375v27h27v-27h-27zM80 450v27h27v-27h-27zM80 525v27h27v-27h-27zM80 600v27h27v-27h-27zM80 675v27h27v-27h-27zM155 675v27h27v-27h-27zM230 675v27h27v-27h-27zM305 675v27h27v-27h-27zM380 675v27h27v-27h-27zM455 675v27h27v-27
h-27zM530 675v27h27v-27h-27zM530 0v27h27v-27h-27zM455 0v27h27v-27h-27zM605 0v27h27v-27h-27zM605 675v27h27v-27h-27zM305 300v27h27v-27h-27zM305 150v27h27v-27h-27zM380 375v27h27v-27h-27zM455 375v27h27v-27h-27zM455 450v27h27v-27h-27zM455 525v27h27v-27h-27z
M605 600v27h27v-27h-27zM605 525v27h27v-27h-27zM605 375v27h27v-27h-27zM605 300v27h27v-27h-27zM605 150v27h27v-27h-27zM605 75v27h27v-27h-27zM605 225v27h27v-27h-27zM605 450v27h27v-27h-27z" />
    <glyph glyph-name="f_f" unicode="ff" horiz-adv-x="507" 
d="M566 756l-11 -69q-45 13 -81 13q-41 0 -61 -22.5t-20 -79.5v-52h83v-66h-83v-700h-77v700h-177v-700h-77v700h-56v66h56v43q0 99 47.5 142t115.5 43q77 0 146 -30q37 30 100 30q54 0 95 -18zM139 598v-52h177v43q0 54 17 95q-41 17 -108 17q-86 0 -86 -103z" />
    <glyph glyph-name="fi" unicode="fi" horiz-adv-x="452" 
d="M385 708q-39 -14 -87 -14q-14 0 -40 3t-37 3q-82 0 -82 -102v-52h253v-546h-77v480h-176v-700h-77v700h-56v66h56v43q0 185 156 185q13 0 42.5 -2.5t51.5 -3.5q20 0 62 4z" />
    <glyph glyph-name="fl" unicode="fl" horiz-adv-x="452" 
d="M392 0h-77v695q-18 -2 -49 1.5t-45 3.5q-40 0 -61 -23.5t-21 -78.5v-52h83v-66h-83v-700h-77v700h-56v66h56v43q0 185 156 185q12 0 41.5 -4t52.5 -4q45 0 80 5v-771z" />
    <glyph glyph-name="f_f_i" unicode="ffi" horiz-adv-x="704" 
d="M636 708q-41 -14 -87 -14q-14 0 -40 3t-37 3q-82 0 -82 -102v-52h253v-546h-77v480h-176v-700h-77v700h-174v-700h-77v700h-56v66h56v43q0 185 157 185q65 0 150 -31q37 31 100 31q13 0 42.5 -2.5t51.5 -3.5q20 0 62 4zM139 598v-52h174v43q0 58 17 95q-60 17 -110 17
q-41 0 -61 -23t-20 -80z" />
    <glyph glyph-name="f_f_l" unicode="ffl" horiz-adv-x="705" 
d="M645 0h-77v695q-18 -2 -49 1.5t-45 3.5q-82 0 -82 -102v-52h83v-66h-83v-700h-76v700h-177v-700h-77v700h-56v66h56v43q0 99 47.5 142t115.5 43q77 0 146 -30q38 30 101 30q12 0 41 -4t52 -4q47 0 80 5v-771zM316 589q0 57 16 95q-40 17 -107 17q-86 0 -86 -103v-52h177
v43z" />
    <glyph glyph-name="f_h" unicode="fh" horiz-adv-x="706" 
d="M392 0h-77v695q-18 -2 -49 1.5t-45 3.5q-40 0 -61 -23.5t-21 -78.5v-52h83v-66h-83v-700h-77v700h-56v66h56v43q0 185 156 185q12 0 41.5 -4t52.5 -4q45 0 80 5v-283q12 18 49 44.5t77 26.5q35 0 60.5 -14t38 -33t19.5 -50t8.5 -53.5t1.5 -55.5v-353h-75v346
q0 74 -13.5 105.5t-57.5 31.5q-36 0 -108 -58v-425z" />
    <glyph glyph-name="f_b" unicode="fb" horiz-adv-x="690" 
d="M62 -220v700h-56v66h56v43q0 185 156 185q12 0 41.5 -4t52.5 -4q45 0 80 5v-700q21 -7 70 -7q55 0 86.5 59.5t31.5 152.5q0 95 -22 150.5t-79 55.5q-23 0 -50 -10l-6 64l11 4q10 4 24.5 7t29.5 3q82 0 125.5 -67.5t43.5 -190.5q0 -158 -55 -229t-141 -71q-80 0 -145 27
v676q-18 -2 -49.5 1.5t-45.5 3.5q-40 0 -61 -23.5t-21 -78.5v-52h83v-66h-83v-700h-77z" />
    <glyph glyph-name="f_j" unicode="fj" horiz-adv-x="453" 
d="M392 546v-567q0 -112 -37 -159.5t-105 -47.5q-25 0 -62 15l14 68q24 -10 45 -10q37 0 52.5 32t15.5 96v507h-176v-700h-77v700h-56v66h56v43q0 185 156 185q13 0 42.5 -2.5t51.5 -3.5q20 0 62 4l11 -64q-39 -14 -87 -14q-14 0 -40 3t-37 3q-82 0 -82 -102v-52h253z" />
    <glyph glyph-name="f_k" unicode="fk" horiz-adv-x="656" 
d="M656 52l-22 -61q-77 7 -135 114l-85 154l-16 29l23 49l135 209h87l-168 -256l79 -135q43 -73 102 -103zM392 0h-77v695q-18 -2 -49 1.5t-45 3.5q-40 0 -61 -23.5t-21 -78.5v-52h83v-66h-83v-700h-77v700h-56v66h56v43q0 185 156 185q12 0 41.5 -4t52.5 -4q45 0 80 5v-771
z" />
    <glyph glyph-name="f_f_j" unicode="ffj" horiz-adv-x="698" 
d="M139 595v-49h174v43q0 60 17 100q-56 13 -101 13t-67.5 -24t-22.5 -83zM565 480h-176v-700h-76v700h-174v-700h-76v700h-56v66h56v44q0 186 164 186q66 0 150 -28q37 26 92 26q13 0 42 -2.5t51 -3.5q22 0 62 4l12 -64q-41 -14 -87 -14q-14 0 -40 3t-38 3q-82 0 -82 -102
v-52h253v-567q0 -112 -36.5 -159.5t-104.5 -47.5q-26 0 -63 15l14 68q24 -10 46 -10q67 0 67 128v507z" />
    <glyph glyph-name="aogonek_j" unicode="&#x105;j" horiz-adv-x="599" 
d="M265 114v140q-4 0 -22 -0.5t-23.5 -1l-22 -2t-23 -3.5t-20 -5.5t-19 -8.5t-14.5 -12t-13 -16t-7 -21t-3 -27q0 -97 63 -97q50 0 104 54zM344 -226q-60 0 -95 32t-35 82q0 67 94 122q-23 14 -34 48q-49 -66 -126 -66q-63 0 -93 46t-30 113q0 76 49.5 116t125.5 43l65 3v81
q0 53 -18.5 72.5t-71.5 19.5q-35 0 -106 -28l-12 65q55 36 134 36q149 0 149 -150v-302q0 -44 50 -51l-5 -62q-100 -46 -100 -95q0 -31 22 -46.5t54 -15.5q46 0 74 37.5t28 98.5v573h77v-567q0 -56 -18.5 -97.5t-49 -64t-63 -33t-65.5 -10.5zM560 719l-60 -60l-58 60l58 59z
" />
    <glyph glyph-name=".notdef" horiz-adv-x="712" 
d="M305 375v27h27v-27h-27zM380 525v27h27v-27h-27zM305 525v27h27v-27h-27zM230 525v27h27v-27h-27zM80 0v27h27v-27h-27zM155 0v27h27v-27h-27zM230 0v27h27v-27h-27zM305 0v27h27v-27h-27zM380 0v27h27v-27h-27zM80 75v27h27v-27h-27zM80 150v27h27v-27h-27zM80 225v27
h27v-27h-27zM80 300v27h27v-27h-27zM80 375v27h27v-27h-27zM80 450v27h27v-27h-27zM80 525v27h27v-27h-27zM80 600v27h27v-27h-27zM80 675v27h27v-27h-27zM155 675v27h27v-27h-27zM230 675v27h27v-27h-27zM305 675v27h27v-27h-27zM380 675v27h27v-27h-27zM455 675v27h27v-27
h-27zM530 675v27h27v-27h-27zM530 0v27h27v-27h-27zM455 0v27h27v-27h-27zM605 0v27h27v-27h-27zM605 675v27h27v-27h-27zM305 300v27h27v-27h-27zM305 150v27h27v-27h-27zM380 375v27h27v-27h-27zM455 375v27h27v-27h-27zM455 450v27h27v-27h-27zM455 525v27h27v-27h-27z
M605 600v27h27v-27h-27zM605 525v27h27v-27h-27zM605 375v27h27v-27h-27zM605 300v27h27v-27h-27zM605 150v27h27v-27h-27zM605 75v27h27v-27h-27zM605 225v27h27v-27h-27zM605 450v27h27v-27h-27z" />
    <glyph glyph-name=".null" horiz-adv-x="0" 
 />
    <glyph glyph-name="nonmarkingreturn" horiz-adv-x="333" 
 />
    <glyph glyph-name="space" unicode=" " horiz-adv-x="180" 
 />
    <glyph glyph-name="space" unicode="&#xa0;" horiz-adv-x="180" 
 />
    <glyph glyph-name="exclam" unicode="!" horiz-adv-x="207" 
d="M137 317l-5 -144h-66l-5 144v390h76v-390zM141 0h-84v91h84v-91z" />
    <glyph glyph-name="quotedbl" unicode="&#x22;" horiz-adv-x="256" 
d="M226 753l-5 -238h-64l-4 238h73zM99 753l-4 -238h-64l-5 238h73z" />
    <glyph glyph-name="numbersign" unicode="#" horiz-adv-x="427" 
d="M404 151h-73l-6 -151h-73l6 151h-99l-6 -151h-73l6 151h-61v67h64l6 129h-70v67h74l6 153h73l-6 -153h99l7 153h72l-6 -153h60v-67h-63l-6 -129h69v-67zM268 347h-100l-6 -129h100z" />
    <glyph glyph-name="dollar" unicode="$" horiz-adv-x="375" 
d="M342 157q0 -72 -34.5 -110.5t-90.5 -47.5l2 -98h-69l1 95q-71 7 -123 42l24 63q74 -38 125 -38q38 0 62.5 22t24.5 64q0 28 -22 50.5t-54 40t-64 38t-54 54.5t-22 79q0 56 28 90t75 45l-1 98h68l-2 -94q59 -3 111 -33l-19 -59q-66 26 -110 26q-32 0 -52 -19t-20 -51
q0 -29 22 -52.5t54 -42.5t64 -39t54 -51.5t22 -71.5z" />
    <glyph glyph-name="percent" unicode="%" horiz-adv-x="574" 
d="M265 551q0 -80 -35.5 -127t-87.5 -47q-54 0 -86.5 40t-32.5 126q0 77 35 124t87 47q54 0 87 -40.5t33 -122.5zM551 165q0 -80 -35.5 -127t-87.5 -47q-54 0 -87 40t-33 126q0 77 35.5 124t87.5 47q54 0 87 -40.5t33 -122.5zM197 552q0 101 -52 101q-24 0 -40.5 -28.5
t-16.5 -80.5q0 -50 14.5 -78t39.5 -28q24 0 39.5 28.5t15.5 85.5zM482 166q0 101 -51 101q-25 0 -41 -28.5t-16 -80.5q0 -50 14.5 -78t39.5 -28q23 0 38.5 29t15.5 85zM528 626l-438 -599l-47 41l438 598z" />
    <glyph glyph-name="ampersand" unicode="&#x26;" horiz-adv-x="503" 
d="M513 65l-5 -69q-101 1 -188 67q-35 -38 -64.5 -54.5t-77.5 -16.5q-62 0 -105.5 40t-43.5 135q0 112 93 212q-25 91 -25 167q0 68 33 115.5t97 47.5q115 0 115 -130q0 -79 -142 -221q43 -124 130 -205t183 -88zM273 575q0 70 -48 70q-25 0 -42.5 -24.5t-17.5 -60.5
q0 -49 15 -135q35 33 64 75.5t29 74.5zM274 105q-79 82 -125 204q-49 -58 -49 -137q0 -58 25 -84t61 -26q41 0 88 43z" />
    <glyph glyph-name="quotesingle" unicode="'" horiz-adv-x="131" 
d="M101 753l-5 -238h-63l-5 238h73z" />
    <glyph glyph-name="parenleft" unicode="(" horiz-adv-x="254" 
d="M254 730l-8 -9q-7 -9 -14.5 -19.5t-19 -28.5t-22.5 -39.5t-23 -48.5t-22 -59.5t-18 -69t-12.5 -80.5t-4.5 -90q0 -269 139 -464q3 -4 4 -5l-52 -42q-12 11 -27.5 31t-41 66t-46 100t-35.5 138t-15 175q0 92 15.5 173.5t36.5 133t47.5 94t42 59.5t26.5 26z" />
    <glyph glyph-name="parenright" unicode=")" horiz-adv-x="255" 
d="M53 -226l-49 44q0 1 8 12.5t15.5 23t19.5 32t22 43t22 52t21.5 63t17 71t12 81.5t4.5 90q0 94 -18 177.5t-45.5 138t-45 81t-32.5 44.5l-3 3l50 41q16 -13 37.5 -40.5t54.5 -85t55 -152.5t22 -208q0 -112 -21.5 -210t-54.5 -160.5t-54 -93t-38 -47.5z" />
    <glyph glyph-name="asterisk" unicode="*" horiz-adv-x="422" 
d="M384 643l-101 -43l-23 38l89 65zM248 762l-11 -109h-47l-12 109h70zM384 527l-35 -62l-89 64l24 41zM166 639l-24 -41l-100 45l35 60zM247 408h-70l12 108h47zM164 531l-88 -65l-34 60l100 44z" />
    <glyph glyph-name="plus" unicode="+" horiz-adv-x="353" 
d="M329 254h-117v-124h-71v124h-117v67h117v124h71v-124h117v-67z" />
    <glyph glyph-name="comma" unicode="," horiz-adv-x="228" 
d="M157 28q0 -71 -33 -153h-67q21 68 21 125v83h79v-55z" />
    <glyph glyph-name="hyphen" unicode="-" horiz-adv-x="264" 
d="M248 252h-232v69h232v-69z" />
    <glyph glyph-name="hyphen" unicode="&#xad;" horiz-adv-x="264" 
d="M248 252h-232v69h232v-69z" />
    <glyph glyph-name="period" unicode="." horiz-adv-x="228" 
d="M160 0h-86v90h86v-90z" />
    <glyph glyph-name="slash" unicode="/" horiz-adv-x="363" 
d="M331 769l-237 -831h-66l238 831h65z" />
    <glyph glyph-name="zero" unicode="0" horiz-adv-x="500" 
d="M465 275q0 -132 -60 -207.5t-156 -75.5t-154.5 74.5t-58.5 204.5t59 206.5t157 76.5q96 0 154.5 -77t58.5 -202zM388 274q0 91 -39.5 151t-97.5 60q-59 0 -98 -57t-39 -157q0 -92 39.5 -151t96.5 -59t97.5 59t40.5 154z" />
    <glyph glyph-name="one" unicode="1" horiz-adv-x="258" 
d="M185 0h-77v480h-101v62l178 7v-549z" />
    <glyph glyph-name="two" unicode="2" horiz-adv-x="358" 
d="M329 0h-307v61q4 5 33.5 39.5t46.5 55t45 58t44 64t29 56.5t13 50q0 98 -72 98q-48 0 -100 -41l-25 59q20 21 55.5 37t73.5 16q75 0 110 -44t35 -119q0 -119 -201 -323h220v-67z" />
    <glyph glyph-name="three" unicode="3" horiz-adv-x="357" 
d="M325 29q0 -104 -47.5 -151t-127.5 -47q-78 0 -139 33l17 68q65 -27 114 -27q108 0 108 122q0 62 -38 101.5t-100 44.5v68q49 5 82 44t33 92t-22.5 79t-57.5 26q-13 0 -26 -2.5t-23.5 -6t-18.5 -7t-15 -6.5l-6 -3l-23 60q55 37 117 37q69 0 108.5 -44.5t39.5 -125.5
q0 -60 -27.5 -104t-59.5 -64q42 -20 77 -67t35 -120z" />
    <glyph glyph-name="four" unicode="4" horiz-adv-x="404" 
d="M395 28h-87v-189h-77v189h-223v71l193 447h107v-450h87v-68zM231 96v381h-3l-40 -112l-103 -269h146z" />
    <glyph glyph-name="five" unicode="5" horiz-adv-x="379" 
d="M348 55q0 -105 -48 -165t-131 -60q-77 0 -131 23l18 75q54 -21 112 -21q45 0 74.5 38t29.5 99q0 73 -30.5 108t-79.5 35q-43 0 -104 -8v367h272v-72h-199v-216q36 2 53 2q77 0 120.5 -54.5t43.5 -150.5z" />
    <glyph glyph-name="six" unicode="6" horiz-adv-x="410" 
d="M381 228q0 -112 -44 -176.5t-124 -64.5q-94 0 -135.5 74.5t-41.5 241.5q0 191 58 301t168 110q53 0 84 -17l-14 -68q-28 12 -70 12q-150 0 -150 -344q0 -58 4 -98t15.5 -74t33 -51t53.5 -17q41 0 64.5 46.5t23.5 109.5q0 71 -25 111.5t-68 40.5q-19 0 -59 -8l-2 67
q39 12 71 12q80 0 119 -58t39 -150z" />
    <glyph glyph-name="seven" unicode="7" horiz-adv-x="320" 
d="M319 468l-223 -645l-73 27l221 622h-248v74h323v-78z" />
    <glyph glyph-name="eight" unicode="8" horiz-adv-x="417" 
d="M385 172q0 -87 -48 -134.5t-131 -47.5q-79 0 -126 45.5t-47 126.5q0 66 31.5 115t89.5 95q-50 44 -74.5 84t-24.5 98q0 78 42.5 119t117.5 41q72 0 111.5 -44.5t39.5 -109.5q0 -60 -25 -100.5t-79 -88.5q58 -47 90.5 -93t32.5 -106zM290 550q0 41 -18 68.5t-58 27.5
q-43 0 -64.5 -25t-21.5 -70q0 -63 79 -138q83 71 83 137zM307 178q0 65 -101 150q-94 -71 -94 -159q0 -51 26 -80t72 -29t71.5 29.5t25.5 88.5z" />
    <glyph glyph-name="nine" unicode="9" horiz-adv-x="413" 
d="M378 236q0 -216 -53 -312.5t-178 -96.5q-40 0 -81 16l13 70q39 -13 67 -13q35 0 61 12t42.5 37t27.5 53.5t16 71.5t6.5 80.5t1.5 90.5q0 61 -9.5 111.5t-33.5 87.5t-60 37q-41 0 -64 -43.5t-23 -105.5q0 -166 91 -166q22 0 61 11l4 -68q-41 -13 -78 -13q-78 0 -117 58.5
t-39 163.5q0 107 45.5 171.5t124.5 64.5q85 0 130 -86t45 -232z" />
    <glyph glyph-name="colon" unicode=":" horiz-adv-x="228" 
d="M159 454h-88v92h88v-92zM159 0h-88v92h88v-92z" />
    <glyph glyph-name="semicolon" unicode=";" horiz-adv-x="228" 
d="M57 -125q21 68 21 125v83h79v-55q0 -71 -33 -153h-67zM71 454v92h88v-92h-88z" />
    <glyph glyph-name="less" unicode="&#x3c;" horiz-adv-x="321" 
d="M305 74l-289 166v96l289 166v-79l-232 -133v-4l232 -133v-79z" />
    <glyph glyph-name="equal" unicode="=" horiz-adv-x="334" 
d="M315 351h-296v66h296v-66zM315 156h-296v66h296v-66z" />
    <glyph glyph-name="greater" unicode="&#x3e;" horiz-adv-x="321" 
d="M305 240l-289 -166v79l232 134v4l-232 132v79l289 -166v-96z" />
    <glyph glyph-name="question" unicode="?" horiz-adv-x="284" 
d="M82 162q-11 51 -11 79q0 43 17 82.5t37 64.5t37 55t17 55q0 59 -35.5 95t-91.5 45l13 72q83 -9 137 -58t54 -145q0 -42 -17.5 -81.5t-39 -65.5t-39 -58.5t-17.5 -62.5q0 -12 3 -34.5t3 -26.5zM76 0v91h84v-91h-84z" />
    <glyph glyph-name="at" unicode="@" horiz-adv-x="575" 
d="M544 428q0 -140 -50.5 -212t-121.5 -72q-53 0 -62 55q-17 -19 -40 -34.5t-39 -15.5q-76 0 -76 132q0 100 40.5 161.5t110.5 61.5q44 0 88 -25l-20 -236q-3 -33 15 -33t36 18t34 71t16 132q0 219 -142 219q-100 0 -167 -91.5t-67 -285.5q0 -276 174 -276q55 0 120 21
l10 -62q-59 -28 -139 -28q-115 0 -175 88.5t-60 246.5q0 225 86.5 338.5t222.5 113.5q94 0 150 -71.5t56 -215.5zM324 438q-6 3 -18 3q-41 0 -62 -44t-21 -111q0 -66 21 -66q34 0 64 44z" />
    <glyph glyph-name="A" unicode="A" horiz-adv-x="486" 
d="M486 0h-84l-67 264h-181l-75 -264h-79l203 707h98zM319 333l-56 232l-12 68h-4l-12 -68l-63 -232h147z" />
    <glyph glyph-name="B" unicode="B" horiz-adv-x="467" 
d="M429 206q0 -95 -45.5 -150.5t-141.5 -55.5h-169v707h147q86 0 129.5 -48t43.5 -128q0 -47 -17 -92t-50 -62v-3q49 -15 76 -62t27 -106zM312 516q0 64 -26 93.5t-81 29.5h-54v-241h65q53 0 74.5 29.5t21.5 88.5zM349 203q0 73 -33.5 99.5t-108.5 26.5h-56v-257h78
q120 0 120 131z" />
    <glyph glyph-name="C" unicode="C" horiz-adv-x="467" 
d="M460 23q-62 -33 -157 -33q-127 0 -198 99.5t-71 259.5q0 164 72.5 264t195.5 100q95 0 155 -35l-17 -70q-76 33 -139 33q-81 0 -134 -71t-53 -211q0 -145 56.5 -218.5t145.5 -73.5q66 0 129 24z" />
    <glyph glyph-name="D" unicode="D" horiz-adv-x="539" 
d="M506 356q0 -179 -75 -267.5t-210 -88.5h-148v707h144q130 0 209.5 -92t79.5 -259zM428 345q0 144 -56.5 217.5t-155.5 73.5h-65v-565h78q94 0 146.5 70t52.5 204z" />
    <glyph glyph-name="E" unicode="E" horiz-adv-x="419" 
d="M390 0h-317v707h301v-69h-222v-249h206v-68h-206v-250h238v-71z" />
    <glyph glyph-name="F" unicode="F" horiz-adv-x="403" 
d="M387 638h-235v-267h220v-71h-220v-300h-79v707h314v-69z" />
    <glyph glyph-name="G" unicode="G" horiz-adv-x="508" 
d="M465 22q-62 -32 -162 -32q-127 0 -198 99.5t-71 259.5q0 163 72.5 264t196.5 101q87 0 157 -37l-20 -69q-79 34 -139 34q-81 0 -134 -71.5t-53 -211.5q0 -145 56.5 -220t145.5 -75q41 0 72 8v232h77v-282z" />
    <glyph glyph-name="H" unicode="H" horiz-adv-x="559" 
d="M486 0h-79v319h-255v-319h-79v707h79v-316h255v316h79v-707z" />
    <glyph glyph-name="I" unicode="I" horiz-adv-x="225" 
d="M152 0h-79v707h79v-707z" />
    <glyph glyph-name="J" unicode="J" horiz-adv-x="223" 
d="M152 156q0 -133 -29.5 -213t-122.5 -135l-38 56q65 46 88 108t23 173v562h79v-551z" />
    <glyph glyph-name="K" unicode="K" horiz-adv-x="451" 
d="M464 0h-98l-172 298l-34 66v23l34 60l164 260h92l-215 -328zM152 0h-79v707h79v-707z" />
    <glyph glyph-name="L" unicode="L" horiz-adv-x="372" 
d="M369 0h-296v707h79v-634h217v-73z" />
    <glyph glyph-name="M" unicode="M" horiz-adv-x="685" 
d="M612 0h-79v459l7 116h-6l-146 -575h-101l-138 565h-5l8 -118v-447h-79v707h112l153 -630h3l163 630h108v-707z" />
    <glyph glyph-name="N" unicode="N" horiz-adv-x="564" 
d="M490 0h-92l-250 563h-4l8 -113v-450h-79v707h91l251 -572h4l-7 118v454h78v-707z" />
    <glyph glyph-name="O" unicode="O" horiz-adv-x="590" 
d="M556 353q0 -165 -71.5 -265t-196.5 -100q-122 0 -188.5 99.5t-66.5 267.5q0 166 73.5 264t195.5 98q123 0 188.5 -101.5t65.5 -262.5zM475 354q0 132 -48.5 213t-133.5 81q-86 0 -132.5 -80.5t-46.5 -211.5q0 -130 46.5 -214t131.5 -84q90 0 136.5 81t46.5 215z" />
    <glyph glyph-name="P" unicode="P" horiz-adv-x="426" 
d="M419 483q0 -99 -56.5 -163.5t-161.5 -64.5h-17v72h22q57 0 94 38.5t37 112.5q0 76 -30.5 117t-84.5 41h-71v-636h-78v707h156q88 0 139 -59t51 -165z" />
    <glyph glyph-name="Q" unicode="Q" horiz-adv-x="590" 
d="M556 353q0 -165 -71.5 -265t-196.5 -100q-121 0 -188 101t-67 266q0 166 73.5 264t195.5 98q123 0 188.5 -101.5t65.5 -262.5zM477 354q0 131 -49 212.5t-135 81.5t-134 -81t-48 -211q0 -129 48 -213.5t133 -84.5q90 0 137.5 81.5t47.5 214.5zM572 -160h-39q-29 0 -43 1
q-51 4 -110 30q-62 31 -106 31v67q60 0 131 -30q56 -27 128 -27h39v-72z" />
    <glyph glyph-name="R" unicode="R" horiz-adv-x="506" 
d="M503 53l-15 -64q-37 2 -77 27.5t-69 83.5l-89 182q-18 -4 -62 -4h-40v-278h-78v707h172q80 0 127 -53.5t47 -158.5q0 -136 -94 -190l78 -150q38 -72 100 -102zM337 490q0 146 -107 146h-79v-289h62q124 0 124 143z" />
    <glyph glyph-name="S" unicode="S" horiz-adv-x="400" 
d="M373 185q0 -93 -56.5 -143.5t-137.5 -50.5q-85 0 -153 50l31 62q64 -40 121 -40q50 0 82 29.5t32 87.5q0 34 -18 63t-45 49t-58.5 45.5t-58.5 49.5t-45 63t-18 86q0 80 49 127.5t120 47.5q68 0 129 -33l-24 -62q-52 24 -102 24q-44 0 -68.5 -26.5t-24.5 -75.5
q0 -32 18 -61t45.5 -49.5t59 -46t59 -50.5t45.5 -63t18 -83z" />
    <glyph glyph-name="T" unicode="T" horiz-adv-x="410" 
d="M416 635h-171v-635h-79v635h-172v72h422v-72z" />
    <glyph glyph-name="U" unicode="U" horiz-adv-x="554" 
d="M488 270q0 -81 -18.5 -139t-50.5 -88t-66.5 -43t-73.5 -13q-42 0 -77.5 12t-67.5 39t-50 79.5t-18 126.5v463h80v-464q0 -184 133 -184q59 0 96 47.5t37 159.5v441h76v-437z" />
    <glyph glyph-name="V" unicode="V" horiz-adv-x="469" 
d="M479 707l-206 -707h-96l-187 707h85l132 -528l18 -99h3l23 104l148 523h80z" />
    <glyph glyph-name="W" unicode="W" horiz-adv-x="725" 
d="M727 707l-170 -707h-101l-82 338l-14 79h-3l-18 -78l-96 -339h-101l-143 707h81l102 -530l14 -103h3l21 101l103 354l-45 178h81l128 -532l18 -100h3l17 102l125 530h77z" />
    <glyph glyph-name="X" unicode="X" horiz-adv-x="442" 
d="M439 0h-90l-102 247l-23 59h-2l-23 -56l-112 -250h-88l183 374l-153 333h90l81 -200l25 -63h2l26 63l90 200h84l-159 -332z" />
    <glyph glyph-name="Y" unicode="Y" horiz-adv-x="411" 
d="M419 707l-179 -439v-268h-78v269l-170 438h88l93 -263l28 -92h4l28 91l101 264h85z" />
    <glyph glyph-name="Z" unicode="Z" horiz-adv-x="394" 
d="M381 0h-367v77l264 555h-246v75h334v-71l-266 -561h281v-75z" />
    <glyph glyph-name="bracketleft" unicode="[" horiz-adv-x="255" 
d="M218 -220h-145v974h145v-70h-71v-834h71v-70z" />
    <glyph glyph-name="backslash" unicode="\" horiz-adv-x="365" 
d="M267 -62l-238 831h65l238 -831h-65z" />
    <glyph glyph-name="bracketright" unicode="]" horiz-adv-x="255" 
d="M182 -220h-145v70h71v834h-71v70h145v-974z" />
    <glyph glyph-name="asciicircum" unicode="^" horiz-adv-x="377" 
d="M349 294h-80l-52 232l-23 109h-4l-26 -109l-59 -232h-78l122 413h90z" />
    <glyph glyph-name="underscore" unicode="_" horiz-adv-x="378" 
d="M378 -165h-378v69h378v-69z" />
    <glyph glyph-name="grave" unicode="`" horiz-adv-x="407" 
d="M299 660l-36 -47l-159 127l45 56z" />
    <glyph glyph-name="a" unicode="a" horiz-adv-x="411" 
d="M390 56l-5 -62q-29 0 -51 8t-34 19.5t-18 20.5t-8 16q-49 -66 -129 -66q-62 0 -91 46t-29 113q0 76 49.5 116t125.5 43l65 3v81q0 53 -18.5 72.5t-71.5 19.5q-35 0 -106 -28l-12 65q55 36 134 36q149 0 149 -150v-302q0 -44 50 -51zM265 114v140q-4 0 -22 -0.5t-23.5 -1
l-22 -2t-23 -3.5t-20 -5.5t-19 -8.5t-14.5 -12t-13 -16t-7 -21t-3 -27q0 -97 63 -97q50 0 104 54z" />
    <glyph glyph-name="b" unicode="b" horiz-adv-x="433" 
d="M401 291q0 -158 -55 -228.5t-141 -70.5q-82 0 -145 27v735h76v-683q21 -7 70 -7q55 0 86.5 59.5t31.5 151.5q0 211 -101 211q-23 0 -50 -10l-6 63q37 15 65 15q169 0 169 -263z" />
    <glyph glyph-name="c" unicode="c" horiz-adv-x="360" 
d="M340 12q-49 -21 -100 -21q-108 0 -157 67.5t-49 214.5q0 131 50.5 208t139.5 77q68 0 118 -35l-20 -66q-55 31 -99 31q-50 0 -81.5 -57t-31.5 -155q0 -110 30.5 -161.5t105.5 -51.5q18 0 86 15z" />
    <glyph glyph-name="d" unicode="d" horiz-adv-x="429" 
d="M370 0h-76v52q-13 -21 -42.5 -40.5t-59.5 -19.5q-65 0 -111.5 63.5t-46.5 215.5q0 137 52 212t132 75q14 0 27 -1.5t21 -3t14.5 -3.5t9.5 -3.5t4 -1.5v209h76v-754zM294 116v359q-28 14 -66 14q-60 0 -89.5 -60.5t-29.5 -158.5q0 -102 27.5 -154t72.5 -52q36 0 85 52z
" />
    <glyph glyph-name="e" unicode="e" horiz-adv-x="393" 
d="M366 256h-257q0 -109 34 -150.5t101 -41.5q43 0 102 21l14 -67q-47 -27 -133 -27q-95 0 -144 62.5t-49 209.5q0 153 50 224.5t132 71.5q150 0 150 -272v-31zM287 320q0 80 -20 127t-60 47q-84 0 -97 -174h177z" />
    <glyph glyph-name="f" unicode="f" horiz-adv-x="248" 
d="M312 756l-11 -69q-45 13 -81 13q-41 0 -61 -22.5t-20 -79.5v-52h83v-66h-83v-700h-77v700h-56v66h56v43q0 185 155 185q54 0 95 -18z" />
    <glyph glyph-name="g" unicode="g" horiz-adv-x="430" 
d="M371 -30q0 -98 -46 -148t-124 -50t-137 22l13 74q66 -22 112 -22q52 0 78.5 26t26.5 105v61q-4 -5 -12 -12.5t-31.5 -20.5t-46.5 -13q-170 0 -170 277q0 137 52.5 213t136.5 76q63 0 148 -20v-568zM295 110v370q-42 7 -68 7q-61 0 -89.5 -60.5t-28.5 -160.5
q0 -204 111 -204q12 0 24.5 6t18 11t19.5 18z" />
    <glyph glyph-name="h" unicode="h" horiz-adv-x="447" 
d="M391 0h-76v345q0 75 -13 106.5t-57 31.5q-38 0 -109 -60v-423h-76v754h76v-268q4 7 19.5 22t46.5 32.5t61 17.5q35 0 60.5 -14t38 -33t19.5 -50t8.5 -53.5t1.5 -55.5v-352z" />
    <glyph glyph-name="i" unicode="i" horiz-adv-x="195" 
d="M136 0h-76v546h76v-546zM158 715l-60 -60l-58 60l58 59z" />
    <glyph glyph-name="j" unicode="j" horiz-adv-x="195" 
d="M136 -21q0 -111 -36.5 -159t-104.5 -48q-25 0 -62 15l14 68q24 -10 45 -10q37 0 52.5 32t15.5 96v573h76v-567zM158 715l-60 -60l-58 60l58 59z" />
    <glyph glyph-name="k" unicode="k" horiz-adv-x="398" 
d="M398 52l-22 -61q-38 3 -70.5 28.5t-64.5 85.5l-81 144l-20 39l23 49l135 209h87l-168 -256l79 -135q45 -75 102 -103zM136 0h-76v754h76v-754z" />
    <glyph glyph-name="l" unicode="l" horiz-adv-x="196" 
d="M136 0h-76v754h76v-754z" />
    <glyph glyph-name="m" unicode="m" horiz-adv-x="684" 
d="M628 0h-75v346q0 31 -1 49t-4.5 37.5t-10.5 28.5t-19 15.5t-31 6.5q-36 0 -109 -59q3 -26 3 -73v-351h-76v346q0 77 -11 107t-54 30q-10 0 -21 -3.5t-19.5 -8t-20 -13t-17 -13t-15.5 -13t-11 -9.5v-423h-76v546h76v-59q4 7 19.5 21.5t46 32t57.5 17.5q83 0 109 -77
q19 23 60 50t78 27q29 0 51 -8.5t35 -26.5t21 -35t11 -45.5t3.5 -45t0.5 -46.5v-351z" />
    <glyph glyph-name="n" unicode="n" horiz-adv-x="447" 
d="M391 0h-76v345q0 75 -13 106.5t-57 31.5q-38 0 -109 -60v-423h-76v546h76v-60q4 7 19.5 22t46.5 32.5t61 17.5q35 0 60.5 -14t38 -33t19.5 -50t8.5 -53.5t1.5 -55.5v-352z" />
    <glyph glyph-name="o" unicode="o" horiz-adv-x="434" 
d="M402 273q0 -137 -51 -209.5t-136 -72.5q-87 0 -134.5 72.5t-47.5 203.5q0 137 50.5 214t136.5 77q92 0 137 -74.5t45 -210.5zM326 273q0 41 -5 76.5t-17 68.5t-34 52.5t-53 19.5q-38 0 -63.5 -34.5t-35 -81t-9.5 -102.5q0 -92 26.5 -152t83.5 -60t82 60.5t25 152.5z" />
    <glyph glyph-name="p" unicode="p" horiz-adv-x="433" 
d="M401 286q0 -157 -54.5 -225.5t-141.5 -68.5q-9 0 -19.5 0.5t-18.5 1.5t-15 2t-12 2h-4v-218h-76v766h76v-44q5 6 14 15t36.5 23.5t55.5 14.5q74 0 116.5 -72.5t42.5 -196.5zM324 267q0 215 -103 215q-35 0 -85 -43v-370q30 -7 70 -7q55 0 86.5 57t31.5 148z" />
    <glyph glyph-name="q" unicode="q" horiz-adv-x="429" 
d="M370 -220h-77v238q-39 -26 -85 -26q-175 0 -175 281q0 133 54.5 209t138.5 76q70 0 144 -28v-750zM293 89v389q-31 9 -67 9q-60 0 -89.5 -62t-29.5 -154q0 -107 28.5 -157t76.5 -50t81 25z" />
    <glyph glyph-name="r" unicode="r" horiz-adv-x="283" 
d="M291 546l-10 -72q-21 9 -54 9q-28 0 -52.5 -23t-38.5 -55v-405h-76v546h76v-64h3q38 74 96 74q33 0 56 -10z" />
    <glyph glyph-name="s" unicode="s" horiz-adv-x="337" 
d="M312 151q0 -77 -48.5 -118t-111.5 -41q-68 0 -123 24l11 68q65 -23 107 -23q38 0 64 23t26 58q0 30 -20.5 54t-49 43t-57.5 40.5t-49.5 55t-20.5 77.5q0 70 40.5 107t106.5 37q48 0 102 -23l-12 -65q-50 21 -97 21q-31 0 -48.5 -19t-17.5 -50q0 -29 20.5 -54t49.5 -44
t58 -40.5t49.5 -55t20.5 -75.5z" />
    <glyph glyph-name="t" unicode="t" horiz-adv-x="302" 
d="M296 13q-42 -19 -81 -19q-38 0 -60.5 5t-42.5 21t-28.5 49t-8.5 87v323h-58v67h58v112h74v-112h121v-67h-121v-327q0 -51 14.5 -70t51.5 -19q40 0 70 15z" />
    <glyph glyph-name="u" unicode="u" horiz-adv-x="447" 
d="M391 0h-77v63q-4 -7 -19 -22.5t-46 -33.5t-61 -18q-35 0 -60.5 14t-38 32.5t-19.5 50t-8.5 53.5t-1.5 55v352h75v-347q0 -74 13.5 -106t57.5 -32q26 0 57.5 21.5t50.5 41.5v422h77v-546z" />
    <glyph glyph-name="v" unicode="v" horiz-adv-x="377" 
d="M374 546l-145 -546h-95l-131 546h82l82 -374l14 -95h5l16 98l93 371h79z" />
    <glyph glyph-name="w" unicode="w" horiz-adv-x="629" 
d="M627 546l-138 -546h-93l-69 365l-11 85h-5l-12 -86l-79 -364h-91l-125 546h79l80 -383l10 -84h6l10 84l82 383h89l73 -379l10 -87h6l11 83l90 383h77z" />
    <glyph glyph-name="x" unicode="x" horiz-adv-x="366" 
d="M366 0h-89l-92 219h-6l-91 -219h-89l143 279l-134 267h88l84 -207h6l86 207h84l-131 -265z" />
    <glyph glyph-name="y" unicode="y" horiz-adv-x="373" 
d="M372 546l-195 -766h-76l53 220h-21l-130 546h81l85 -388l11 -87h6l12 86l95 389h79z" />
    <glyph glyph-name="z" unicode="z" horiz-adv-x="359" 
d="M339 0h-317v78l229 396h-211v72h296v-74l-230 -400h233v-72z" />
    <glyph glyph-name="braceleft" unicode="{" horiz-adv-x="253" 
d="M242 -220h-26q-65 0 -103.5 30.5t-38.5 112.5q0 19 1 30l16 195q2 32 -15.5 60t-45.5 28v75q28 0 46 26.5t15 60.5l-16 203q-13 172 141 172h26v-71q-59 0 -79 -23t-15 -84l13 -176q9 -110 -56 -145v-2q65 -42 56 -141l-13 -178q-4 -58 17 -80.5t77 -22.5v-70z" />
    <glyph glyph-name="bar" unicode="|" horiz-adv-x="193" 
d="M131 -220h-68v974h68v-974z" />
    <glyph glyph-name="braceright" unicode="}" horiz-adv-x="253" 
d="M223 242q-28 0 -46 -27t-15 -60l16 -203q13 -172 -141 -172h-26v70q59 0 79 23t15 85l-13 176q-9 110 56 143v3q-65 40 -56 142l13 178q4 58 -17 80.5t-77 22.5v70h26q65 0 103.5 -30.5t38.5 -112.5q0 -19 -1 -30l-16 -195q-2 -32 15.5 -60t45.5 -28v-75z" />
    <glyph glyph-name="asciitilde" unicode="~" horiz-adv-x="386" 
d="M375 347q-54 -57 -107 -57q-34 0 -81.5 27t-72.5 27q-11 0 -21.5 -3.5t-16 -7t-17.5 -12t-16 -10.5l-32 57q52 52 110 52q35 0 78 -27.5t70 -27.5q23 0 69 36z" />
    <glyph glyph-name="exclamdown" unicode="&#xa1;" horiz-adv-x="207" 
d="M141 454h-84v91h84v-91zM137 -162h-76v390l5 145h66l5 -145v-390z" />
    <glyph glyph-name="cent" unicode="&#xa2;" horiz-adv-x="358" 
d="M334 48q-47 -16 -82 -19l1 -74h-67l1 77q-83 16 -117.5 75t-34.5 171q0 91 40.5 158t109.5 76l-3 81h70l-2 -78q45 -3 89 -37l-24 -58q-50 31 -95 31q-49 0 -79 -42.5t-30 -133.5q0 -96 28.5 -137t100.5 -41q35 0 85 15z" />
    <glyph glyph-name="sterling" unicode="&#xa3;" horiz-adv-x="342" 
d="M329 0h-291v66q24 13 42 55t17 84h-71v66h71q1 14 -0.5 45.5t-1.5 39.5q0 108 51.5 151.5t148.5 46.5q0 -5 1.5 -30.5t1.5 -37.5q-27 -3 -42 -6t-34 -11t-28.5 -21t-16.5 -36t-7 -56q0 -13 0.5 -42t0.5 -43h128v-66h-130q0 -40 -13 -74.5t-26 -48.5l-13 -15h212v-67z" />
    <glyph glyph-name="currency" unicode="&#xa4;" horiz-adv-x="500" 
d="M443 525l-66 -66q33 -36 33 -107q0 -70 -36 -108l67 -67l-37 -39l-69 69q-32 -26 -84 -26q-54 0 -84 26l-71 -68l-39 40l69 66q-35 42 -35 107q0 66 35 106l-69 68l39 38l70 -70q29 31 89 31q53 0 81 -28l67 68zM345 352q0 50 -23 82t-72 32q-45 0 -68.5 -32.5
t-23.5 -81.5q0 -47 26 -79.5t68 -32.5q45 0 69 32t24 80z" />
    <glyph glyph-name="yen" unicode="&#xa5;" horiz-adv-x="405" 
d="M396 546l-93 -226h95v-68h-124l-36 -91v-11h160v-67h-161v-83h-76v83h-154v67h154v11l-36 91h-118v68h91l-89 226h85l92 -250l14 -63h2l16 66l96 247h82z" />
    <glyph glyph-name="brokenbar" unicode="&#xa6;" horiz-adv-x="193" 
d="M131 391h-68v362h68v-362zM131 -220h-68v362h68v-362z" />
    <glyph glyph-name="section" unicode="&#xa7;" horiz-adv-x="367" 
d="M396 568l-30 -59q-39 27 -79 27q-19 0 -31 -18.5t-12 -47.5q0 -25 8 -73l21 -132q10 -59 10 -111q0 -105 -54 -169.5t-143 -64.5q-53 0 -96 31l23 62q36 -24 65 -24q39 0 39 86q0 24 -11 97l-18 115q-7 38 -7 78q0 117 55 178.5t146 61.5q71 0 114 -37zM209 207l-25 171
q-4 31 -4 61q0 20 2 38t4 25l2 8l-3 3q-35 -51 -35 -125q0 -36 5 -70l25 -167q5 -40 5 -60q0 -39 -16 -78l4 -3q13 18 19 27.5t14 38t8 63.5t-5 68z" />
    <glyph glyph-name="dieresis" unicode="&#xa8;" horiz-adv-x="326" 
d="M294 715l-54 -55l-53 55l53 53zM141 715l-54 -55l-53 55l53 53z" />
    <glyph glyph-name="copyright" unicode="&#xa9;" horiz-adv-x="615" 
d="M578 274q0 -164 -73.5 -264t-202.5 -100q-125 0 -193.5 101t-68.5 265q0 165 75.5 263t200.5 98q127 0 194.5 -101.5t67.5 -261.5zM518 275q0 138 -56.5 223t-153.5 85q-98 0 -153.5 -83.5t-55.5 -222.5q0 -136 54 -224.5t152 -88.5q105 0 159 85.5t54 225.5zM418 455
l-23 -52q-37 24 -73 24q-42 0 -69.5 -36.5t-27.5 -108.5q0 -73 29.5 -112t76.5 -39q27 0 74 19l15 -55q-49 -27 -97 -27q-78 0 -120 59t-42 150q0 96 43 154t117 58q52 0 97 -34z" />
    <glyph glyph-name="ordfeminine" unicode="&#xaa;" horiz-adv-x="303" 
d="M259 439l-3 -54q-59 -5 -69 34q-36 -36 -70 -36q-36 0 -55 25.5t-19 70.5q0 93 101 93l37 1v44q0 28 -9 36t-35 8q-11 0 -22.5 -2.5t-19.5 -5t-15.5 -5.5t-8.5 -3l-10 46q41 24 85 24q91 0 91 -93v-164q0 -13 4.5 -16t17.5 -3zM266 300h-231v56h231v-56zM181 468v60
q-35 0 -41 -3q-42 -4 -42 -43q0 -43 31 -43q16 0 52 29z" />
    <glyph glyph-name="guillemotleft" unicode="&#xab;" horiz-adv-x="353" 
d="M328 469l-82 -197l82 -194l-59 -25l-100 219l101 221zM183 469l-82 -197l82 -194l-59 -25l-100 219l100 221z" />
    <glyph glyph-name="logicalnot" unicode="&#xac;" horiz-adv-x="342" 
d="M317 160h-71v157h-222v69h293v-226z" />
    <glyph glyph-name="registered" unicode="&#xae;" horiz-adv-x="589" 
d="M517 531q0 -104 -61.5 -163.5t-160.5 -59.5q-43 0 -81.5 12.5t-71 38.5t-51.5 70t-19 102q0 105 62.5 165t161.5 60q94 0 157.5 -57t63.5 -168zM473 531q0 89 -51.5 136.5t-125.5 47.5q-78 0 -128 -45t-50 -135q0 -53 18 -91.5t47 -57.5t58 -27.5t58 -8.5q79 0 126.5 48
t47.5 133zM416 448l-7 -32q-50 0 -75 31q-23 24 -48 65q-4 -1 -18 -1h-14v-90h-46v242h87q38 0 59.5 -19t21.5 -56q0 -49 -44 -67q25 -36 37 -46q10 -12 47 -27zM332 586q0 22 -10 31.5t-36 9.5h-32v-81h27q51 0 51 40z" />
    <glyph glyph-name="macron" unicode="&#xaf;" horiz-adv-x="389" 
d="M310 668h-232v65h232v-65z" />
    <glyph glyph-name="macron" unicode="&#x2c9;" horiz-adv-x="389" 
d="M310 668h-232v65h232v-65z" />
    <glyph glyph-name="degree" unicode="&#xb0;" horiz-adv-x="326" 
d="M290 587q0 -61 -35.5 -96.5t-94.5 -35.5q-124 0 -124 132q0 58 35.5 93.5t91.5 35.5q60 0 93.5 -34t33.5 -95zM229 587q0 36 -17.5 56.5t-49.5 20.5t-49 -20.5t-17 -56.5q0 -79 66 -79q67 0 67 79z" />
    <glyph glyph-name="plusminus" unicode="&#xb1;" horiz-adv-x="361" 
d="M337 254h-121v-117h-71v117h-121v67h120v124h72v-124h121v-67zM337 0h-313v68h313v-68z" />
    <glyph glyph-name="twosuperior" unicode="&#xb2;" horiz-adv-x="235" 
d="M13 415v50q82 77 104 106q38 51 38 100q0 29 -11.5 45t-31.5 16q-41 0 -68 -34l-22 39q37 50 95 50q40 0 67 -29.5t27 -80.5q0 -34 -11.5 -64.5t-35 -58t-41 -44.5t-47.5 -41h138v-54h-201z" />
    <glyph glyph-name="threesuperior" unicode="&#xb3;" horiz-adv-x="231" 
d="M103 410q-42 0 -82 16l10 49q41 -13 67 -13q59 0 59 57q0 36 -18 50t-60 18v39q34 4 49.5 19t15.5 45q0 47 -42 47q-26 0 -54 -17l-12 41q36 26 74 26q39 0 64 -24t25 -65q0 -61 -47 -86q29 -8 45.5 -33.5t16.5 -58.5q0 -56 -32 -83t-79 -27z" />
    <glyph glyph-name="acute" unicode="&#xb4;" horiz-adv-x="391" 
d="M298 743l-156 -127l-38 45l148 138z" />
    <glyph glyph-name="mu" unicode="&#xb5;" horiz-adv-x="470" 
d="M68 -220v766h77v-348q0 -75 12.5 -106t56.5 -31q45 0 108 63v422h76v-443q0 -45 52 -52l-5 -57q-19 0 -36 3t-28.5 9.5t-20 12.5t-15 14.5t-9.5 13.5t-6 12l-4 7q-20 -33 -52.5 -55.5t-66.5 -22.5q-37 0 -62 22v-230h-77z" />
    <glyph glyph-name="mu" unicode="&#x3bc;" horiz-adv-x="470" 
d="M68 -220v766h77v-348q0 -75 12.5 -106t56.5 -31q45 0 108 63v422h76v-443q0 -45 52 -52l-5 -57q-19 0 -36 3t-28.5 9.5t-20 12.5t-15 14.5t-9.5 13.5t-6 12l-4 7q-20 -33 -52.5 -55.5t-66.5 -22.5q-37 0 -62 22v-230h-77z" />
    <glyph glyph-name="paragraph" unicode="&#xb6;" horiz-adv-x="434" 
d="M243 270h-43q-187 0 -187 220q0 217 175 217h55v-437zM374 -17q0 -109 -36 -156t-106 -47q-26 0 -63 13l11 68q24 -8 52 -8q65 0 65 124v730h77v-724z" />
    <glyph glyph-name="periodcentered" unicode="&#xb7;" horiz-adv-x="203" 
d="M156 355l-54 -54l-54 54l54 53z" />
    <glyph glyph-name="periodcentered" unicode="&#x2219;" horiz-adv-x="203" 
d="M156 355l-54 -54l-54 54l54 53z" />
    <glyph glyph-name="cedilla" unicode="&#xb8;" horiz-adv-x="329" 
d="M229 -127q0 -69 -107 -123l-31 57q66 37 66 71q0 25 -23 71h72q23 -41 23 -76z" />
    <glyph glyph-name="onesuperior" unicode="&#xb9;" horiz-adv-x="193" 
d="M83 411v314h-63v50l120 5v-369h-57z" />
    <glyph glyph-name="ordmasculine" unicode="&#xba;" horiz-adv-x="303" 
d="M265 549q0 -78 -32.5 -122.5t-84.5 -44.5q-54 0 -82 44t-28 121q0 79 30 124.5t83 45.5q57 0 85.5 -44t28.5 -124zM266 300h-229v56h229v-56zM204 549q0 114 -53 114t-53 -115q0 -111 53 -111t53 112z" />
    <glyph glyph-name="guillemotright" unicode="&#xbb;" horiz-adv-x="353" 
d="M330 272l-99 -219l-61 22l82 197l-81 193l58 26zM185 272l-100 -219q-1 0 -29 10t-31 12l82 197l-81 193l58 26z" />
    <glyph glyph-name="onequarter" unicode="&#xbc;" horiz-adv-x="614" 
d="M521 613l-442 -556l-39 31l444 558zM96 411v314h-63v50l120 5v-369h-57zM481 0v88h-124v54l101 224h78v-229h47v-49h-47v-88h-55zM400 137h81v176z" />
    <glyph glyph-name="onehalf" unicode="&#xbd;" horiz-adv-x="609" 
d="M377 0v49q82 79 103 106q39 51 39 100q0 61 -43 61q-42 0 -68 -34l-22 40q36 49 95 49q40 0 67 -29.5t27 -80.5q0 -34 -11.5 -64t-35 -58t-40.5 -44t-48 -42h138v-53h-201zM521 613l-442 -556l-39 31l444 558zM96 411v314h-63v50l120 5v-369h-57z" />
    <glyph glyph-name="threequarters" unicode="&#xbe;" horiz-adv-x="627" 
d="M112 410q-42 0 -82 16l10 49q41 -13 67 -13q59 0 59 57q0 36 -18 50t-60 18v39q34 4 49.5 19t15.5 45q0 47 -42 47q-26 0 -54 -17l-12 41q36 26 74 26q39 0 64 -24t25 -65q0 -61 -47 -86q29 -8 45.5 -33.5t16.5 -58.5q0 -56 -32 -83t-79 -27zM535 613l-442 -556l-39 31
l444 558zM495 0v88h-124v54l101 224h78v-229h47v-49h-47v-88h-55zM414 137h81v176z" />
    <glyph glyph-name="questiondown" unicode="&#xbf;" horiz-adv-x="284" 
d="M223 454h-84v91h84v-91zM246 -93l-12 -72q-84 9 -138 58.5t-54 145.5q0 41 17.5 80.5t39 65.5t39 58.5t17.5 62.5q0 19 -6 61l67 16q11 -51 11 -78q0 -43 -17 -83t-37 -65t-37 -55t-17 -55q0 -58 36 -94.5t91 -45.5z" />
    <glyph glyph-name="Agrave" unicode="&#xc0;" horiz-adv-x="486" 
d="M486 0h-84l-67 264h-181l-75 -264h-79l203 707h98zM319 333l-56 232l-12 68h-4l-12 -68l-63 -232h147zM308 744l-175 64l25 69l171 -84z" />
    <glyph glyph-name="Aacute" unicode="&#xc1;" horiz-adv-x="486" 
d="M486 0h-84l-67 264h-181l-75 -264h-79l203 707h98zM319 333l-56 232l-12 68h-4l-12 -68l-63 -232h147zM367 808l-175 -64l-21 49l170 84z" />
    <glyph glyph-name="Acircumflex" unicode="&#xc2;" horiz-adv-x="486" 
d="M486 0h-84l-67 264h-181l-75 -264h-79l203 707h98zM319 333l-56 232l-12 68h-4l-12 -68l-63 -232h147zM107 780l145 89l143 -89l-27 -46l-116 64l-116 -63z" />
    <glyph glyph-name="Atilde" unicode="&#xc3;" horiz-adv-x="486" 
d="M486 0h-84l-67 264h-181l-75 -264h-79l203 707h98zM319 333l-56 232l-12 68h-4l-12 -68l-63 -232h147zM391 807q-31 -45 -80 -45q-21 0 -57.5 11t-55.5 11q-26 0 -55 -20l-30 39q42 42 93 42q22 0 55 -11t46 -11q7 0 13 1.5t10.5 3t9 4.5t7 4.5t7 5.5t5.5 5z" />
    <glyph glyph-name="Adieresis" unicode="&#xc4;" horiz-adv-x="486" 
d="M486 0h-84l-67 264h-181l-75 -264h-79l203 707h98zM319 333l-56 232l-12 68h-4l-12 -68l-63 -232h147zM379 799l-54 -55l-54 55l54 53zM226 799l-54 -55l-53 55l53 53z" />
    <glyph glyph-name="Aring" unicode="&#xc5;" horiz-adv-x="486" 
d="M486 0h-84l-67 264h-181l-75 -264h-79l195 680q-60 24 -60 94q0 52 33.5 81t81.5 29q46 0 81.5 -26.5t35.5 -81.5q0 -69 -58 -95zM314 774q0 27 -19 45t-45 18q-28 0 -45 -16t-17 -44t17.5 -46t45.5 -18q29 0 46 16.5t17 44.5zM319 333l-56 232l-12 68h-4l-12 -68
l-63 -232h147z" />
    <glyph glyph-name="AE" unicode="&#xc6;" horiz-adv-x="675" 
d="M647 0h-317v264h-163l-88 -264h-79l237 707h394v-69h-222v-249h206v-68h-206v-250h238v-71zM330 333v307h-43l-99 -307h142z" />
    <glyph glyph-name="Ccedilla" unicode="&#xc7;" horiz-adv-x="467" 
d="M460 23q-62 -33 -157 -33q-127 0 -198 99.5t-71 259.5q0 164 72.5 264t195.5 100q95 0 155 -35l-17 -70q-76 33 -139 33q-81 0 -134 -71t-53 -211q0 -145 56.5 -218.5t145.5 -73.5q66 0 129 24zM337 -127q0 -69 -107 -123l-31 57q66 37 66 71q0 25 -23 71h72
q23 -41 23 -76z" />
    <glyph glyph-name="Egrave" unicode="&#xc8;" horiz-adv-x="419" 
d="M390 0h-317v707h301v-69h-222v-249h206v-68h-206v-250h238v-71zM300 744l-175 64l25 69l171 -84z" />
    <glyph glyph-name="Eacute" unicode="&#xc9;" horiz-adv-x="419" 
d="M333 808l-175 -64l-21 49l170 84zM390 0h-317v707h301v-69h-222v-249h206v-68h-206v-250h238v-71z" />
    <glyph glyph-name="Ecircumflex" unicode="&#xca;" horiz-adv-x="419" 
d="M79 780l145 89l143 -89l-27 -46l-116 64l-116 -63zM390 0h-317v707h301v-69h-222v-249h206v-68h-206v-250h238v-71z" />
    <glyph glyph-name="Edieresis" unicode="&#xcb;" horiz-adv-x="419" 
d="M355 799l-54 -55l-54 55l54 53zM202 799l-54 -55l-53 55l53 53zM390 0h-317v707h301v-69h-222v-249h206v-68h-206v-250h238v-71z" />
    <glyph glyph-name="Igrave" unicode="&#xcc;" horiz-adv-x="225" 
d="M152 0h-79v707h79v-707zM157 744l-175 64l25 69l171 -84z" />
    <glyph glyph-name="Iacute" unicode="&#xcd;" horiz-adv-x="225" 
d="M152 0h-79v707h79v-707zM237 808l-175 -64l-21 49l170 84z" />
    <glyph glyph-name="Icircumflex" unicode="&#xce;" horiz-adv-x="225" 
d="M152 0h-79v707h79v-707zM-33 780l145 89l143 -89l-27 -46l-116 64l-116 -63z" />
    <glyph glyph-name="Idieresis" unicode="&#xcf;" horiz-adv-x="225" 
d="M152 0h-79v707h79v-707zM243 799l-54 -55l-54 55l54 53zM90 799l-54 -55l-53 55l53 53z" />
    <glyph glyph-name="Eth" unicode="&#xd0;" horiz-adv-x="539" 
d="M506 356q0 -179 -75 -267.5t-210 -88.5h-148v321h-54v61h54v325h144q130 0 209.5 -92t79.5 -259zM428 345q0 144 -56.5 217.5t-155.5 73.5h-65v-254h88v-61h-88v-250h78q94 0 146.5 70t52.5 204z" />
    <glyph glyph-name="Ntilde" unicode="&#xd1;" horiz-adv-x="564" 
d="M490 0h-92l-250 563h-4l8 -113v-450h-79v707h91l251 -572h4l-7 118v454h78v-707zM422 807q-32 -45 -80 -45q-21 0 -57.5 11t-55.5 11q-26 0 -55 -20l-30 39q42 42 93 42q23 0 55 -11t46 -11q7 0 13 1.5t10.5 3t9 4.5t7 4.5t7 5.5t5.5 5z" />
    <glyph glyph-name="Ograve" unicode="&#xd2;" horiz-adv-x="590" 
d="M556 353q0 -165 -71.5 -265t-196.5 -100q-122 0 -188.5 99.5t-66.5 267.5q0 166 73.5 264t195.5 98q123 0 188.5 -101.5t65.5 -262.5zM475 354q0 132 -48.5 213t-133.5 81q-86 0 -132.5 -80.5t-46.5 -211.5q0 -130 46.5 -214t131.5 -84q90 0 136.5 81t46.5 215zM361 744
l-175 64l25 69l171 -84z" />
    <glyph glyph-name="Oacute" unicode="&#xd3;" horiz-adv-x="590" 
d="M420 808l-175 -64l-21 49l170 84zM556 353q0 -165 -71.5 -265t-196.5 -100q-122 0 -188.5 99.5t-66.5 267.5q0 166 73.5 264t195.5 98q123 0 188.5 -101.5t65.5 -262.5zM475 354q0 132 -48.5 213t-133.5 81q-86 0 -132.5 -80.5t-46.5 -211.5q0 -130 46.5 -214t131.5 -84
q90 0 136.5 81t46.5 215z" />
    <glyph glyph-name="Ocircumflex" unicode="&#xd4;" horiz-adv-x="590" 
d="M148 780l145 89l143 -89l-27 -46l-116 64l-116 -63zM556 353q0 -165 -71.5 -265t-196.5 -100q-122 0 -188.5 99.5t-66.5 267.5q0 166 73.5 264t195.5 98q123 0 188.5 -101.5t65.5 -262.5zM475 354q0 132 -48.5 213t-133.5 81q-86 0 -132.5 -80.5t-46.5 -211.5
q0 -130 46.5 -214t131.5 -84q90 0 136.5 81t46.5 215z" />
    <glyph glyph-name="Otilde" unicode="&#xd5;" horiz-adv-x="590" 
d="M556 353q0 -165 -71.5 -265t-196.5 -100q-122 0 -188.5 99.5t-66.5 267.5q0 166 73.5 264t195.5 98q123 0 188.5 -101.5t65.5 -262.5zM475 354q0 132 -48.5 213t-133.5 81q-86 0 -132.5 -80.5t-46.5 -211.5q0 -130 46.5 -214t131.5 -84q90 0 136.5 81t46.5 215zM434 807
q-32 -45 -80 -45q-21 0 -57.5 11t-55.5 11q-26 0 -55 -20l-30 39q42 42 93 42q23 0 55 -11t46 -11q7 0 13 1.5t10.5 3t9 4.5t7 4.5t7 5.5t5.5 5z" />
    <glyph glyph-name="Odieresis" unicode="&#xd6;" horiz-adv-x="590" 
d="M425 799l-54 -55l-54 55l54 53zM272 799l-54 -55l-53 55l53 53zM556 353q0 -165 -71.5 -265t-196.5 -100q-122 0 -188.5 99.5t-66.5 267.5q0 166 73.5 264t195.5 98q123 0 188.5 -101.5t65.5 -262.5zM475 354q0 132 -48.5 213t-133.5 81q-86 0 -132.5 -80.5t-46.5 -211.5
q0 -130 46.5 -214t131.5 -84q90 0 136.5 81t46.5 215z" />
    <glyph glyph-name="multiply" unicode="&#xd7;" horiz-adv-x="437" 
d="M376 180l-50 -49l-106 107l-109 -109l-51 49l109 109l-106 106l50 49l106 -105l105 105l51 -50l-106 -105z" />
    <glyph glyph-name="Oslash" unicode="&#xd8;" horiz-adv-x="590" 
d="M566 681l-63 -86q53 -94 53 -242q0 -164 -71.5 -264.5t-196.5 -100.5q-99 0 -165 74l-52 -74l-49 37l63 90q-52 99 -52 240q0 166 73.5 264t195.5 98q100 0 164 -70l51 71zM417 581q-49 67 -122 67q-87 0 -135.5 -81t-48.5 -211q0 -97 28 -168zM477 354q0 97 -29 166
l-278 -395q46 -67 120 -67q91 0 139 81t48 215z" />
    <glyph glyph-name="Ugrave" unicode="&#xd9;" horiz-adv-x="554" 
d="M488 270q0 -81 -18.5 -139t-50.5 -88t-66.5 -43t-73.5 -13q-42 0 -77.5 12t-67.5 39t-50 79.5t-18 126.5v463h80v-464q0 -184 133 -184q59 0 96 47.5t37 159.5v441h76v-437zM349 744l-175 64l25 69l171 -84z" />
    <glyph glyph-name="Uacute" unicode="&#xda;" horiz-adv-x="554" 
d="M404 808l-175 -64l-21 49l170 84zM488 270q0 -81 -18.5 -139t-50.5 -88t-66.5 -43t-73.5 -13q-42 0 -77.5 12t-67.5 39t-50 79.5t-18 126.5v463h80v-464q0 -184 133 -184q59 0 96 47.5t37 159.5v441h76v-437z" />
    <glyph glyph-name="Ucircumflex" unicode="&#xdb;" horiz-adv-x="554" 
d="M133 781l145 89l143 -89l-27 -46l-116 64l-116 -63zM488 270q0 -81 -18.5 -139t-50.5 -88t-66.5 -43t-73.5 -13q-42 0 -77.5 12t-67.5 39t-50 79.5t-18 126.5v463h80v-464q0 -184 133 -184q59 0 96 47.5t37 159.5v441h76v-437z" />
    <glyph glyph-name="Udieresis" unicode="&#xdc;" horiz-adv-x="554" 
d="M406 799l-54 -55l-54 55l54 53zM253 799l-54 -55l-53 55l53 53zM488 270q0 -81 -18.5 -139t-50.5 -88t-66.5 -43t-73.5 -13q-42 0 -77.5 12t-67.5 39t-50 79.5t-18 126.5v463h80v-464q0 -184 133 -184q59 0 96 47.5t37 159.5v441h76v-437z" />
    <glyph glyph-name="Yacute" unicode="&#xdd;" horiz-adv-x="411" 
d="M419 707l-179 -439v-268h-78v269l-170 438h88l93 -263l28 -92h4l28 91l101 264h85zM331 808l-175 -64l-21 49l170 84z" />
    <glyph glyph-name="Thorn" unicode="&#xde;" horiz-adv-x="427" 
d="M419 354q0 -99 -56.5 -163.5t-161.5 -64.5h-17v73h21q58 0 95 38t37 113q0 76 -31 117t-84 41h-70v-508h-79v707h79v-128h77q88 0 139 -59.5t51 -165.5z" />
    <glyph glyph-name="germandbls" unicode="&#xdf;" horiz-adv-x="449" 
d="M421 137q0 -76 -40 -112t-94 -36q-64 0 -114 27l16 64q50 -21 90 -21q65 0 65 73q0 26 -15.5 49t-38 41.5t-45 40.5t-38 57t-15.5 79q0 46 38.5 113.5t38.5 109.5q0 81 -59 81q-42 0 -57 -32.5t-15 -99.5v-791h-76v786q0 207 148 207q23 0 44.5 -6.5t43.5 -22.5t35 -49
t13 -79q0 -50 -38.5 -117t-38.5 -100q0 -32 15.5 -58.5t38 -46.5t45 -41t38 -50.5t15.5 -65.5z" />
    <glyph glyph-name="agrave" unicode="&#xe0;" horiz-adv-x="411" 
d="M390 56l-5 -62q-29 0 -51 8t-34 19.5t-18 20.5t-8 16q-49 -66 -129 -66q-62 0 -91 46t-29 113q0 76 49.5 116t125.5 43l65 3v81q0 53 -18.5 72.5t-71.5 19.5q-35 0 -106 -28l-12 65q55 36 134 36q149 0 149 -150v-302q0 -44 50 -51zM265 114v140q-4 0 -22 -0.5t-23.5 -1
l-22 -2t-23 -3.5t-20 -5.5t-19 -8.5t-14.5 -12t-13 -16t-7 -21t-3 -27q0 -97 63 -97q50 0 104 54zM276 660l-36 -47l-159 127l45 56z" />
    <glyph glyph-name="aacute" unicode="&#xe1;" horiz-adv-x="411" 
d="M390 56l-5 -62q-29 0 -51 8t-34 19.5t-18 20.5t-8 16q-49 -66 -129 -66q-62 0 -91 46t-29 113q0 76 49.5 116t125.5 43l65 3v81q0 53 -18.5 72.5t-71.5 19.5q-35 0 -106 -28l-12 65q55 36 134 36q149 0 149 -150v-302q0 -44 50 -51zM265 114v140q-4 0 -22 -0.5t-23.5 -1
l-22 -2t-23 -3.5t-20 -5.5t-19 -8.5t-14.5 -12t-13 -16t-7 -21t-3 -27q0 -97 63 -97q50 0 104 54zM314 743l-156 -127l-38 45l148 138z" />
    <glyph glyph-name="acircumflex" unicode="&#xe2;" horiz-adv-x="411" 
d="M390 56l-5 -62q-29 0 -51 8t-34 19.5t-18 20.5t-8 16q-49 -66 -129 -66q-62 0 -91 46t-29 113q0 76 49.5 116t125.5 43l65 3v81q0 53 -18.5 72.5t-71.5 19.5q-35 0 -106 -28l-12 65q55 36 134 36q149 0 149 -150v-302q0 -44 50 -51zM265 114v140q-4 0 -22 -0.5t-23.5 -1
l-22 -2t-23 -3.5t-20 -5.5t-19 -8.5t-14.5 -12t-13 -16t-7 -21t-3 -27q0 -97 63 -97q50 0 104 54zM338 676l-34 -46l-108 81l-110 -80l-35 45l144 113z" />
    <glyph glyph-name="atilde" unicode="&#xe3;" horiz-adv-x="411" 
d="M390 56l-5 -62q-29 0 -51 8t-34 19.5t-18 20.5t-8 16q-49 -66 -129 -66q-62 0 -91 46t-29 113q0 76 49.5 116t125.5 43l65 3v81q0 53 -18.5 72.5t-71.5 19.5q-35 0 -106 -28l-12 65q55 36 134 36q149 0 149 -150v-302q0 -44 50 -51zM265 114v140q-4 0 -22 -0.5t-23.5 -1
l-22 -2t-23 -3.5t-20 -5.5t-19 -8.5t-14.5 -12t-13 -16t-7 -21t-3 -27q0 -97 63 -97q50 0 104 54zM345 711q-38 -49 -86 -49q-21 0 -56 13t-52 13q-29 0 -57 -21l-30 41q42 44 95 44q23 0 54 -12.5t43 -12.5q11 0 20.5 3t14 5.5t12.5 8t9 6.5z" />
    <glyph glyph-name="adieresis" unicode="&#xe4;" horiz-adv-x="411" 
d="M390 56l-5 -62q-29 0 -51 8t-34 19.5t-18 20.5t-8 16q-49 -66 -129 -66q-62 0 -91 46t-29 113q0 76 49.5 116t125.5 43l65 3v81q0 53 -18.5 72.5t-71.5 19.5q-35 0 -106 -28l-12 65q55 36 134 36q149 0 149 -150v-302q0 -44 50 -51zM265 114v140q-4 0 -22 -0.5t-23.5 -1
l-22 -2t-23 -3.5t-20 -5.5t-19 -8.5t-14.5 -12t-13 -16t-7 -21t-3 -27q0 -97 63 -97q50 0 104 54zM328 710l-54 -55l-53 55l53 53zM175 710l-54 -55l-53 55l53 53z" />
    <glyph glyph-name="aring" unicode="&#xe5;" horiz-adv-x="411" 
d="M390 56l-5 -62q-29 0 -51 8t-34 19.5t-18 20.5t-8 16q-49 -66 -129 -66q-62 0 -91 46t-29 113q0 76 49.5 116t125.5 43l65 3v81q0 53 -18.5 72.5t-71.5 19.5q-35 0 -106 -28l-12 65q55 36 134 36q149 0 149 -150v-302q0 -44 50 -51zM265 114v140q-4 0 -22 -0.5t-23.5 -1
l-22 -2t-23 -3.5t-20 -5.5t-19 -8.5t-14.5 -12t-13 -16t-7 -21t-3 -27q0 -97 63 -97q50 0 104 54zM298 701q0 -39 -26.5 -62.5t-65.5 -23.5q-40 0 -67.5 21.5t-27.5 62.5t27.5 65t65.5 24q36 0 65 -22t29 -65zM252 700q0 19 -14.5 32.5t-33.5 13.5q-20 0 -33 -12.5
t-13 -31.5q0 -20 13.5 -33.5t33.5 -13.5t33.5 13t13.5 32z" />
    <glyph glyph-name="ae" unicode="&#xe6;" horiz-adv-x="621" 
d="M589 269l-256 -13q0 -109 33.5 -150.5t100.5 -41.5q42 0 103 21l13 -67q-47 -27 -133 -27q-105 0 -153 87q-24 -30 -64.5 -58t-89.5 -28q-63 0 -93 46t-30 113q0 76 50 117t125 43l65 2v81q0 53 -18.5 72.5t-71.5 19.5q-36 0 -105 -28l-13 65q25 16 64 26t70 10
q101 0 129 -77q44 77 124 77q78 0 114 -64t36 -197v-29zM510 328q0 166 -80 166q-40 0 -65 -47.5t-31 -131.5zM276 130q-8 29 -10 46q-6 38 -6 78q-4 0 -27 -1t-30 -2t-27 -3.5t-27.5 -6.5t-21 -11t-19 -16.5t-10.5 -24t-5 -32.5q0 -97 63 -97q44 0 120 70z" />
    <glyph glyph-name="ccedilla" unicode="&#xe7;" horiz-adv-x="360" 
d="M340 12q-49 -21 -100 -21q-108 0 -157 67.5t-49 214.5q0 131 50.5 208t139.5 77q68 0 118 -35l-20 -66q-55 31 -99 31q-50 0 -81.5 -57t-31.5 -155q0 -110 30.5 -161.5t105.5 -51.5q18 0 86 15zM263 -127q0 -69 -107 -123l-31 57q66 37 66 71q0 25 -23 71h72
q23 -41 23 -76z" />
    <glyph glyph-name="egrave" unicode="&#xe8;" horiz-adv-x="393" 
d="M366 256h-257q0 -109 34 -150.5t101 -41.5q43 0 102 21l14 -67q-47 -27 -133 -27q-95 0 -144 62.5t-49 209.5q0 153 50 224.5t132 71.5q150 0 150 -272v-31zM287 320q0 80 -20 127t-60 47q-84 0 -97 -174h177zM302 660l-36 -47l-159 127l45 56z" />
    <glyph glyph-name="eacute" unicode="&#xe9;" horiz-adv-x="393" 
d="M325 743l-156 -127l-38 45l148 138zM366 256h-257q0 -109 34 -150.5t101 -41.5q43 0 102 21l14 -67q-47 -27 -133 -27q-95 0 -144 62.5t-49 209.5q0 153 50 224.5t132 71.5q150 0 150 -272v-31zM287 320q0 80 -20 127t-60 47q-84 0 -97 -174h177z" />
    <glyph glyph-name="ecircumflex" unicode="&#xea;" horiz-adv-x="393" 
d="M349 676l-34 -46l-108 81l-110 -80l-35 45l144 113zM366 256h-257q0 -109 34 -150.5t101 -41.5q43 0 102 21l14 -67q-47 -27 -133 -27q-95 0 -144 62.5t-49 209.5q0 153 50 224.5t132 71.5q150 0 150 -272v-31zM287 320q0 80 -20 127t-60 47q-84 0 -97 -174h177z" />
    <glyph glyph-name="edieresis" unicode="&#xeb;" horiz-adv-x="393" 
d="M335 711l-54 -55l-53 55l53 53zM182 711l-54 -55l-53 55l53 53zM366 256h-257q0 -109 34 -150.5t101 -41.5q43 0 102 21l14 -67q-47 -27 -133 -27q-95 0 -144 62.5t-49 209.5q0 153 50 224.5t132 71.5q150 0 150 -272v-31zM287 320q0 80 -20 127t-60 47q-84 0 -97 -174
h177z" />
    <glyph glyph-name="igrave" unicode="&#xec;" horiz-adv-x="195" 
d="M136 0h-76v546h76v-546zM169 660l-36 -47l-159 127l45 56z" />
    <glyph glyph-name="iacute" unicode="&#xed;" horiz-adv-x="195" 
d="M221 743l-156 -127l-38 45l148 138zM136 0h-76v546h76v-546z" />
    <glyph glyph-name="icircumflex" unicode="&#xee;" horiz-adv-x="195" 
d="M242 676l-34 -46l-108 81l-110 -80l-35 45l144 113zM136 0h-76v546h76v-546z" />
    <glyph glyph-name="idieresis" unicode="&#xef;" horiz-adv-x="195" 
d="M230 711l-54 -55l-53 55l53 53zM77 711l-54 -55l-53 55l53 53zM136 0h-76v546h76v-546z" />
    <glyph glyph-name="eth" unicode="&#xf0;" horiz-adv-x="445" 
d="M413 284q0 -140 -50 -216.5t-142 -76.5q-90 0 -139.5 73t-49.5 205q0 136 52 214.5t142 78.5q11 0 20.5 -2t16 -4.5t12.5 -6.5t8.5 -6.5l6.5 -6.5l4 -5q-11 41 -37 93l-68 -22l-18 51l59 19l-36 59l55 40q24 -26 53 -75l63 21l21 -49l-58 -19q85 -168 85 -365zM335 270
q0 98 -26.5 160.5t-85.5 62.5q-31 0 -54 -19t-35 -51.5t-18 -70t-6 -81.5q0 -213 115 -213q110 0 110 212z" />
    <glyph glyph-name="ntilde" unicode="&#xf1;" horiz-adv-x="447" 
d="M391 0h-76v345q0 75 -13 106.5t-57 31.5q-38 0 -109 -60v-423h-76v546h76v-60q4 7 19.5 22t46.5 32.5t61 17.5q35 0 60.5 -14t38 -33t19.5 -50t8.5 -53.5t1.5 -55.5v-352zM366 711q-38 -49 -86 -49q-21 0 -56 13t-52 13q-29 0 -57 -21l-30 41q42 44 95 44q23 0 54 -12.5
t43 -12.5q11 0 20.5 3t14 5.5t12.5 8t9 6.5z" />
    <glyph glyph-name="ograve" unicode="&#xf2;" horiz-adv-x="434" 
d="M402 273q0 -137 -51 -209.5t-136 -72.5q-87 0 -134.5 72.5t-47.5 203.5q0 137 50.5 214t136.5 77q92 0 137 -74.5t45 -210.5zM326 273q0 41 -5 76.5t-17 68.5t-34 52.5t-53 19.5q-38 0 -63.5 -34.5t-35 -81t-9.5 -102.5q0 -92 26.5 -152t83.5 -60t82 60.5t25 152.5z
M316 660l-36 -47l-159 127l45 56z" />
    <glyph glyph-name="oacute" unicode="&#xf3;" horiz-adv-x="434" 
d="M339 743l-156 -127l-38 45l148 138zM402 273q0 -137 -51 -209.5t-136 -72.5q-87 0 -134.5 72.5t-47.5 203.5q0 137 50.5 214t136.5 77q92 0 137 -74.5t45 -210.5zM326 273q0 41 -5 76.5t-17 68.5t-34 52.5t-53 19.5q-38 0 -63.5 -34.5t-35 -81t-9.5 -102.5
q0 -92 26.5 -152t83.5 -60t82 60.5t25 152.5z" />
    <glyph glyph-name="ocircumflex" unicode="&#xf4;" horiz-adv-x="434" 
d="M361 676l-34 -46l-108 81l-110 -80l-35 45l144 113zM402 273q0 -137 -51 -209.5t-136 -72.5q-87 0 -134.5 72.5t-47.5 203.5q0 137 50.5 214t136.5 77q92 0 137 -74.5t45 -210.5zM326 273q0 41 -5 76.5t-17 68.5t-34 52.5t-53 19.5q-38 0 -63.5 -34.5t-35 -81
t-9.5 -102.5q0 -92 26.5 -152t83.5 -60t82 60.5t25 152.5z" />
    <glyph glyph-name="otilde" unicode="&#xf5;" horiz-adv-x="434" 
d="M402 273q0 -137 -51 -209.5t-136 -72.5q-87 0 -134.5 72.5t-47.5 203.5q0 137 50.5 214t136.5 77q92 0 137 -74.5t45 -210.5zM326 273q0 41 -5 76.5t-17 68.5t-34 52.5t-53 19.5q-38 0 -63.5 -34.5t-35 -81t-9.5 -102.5q0 -92 26.5 -152t83.5 -60t82 60.5t25 152.5z
M361 711q-38 -49 -86 -49q-21 0 -56 13t-52 13q-29 0 -57 -21l-30 41q42 44 95 44q23 0 54 -12.5t43 -12.5q11 0 20.5 3t14 5.5t12.5 8t9 6.5z" />
    <glyph glyph-name="odieresis" unicode="&#xf6;" horiz-adv-x="434" 
d="M348 715l-54 -55l-53 55l53 53zM195 715l-54 -55l-53 55l53 53zM402 273q0 -137 -51 -209.5t-136 -72.5q-87 0 -134.5 72.5t-47.5 203.5q0 137 50.5 214t136.5 77q92 0 137 -74.5t45 -210.5zM326 273q0 41 -5 76.5t-17 68.5t-34 52.5t-53 19.5q-38 0 -63.5 -34.5t-35 -81
t-9.5 -102.5q0 -92 26.5 -152t83.5 -60t82 60.5t25 152.5z" />
    <glyph glyph-name="divide" unicode="&#xf7;" horiz-adv-x="339" 
d="M211 395h-83v87h83v-87zM316 252h-293v71h293v-71zM211 95h-83v86h83v-86z" />
    <glyph glyph-name="oslash" unicode="&#xf8;" horiz-adv-x="434" 
d="M422 547l-54 -84q34 -69 34 -190q0 -137 -51 -209.5t-136 -72.5q-73 0 -117 50l-42 -66l-43 29l54 83q-34 71 -34 180q0 137 50.5 214t136.5 77q75 0 117 -49l42 66zM292 442q-28 48 -75 48q-38 0 -63.5 -34.5t-35 -81t-9.5 -102.5q0 -64 12 -105zM326 273q0 59 -12 109
l-172 -275q29 -47 77 -47q57 0 82 60.5t25 152.5z" />
    <glyph glyph-name="ugrave" unicode="&#xf9;" horiz-adv-x="447" 
d="M391 0h-77v63q-4 -7 -19 -22.5t-46 -33.5t-61 -18q-35 0 -60.5 14t-38 32.5t-19.5 50t-8.5 53.5t-1.5 55v352h75v-347q0 -74 13.5 -106t57.5 -32q26 0 57.5 21.5t50.5 41.5v422h77v-546zM305 660l-36 -47l-159 127l45 56z" />
    <glyph glyph-name="uacute" unicode="&#xfa;" horiz-adv-x="447" 
d="M347 743l-156 -127l-38 45l148 138zM391 0h-77v63q-4 -7 -19 -22.5t-46 -33.5t-61 -18q-35 0 -60.5 14t-38 32.5t-19.5 50t-8.5 53.5t-1.5 55v352h75v-347q0 -74 13.5 -106t57.5 -32q26 0 57.5 21.5t50.5 41.5v422h77v-546z" />
    <glyph glyph-name="ucircumflex" unicode="&#xfb;" horiz-adv-x="447" 
d="M367 676l-34 -46l-108 81l-110 -80l-35 45l144 113zM391 0h-77v63q-4 -7 -19 -22.5t-46 -33.5t-61 -18q-35 0 -60.5 14t-38 32.5t-19.5 50t-8.5 53.5t-1.5 55v352h75v-347q0 -74 13.5 -106t57.5 -32q26 0 57.5 21.5t50.5 41.5v422h77v-546z" />
    <glyph glyph-name="udieresis" unicode="&#xfc;" horiz-adv-x="447" 
d="M354 711l-54 -55l-53 55l53 53zM201 711l-54 -55l-53 55l53 53zM391 0h-77v63q-4 -7 -19 -22.5t-46 -33.5t-61 -18q-35 0 -60.5 14t-38 32.5t-19.5 50t-8.5 53.5t-1.5 55v352h75v-347q0 -74 13.5 -106t57.5 -32q26 0 57.5 21.5t50.5 41.5v422h77v-546z" />
    <glyph glyph-name="yacute" unicode="&#xfd;" horiz-adv-x="373" 
d="M372 546l-195 -766h-76l53 220h-21l-130 546h81l85 -388l11 -87h6l12 86l95 389h79zM306 743l-156 -127l-38 45l148 138z" />
    <glyph glyph-name="thorn" unicode="&#xfe;" horiz-adv-x="433" 
d="M401 286q0 -157 -54.5 -225.5t-141.5 -68.5q-9 0 -19.5 0.5t-18.5 1.5t-15 2t-12 2h-4v-218h-76v974h76v-252q5 6 14 15t36.5 23.5t55.5 14.5q74 0 116.5 -72.5t42.5 -196.5zM324 267q0 215 -103 215q-35 0 -85 -43v-370q30 -7 70 -7q55 0 86.5 57t31.5 148z" />
    <glyph glyph-name="ydieresis" unicode="&#xff;" horiz-adv-x="373" 
d="M372 546l-195 -766h-76l53 220h-21l-130 546h81l85 -388l11 -87h6l12 86l95 389h79zM318 711l-54 -55l-53 55l53 53zM165 711l-54 -55l-53 55l53 53z" />
    <glyph glyph-name="Amacron" unicode="&#x100;" horiz-adv-x="486" 
d="M486 0h-84l-67 264h-181l-75 -264h-79l203 707h98zM319 333l-56 232l-12 68h-4l-12 -68l-63 -232h147zM366 766h-232v62h232v-62z" />
    <glyph glyph-name="amacron" unicode="&#x101;" horiz-adv-x="411" 
d="M390 56l-5 -62q-29 0 -51 8t-34 19.5t-18 20.5t-8 16q-49 -66 -129 -66q-62 0 -91 46t-29 113q0 76 49.5 116t125.5 43l65 3v81q0 53 -18.5 72.5t-71.5 19.5q-35 0 -106 -28l-12 65q55 36 134 36q149 0 149 -150v-302q0 -44 50 -51zM265 114v140q-4 0 -22 -0.5t-23.5 -1
l-22 -2t-23 -3.5t-20 -5.5t-19 -8.5t-14.5 -12t-13 -16t-7 -21t-3 -27q0 -97 63 -97q50 0 104 54zM318 668h-232v65h232v-65z" />
    <glyph glyph-name="Abreve" unicode="&#x102;" horiz-adv-x="486" 
d="M486 0h-84l-67 264h-181l-75 -264h-79l203 707h98zM319 333l-56 232l-12 68h-4l-12 -68l-63 -232h147zM381 821q-15 -25 -51 -49t-82 -24q-79 0 -130 72l40 40q44 -48 91 -48q51 0 92 45z" />
    <glyph glyph-name="abreve" unicode="&#x103;" horiz-adv-x="411" 
d="M390 56l-5 -62q-29 0 -51 8t-34 19.5t-18 20.5t-8 16q-49 -66 -129 -66q-62 0 -91 46t-29 113q0 76 49.5 116t125.5 43l65 3v81q0 53 -18.5 72.5t-71.5 19.5q-35 0 -106 -28l-12 65q55 36 134 36q149 0 149 -150v-302q0 -44 50 -51zM265 114v140q-4 0 -22 -0.5t-23.5 -1
l-22 -2t-23 -3.5t-20 -5.5t-19 -8.5t-14.5 -12t-13 -16t-7 -21t-3 -27q0 -97 63 -97q50 0 104 54zM346 722q-17 -26 -53 -50t-83 -24q-81 0 -133 73l40 42q45 -49 94 -49q53 0 95 46z" />
    <glyph glyph-name="Aogonek" unicode="&#x104;" horiz-adv-x="486" 
d="M486 0q-37 -20 -68 -46q-42 -40 -42 -68q0 -48 57 -48q20 0 41 8l15 -54q-28 -17 -77 -17q-110 0 -110 98q0 70 99 130l-66 261h-181l-75 -264h-79l203 707h98zM319 333l-56 232l-12 68h-4l-12 -68l-63 -232h147z" />
    <glyph glyph-name="aogonek" unicode="&#x105;" horiz-adv-x="411" 
d="M390 56l-5 -62q-105 -59 -105 -108q0 -48 56 -48q20 0 41 8l15 -54q-28 -17 -77 -17q-110 0 -110 98q0 74 106 135q-8 5 -14.5 11.5t-10.5 12.5t-6.5 11t-3.5 10l-2 5q-49 -66 -126 -66q-63 0 -93 46t-30 113q0 76 49.5 116t125.5 43l65 3v81q0 53 -18.5 72.5t-71.5 19.5
q-35 0 -106 -28l-12 65q55 36 134 36q149 0 149 -150v-302q0 -44 50 -51zM265 114v140q-4 0 -22 -0.5t-23.5 -1l-22 -2t-23 -3.5t-20 -5.5t-19 -8.5t-14.5 -12t-13 -16t-7 -21t-3 -27q0 -97 63 -97q50 0 104 54z" />
    <glyph glyph-name="Cacute" unicode="&#x106;" horiz-adv-x="467" 
d="M424 808l-175 -64l-21 49l170 84zM460 23q-62 -33 -157 -33q-127 0 -198 99.5t-71 259.5q0 164 72.5 264t195.5 100q95 0 155 -35l-17 -70q-76 33 -139 33q-81 0 -134 -71t-53 -211q0 -145 56.5 -218.5t145.5 -73.5q66 0 129 24z" />
    <glyph glyph-name="cacute" unicode="&#x107;" horiz-adv-x="360" 
d="M337 743l-156 -127l-38 45l148 138zM340 12q-49 -21 -100 -21q-108 0 -157 67.5t-49 214.5q0 131 50.5 208t139.5 77q68 0 118 -35l-20 -66q-55 31 -99 31q-50 0 -81.5 -57t-31.5 -155q0 -110 30.5 -161.5t105.5 -51.5q18 0 86 15z" />
    <glyph glyph-name="Ccircumflex" unicode="&#x108;" horiz-adv-x="467" 
d="M154 780l145 89l143 -89l-27 -46l-116 64l-116 -63zM460 23q-62 -33 -157 -33q-127 0 -198 99.5t-71 259.5q0 164 72.5 264t195.5 100q95 0 155 -35l-17 -70q-76 33 -139 33q-81 0 -134 -71t-53 -211q0 -145 56.5 -218.5t145.5 -73.5q66 0 129 24z" />
    <glyph glyph-name="ccircumflex" unicode="&#x109;" horiz-adv-x="360" 
d="M362 676l-34 -46l-108 81l-110 -80l-35 45l144 113zM340 12q-49 -21 -100 -21q-108 0 -157 67.5t-49 214.5q0 131 50.5 208t139.5 77q68 0 118 -35l-20 -66q-55 31 -99 31q-50 0 -81.5 -57t-31.5 -155q0 -110 30.5 -161.5t105.5 -51.5q18 0 86 15z" />
    <glyph glyph-name="Cdotaccent" unicode="&#x10a;" horiz-adv-x="467" 
d="M460 23q-62 -33 -157 -33q-127 0 -198 99.5t-71 259.5q0 164 72.5 264t195.5 100q95 0 155 -35l-17 -70q-76 33 -139 33q-81 0 -134 -71t-53 -211q0 -145 56.5 -218.5t145.5 -73.5q66 0 129 24zM351 802l-54 -55l-54 55l54 53z" />
    <glyph glyph-name="cdotaccent" unicode="&#x10b;" horiz-adv-x="360" 
d="M340 12q-49 -21 -100 -21q-108 0 -157 67.5t-49 214.5q0 131 50.5 208t139.5 77q68 0 118 -35l-20 -66q-55 31 -99 31q-50 0 -81.5 -57t-31.5 -155q0 -110 30.5 -161.5t105.5 -51.5q18 0 86 15zM276 715l-60 -60l-58 60l58 59z" />
    <glyph glyph-name="Ccaron" unicode="&#x10c;" horiz-adv-x="467" 
d="M443 823l-145 -90l-143 89l27 47l116 -64l117 63zM460 23q-62 -33 -157 -33q-127 0 -198 99.5t-71 259.5q0 164 72.5 264t195.5 100q95 0 155 -35l-17 -70q-76 33 -139 33q-81 0 -134 -71t-53 -211q0 -145 56.5 -218.5t145.5 -73.5q66 0 129 24z" />
    <glyph glyph-name="ccaron" unicode="&#x10d;" horiz-adv-x="360" 
d="M369 736l-148 -115l-139 112l37 48l105 -81l109 80zM340 12q-49 -21 -100 -21q-108 0 -157 67.5t-49 214.5q0 131 50.5 208t139.5 77q68 0 118 -35l-20 -66q-55 31 -99 31q-50 0 -81.5 -57t-31.5 -155q0 -110 30.5 -161.5t105.5 -51.5q18 0 86 15z" />
    <glyph glyph-name="Dcaron" unicode="&#x10e;" horiz-adv-x="539" 
d="M366 823l-145 -90l-143 89l27 47l116 -64l117 63zM506 356q0 -179 -75 -267.5t-210 -88.5h-148v707h144q130 0 209.5 -92t79.5 -259zM428 345q0 144 -56.5 217.5t-155.5 73.5h-65v-565h78q94 0 146.5 70t52.5 204z" />
    <glyph glyph-name="dcaron" unicode="&#x10f;" horiz-adv-x="468" 
d="M490 755l-23 -185h-58l12 185h69zM370 0h-76v52q-13 -21 -42.5 -40.5t-59.5 -19.5q-65 0 -111.5 63.5t-46.5 215.5q0 137 52 212t132 75q14 0 27 -1.5t21 -3t14.5 -3.5t9.5 -3.5t4 -1.5v209h76v-754zM294 116v359q-28 14 -66 14q-60 0 -89.5 -60.5t-29.5 -158.5
q0 -102 27.5 -154t72.5 -52q36 0 85 52z" />
    <glyph glyph-name="Dcroat" unicode="&#x110;" horiz-adv-x="539" 
d="M506 356q0 -179 -75 -267.5t-210 -88.5h-148v321h-54v61h54v325h144q130 0 209.5 -92t79.5 -259zM428 345q0 144 -56.5 217.5t-155.5 73.5h-65v-254h88v-61h-88v-250h78q94 0 146.5 70t52.5 204z" />
    <glyph glyph-name="dcroat" unicode="&#x111;" horiz-adv-x="429" 
d="M370 0h-76v52q-13 -21 -42.5 -40.5t-59.5 -19.5q-65 0 -111.5 63.5t-46.5 215.5q0 137 52 213.5t132 76.5q34 0 76 -14v70h-135v59h135v78h76v-78h54v-59h-54v-617zM294 116v361q-30 15 -66 15q-60 0 -89.5 -62t-29.5 -160q0 -102 27.5 -154t72.5 -52q36 0 85 52z" />
    <glyph glyph-name="Emacron" unicode="&#x112;" horiz-adv-x="419" 
d="M390 0h-317v707h301v-69h-222v-249h206v-68h-206v-250h238v-71zM338 766h-232v62h232v-62z" />
    <glyph glyph-name="emacron" unicode="&#x113;" horiz-adv-x="393" 
d="M366 256h-257q0 -109 34 -150.5t101 -41.5q43 0 102 21l14 -67q-47 -27 -133 -27q-95 0 -144 62.5t-49 209.5q0 153 50 224.5t132 71.5q150 0 150 -272v-31zM287 320q0 80 -20 127t-60 47q-84 0 -97 -174h177zM321 668h-232v65h232v-65z" />
    <glyph glyph-name="Ebreve" unicode="&#x114;" horiz-adv-x="419" 
d="M390 0h-317v707h301v-69h-222v-249h206v-68h-206v-250h238v-71zM359 821q-15 -25 -51 -49t-82 -24q-79 0 -130 72l40 40q44 -48 91 -48q51 0 92 45z" />
    <glyph glyph-name="ebreve" unicode="&#x115;" horiz-adv-x="393" 
d="M366 256h-257q0 -109 34 -150.5t101 -41.5q43 0 102 21l14 -67q-47 -27 -133 -27q-95 0 -144 62.5t-49 209.5q0 153 50 224.5t132 71.5q150 0 150 -272v-31zM287 320q0 80 -20 127t-60 47q-84 0 -97 -174h177zM342 722q-17 -26 -53 -50t-83 -24q-81 0 -133 73l40 42
q45 -49 94 -49q53 0 95 46z" />
    <glyph glyph-name="Edotaccent" unicode="&#x116;" horiz-adv-x="419" 
d="M390 0h-317v707h301v-69h-222v-249h206v-68h-206v-250h238v-71zM281 802l-54 -55l-54 55l54 53z" />
    <glyph glyph-name="edotaccent" unicode="&#x117;" horiz-adv-x="393" 
d="M366 256h-257q0 -109 34 -150.5t101 -41.5q43 0 102 21l14 -67q-47 -27 -133 -27q-95 0 -144 62.5t-49 209.5q0 153 50 224.5t132 71.5q150 0 150 -272v-31zM287 320q0 80 -20 127t-60 47q-84 0 -97 -174h177zM268 715l-60 -60l-58 60l58 59z" />
    <glyph glyph-name="Eogonek" unicode="&#x118;" horiz-adv-x="419" 
d="M390 0q-114 -63 -114 -113q0 -48 56 -48q22 0 41 8l15 -54q-26 -17 -76 -17q-111 0 -111 98q0 67 91 126h-219v707h301v-69h-222v-249h206v-68h-206v-250h238v-71z" />
    <glyph glyph-name="eogonek" unicode="&#x119;" horiz-adv-x="393" 
d="M366 256h-257q0 -109 34 -150.5t101 -41.5q43 0 102 21l14 -67q-22 -11 -47.5 -27.5t-55 -47.5t-29.5 -56q0 -48 56 -48q20 0 41 8l15 -54q-28 -17 -77 -17q-110 0 -110 98q0 62 74 117h-5q-93 2 -140.5 64.5t-47.5 207.5q0 153 49.5 224.5t132.5 71.5q150 0 150 -272
v-31zM287 320q0 80 -20 127t-60 47q-84 0 -97 -174h177z" />
    <glyph glyph-name="Ecaron" unicode="&#x11a;" horiz-adv-x="419" 
d="M373 823l-145 -90l-143 89l27 47l116 -64l117 63zM390 0h-317v707h301v-69h-222v-249h206v-68h-206v-250h238v-71z" />
    <glyph glyph-name="ecaron" unicode="&#x11b;" horiz-adv-x="393" 
d="M356 736l-148 -115l-139 112l37 48l105 -81l109 80zM366 256h-257q0 -109 34 -150.5t101 -41.5q43 0 102 21l14 -67q-47 -27 -133 -27q-95 0 -144 62.5t-49 209.5q0 153 50 224.5t132 71.5q150 0 150 -272v-31zM287 320q0 80 -20 127t-60 47q-84 0 -97 -174h177z" />
    <glyph glyph-name="Gcircumflex" unicode="&#x11c;" horiz-adv-x="508" 
d="M151 780l145 89l143 -89l-27 -46l-116 64l-116 -63zM465 22q-62 -32 -162 -32q-127 0 -198 99.5t-71 259.5q0 163 72.5 264t196.5 101q87 0 157 -37l-20 -69q-79 34 -139 34q-81 0 -134 -71.5t-53 -211.5q0 -145 56.5 -220t145.5 -75q41 0 72 8v232h77v-282z" />
    <glyph glyph-name="gcircumflex" unicode="&#x11d;" horiz-adv-x="430" 
d="M371 -30q0 -98 -46 -148t-124 -50t-137 22l13 74q66 -22 112 -22q52 0 78.5 26t26.5 105v61q-4 -5 -12 -12.5t-31.5 -20.5t-46.5 -13q-170 0 -170 277q0 137 52.5 213t136.5 76q63 0 148 -20v-568zM295 110v370q-42 7 -68 7q-61 0 -89.5 -60.5t-28.5 -160.5
q0 -204 111 -204q12 0 24.5 6t18 11t19.5 18zM376 676l-34 -46l-108 81l-110 -80l-35 45l144 113z" />
    <glyph glyph-name="Gbreve" unicode="&#x11e;" horiz-adv-x="508" 
d="M465 22q-62 -32 -162 -32q-127 0 -198 99.5t-71 259.5q0 163 72.5 264t196.5 101q87 0 157 -37l-20 -69q-79 34 -139 34q-81 0 -134 -71.5t-53 -211.5q0 -145 56.5 -220t145.5 -75q41 0 72 8v232h77v-282zM434 821q-15 -25 -51 -49t-82 -24q-79 0 -130 72l40 40
q44 -48 91 -48q51 0 92 45z" />
    <glyph glyph-name="gbreve" unicode="&#x11f;" horiz-adv-x="430" 
d="M371 -30q0 -98 -46 -148t-124 -50t-137 22l13 74q66 -22 112 -22q52 0 78.5 26t26.5 105v61q-4 -5 -12 -12.5t-31.5 -20.5t-46.5 -13q-170 0 -170 277q0 137 52.5 213t136.5 76q63 0 148 -20v-568zM295 110v370q-42 7 -68 7q-61 0 -89.5 -60.5t-28.5 -160.5
q0 -204 111 -204q12 0 24.5 6t18 11t19.5 18zM369 722q-17 -26 -53 -50t-83 -24q-81 0 -133 73l40 42q45 -49 94 -49q53 0 95 46z" />
    <glyph glyph-name="Gdotaccent" unicode="&#x120;" horiz-adv-x="508" 
d="M465 22q-62 -32 -162 -32q-127 0 -198 99.5t-71 259.5q0 163 72.5 264t196.5 101q87 0 157 -37l-20 -69q-79 34 -139 34q-81 0 -134 -71.5t-53 -211.5q0 -145 56.5 -220t145.5 -75q41 0 72 8v232h77v-282zM349 802l-54 -55l-54 55l54 53z" />
    <glyph glyph-name="gdotaccent" unicode="&#x121;" horiz-adv-x="430" 
d="M371 -30q0 -98 -46 -148t-124 -50t-137 22l13 74q66 -22 112 -22q52 0 78.5 26t26.5 105v61q-4 -5 -12 -12.5t-31.5 -20.5t-46.5 -13q-170 0 -170 277q0 137 52.5 213t136.5 76q63 0 148 -20v-568zM295 110v370q-42 7 -68 7q-61 0 -89.5 -60.5t-28.5 -160.5
q0 -204 111 -204q12 0 24.5 6t18 11t19.5 18zM289 715l-60 -60l-58 60l58 59z" />
    <glyph glyph-name="Gcommaaccent" unicode="&#x122;" horiz-adv-x="508" 
d="M343 -60l-23 -185h-58l12 185h69zM465 22q-62 -32 -162 -32q-127 0 -198 99.5t-71 259.5q0 163 72.5 264t196.5 101q87 0 157 -37l-20 -69q-79 34 -139 34q-81 0 -134 -71.5t-53 -211.5q0 -145 56.5 -220t145.5 -75q41 0 72 8v232h77v-282z" />
    <glyph glyph-name="gcommaaccent" unicode="&#x123;" horiz-adv-x="430" 
d="M371 -30q0 -98 -46 -148t-124 -50t-137 22l13 74q66 -22 112 -22q52 0 78.5 26t26.5 105v61q-4 -5 -12 -12.5t-31.5 -20.5t-46.5 -13q-170 0 -170 277q0 137 52.5 213t136.5 76q63 0 148 -20v-568zM295 110v370q-42 7 -68 7q-61 0 -89.5 -60.5t-28.5 -160.5
q0 -204 111 -204q12 0 24.5 6t18 11t19.5 18zM193 623l23 185h58l-12 -185h-69z" />
    <glyph glyph-name="Hcircumflex" unicode="&#x124;" horiz-adv-x="559" 
d="M131 780l145 89l143 -89l-27 -46l-116 64l-116 -63zM486 0h-79v319h-255v-319h-79v707h79v-316h255v316h79v-707z" />
    <glyph glyph-name="hcircumflex" unicode="&#x125;" horiz-adv-x="447" 
d="M-46 808l145 89l143 -89l-27 -46l-116 64l-116 -63zM391 0h-76v345q0 75 -13 106.5t-57 31.5q-38 0 -109 -60v-423h-76v754h76v-268q4 7 19.5 22t46.5 32.5t61 17.5q35 0 60.5 -14t38 -33t19.5 -50t8.5 -53.5t1.5 -55.5v-352z" />
    <glyph glyph-name="Hbar" unicode="&#x126;" horiz-adv-x="559" 
d="M486 0h-79v319h-255v-319h-79v520h-55v58h55v129h79v-129h255v129h79v-129h53v-58h-53v-520zM152 391h255v129h-255v-129z" />
    <glyph glyph-name="hbar" unicode="&#x127;" horiz-adv-x="447" 
d="M391 0h-76v345q0 75 -13 106.5t-57 31.5q-38 0 -109 -60v-423h-76v630h-55v58h55v66h76v-66h134v-58h-134v-144q4 7 19.5 22t46.5 32.5t61 17.5q35 0 60.5 -14t38 -33t19.5 -50t8.5 -53.5t1.5 -55.5v-352z" />
    <glyph glyph-name="Itilde" unicode="&#x128;" horiz-adv-x="225" 
d="M152 0h-79v707h79v-707zM249 807q-31 -45 -80 -45q-21 0 -57.5 11t-55.5 11q-26 0 -55 -20l-30 39q42 42 93 42q22 0 55 -11t46 -11q7 0 13 1.5t10.5 3t9 4.5t7 4.5t7 5.5t5.5 5z" />
    <glyph glyph-name="itilde" unicode="&#x129;" horiz-adv-x="195" 
d="M136 0h-76v546h76v-546zM240 711q-38 -49 -86 -49q-21 0 -56 13t-52 13q-29 0 -57 -21l-30 41q42 44 95 44q23 0 54 -12.5t43 -12.5q11 0 20.5 3t14 5.5t12.5 8t9 6.5z" />
    <glyph glyph-name="Imacron" unicode="&#x12a;" horiz-adv-x="225" 
d="M152 0h-79v707h79v-707zM227 766h-232v62h232v-62z" />
    <glyph glyph-name="imacron" unicode="&#x12b;" horiz-adv-x="195" 
d="M136 0h-76v546h76v-546zM215 672h-232v65h232v-65z" />
    <glyph glyph-name="Ibreve" unicode="&#x12c;" horiz-adv-x="225" 
d="M152 0h-79v707h79v-707zM242 821q-15 -25 -51 -49t-82 -24q-79 0 -130 72l40 40q44 -48 91 -48q51 0 92 45z" />
    <glyph glyph-name="ibreve" unicode="&#x12d;" horiz-adv-x="195" 
d="M136 0h-76v546h76v-546zM231 722q-17 -26 -53 -50t-83 -24q-81 0 -133 73l40 42q45 -49 94 -49q53 0 95 46z" />
    <glyph glyph-name="Iogonek" unicode="&#x12e;" horiz-adv-x="225" 
d="M152 707v-707q-26 -15 -53.5 -47.5t-27.5 -65.5q0 -48 56 -48q20 0 41 8l15 -54q-28 -17 -76 -17q-111 0 -111 98q0 69 77 129v704h79z" />
    <glyph glyph-name="iogonek" unicode="&#x12f;" horiz-adv-x="195" 
d="M137 546v-546q-27 -15 -55 -47.5t-28 -65.5q0 -48 57 -48q20 0 41 8l15 -54q-28 -17 -77 -17q-109 0 -109 97q0 71 79 128v545h77zM159 715l-60 -60l-58 60l58 59z" />
    <glyph glyph-name="Idotaccent" unicode="&#x130;" horiz-adv-x="225" 
d="M152 0h-79v707h79v-707zM168 802l-54 -55l-54 55l54 53z" />
    <glyph glyph-name="dotlessi" unicode="&#x131;" horiz-adv-x="195" 
d="M136 0h-76v546h76v-546z" />
    <glyph glyph-name="IJ" unicode="&#x132;" horiz-adv-x="444" 
d="M152 0h-79v707h79v-707zM373 156q0 -133 -29.5 -213t-122.5 -135l-38 56q65 46 88 108t23 173v562h79v-551z" />
    <glyph glyph-name="ij" unicode="&#x133;" horiz-adv-x="386" 
d="M327 -21q0 -111 -36.5 -159t-104.5 -48q-25 0 -62 15l14 68q24 -10 45 -10q37 0 52.5 32t15.5 96v573h76v-567zM136 0h-76v546h76v-546zM158 715l-60 -60l-58 60l58 59zM349 715l-60 -60l-58 60l58 59z" />
    <glyph glyph-name="Jcircumflex" unicode="&#x134;" horiz-adv-x="223" 
d="M-33 780l145 89l143 -89l-27 -46l-116 64l-116 -63zM152 156q0 -133 -29.5 -213t-122.5 -135l-38 56q65 46 88 108t23 173v562h79v-551z" />
    <glyph glyph-name="jcircumflex" unicode="&#x135;" horiz-adv-x="195" 
d="M136 -21q0 -111 -36.5 -159t-104.5 -48q-25 0 -62 15l14 68q24 -10 45 -10q37 0 52.5 32t15.5 96v573h76v-567zM242 676l-34 -46l-108 81l-110 -80l-35 45l144 113z" />
    <glyph glyph-name="Kcommaaccent" unicode="&#x136;" horiz-adv-x="451" 
d="M282 -60l-23 -185h-58l12 185h69zM464 0h-98l-172 298l-34 66v23l34 60l164 260h92l-215 -328zM152 0h-79v707h79v-707z" />
    <glyph glyph-name="kcommaaccent" unicode="&#x137;" horiz-adv-x="398" 
d="M248 -60l-23 -185h-58l12 185h69zM398 52l-22 -61q-38 3 -70.5 28.5t-64.5 85.5l-81 144l-20 39l23 49l135 209h87l-168 -256l79 -135q45 -75 102 -103zM136 0h-76v754h76v-754z" />
    <glyph glyph-name="Lacute" unicode="&#x139;" horiz-adv-x="372" 
d="M255 808l-175 -64l-21 49l170 84zM369 0h-296v707h79v-634h217v-73z" />
    <glyph glyph-name="lacute" unicode="&#x13a;" horiz-adv-x="196" 
d="M222 848l-175 -64l-21 49l170 84zM136 0h-76v754h76v-754z" />
    <glyph glyph-name="Lcommaaccent" unicode="&#x13b;" horiz-adv-x="372" 
d="M259 -60l-23 -185h-58l12 185h69zM369 0h-296v707h79v-634h217v-73z" />
    <glyph glyph-name="lcommaaccent" unicode="&#x13c;" horiz-adv-x="196" 
d="M132 -60l-23 -185h-58l12 185h69zM136 0h-76v754h76v-754z" />
    <glyph glyph-name="Lcaron" unicode="&#x13d;" horiz-adv-x="372" 
d="M282 780l-23 -185h-58l12 185h69zM369 0h-296v707h79v-634h217v-73z" />
    <glyph glyph-name="lcaron" unicode="&#x13e;" horiz-adv-x="239" 
d="M260 755l-23 -185h-58l12 185h69zM136 0h-76v754h76v-754z" />
    <glyph glyph-name="Ldot" unicode="&#x13f;" horiz-adv-x="371" 
d="M369 0h-296v707h79v-634h217v-73zM347 356l-54 -54l-54 54l54 53z" />
    <glyph glyph-name="ldot" unicode="&#x140;" horiz-adv-x="284" 
d="M136 0h-76v754h76v-754zM294 355l-54 -54l-54 54l54 53z" />
    <glyph glyph-name="Lslash" unicode="&#x141;" horiz-adv-x="372" 
d="M369 0h-296v299l-49 -39v74l49 39v334h79v-274l90 71v-74l-90 -71v-286h217v-73z" />
    <glyph glyph-name="lslash" unicode="&#x142;" horiz-adv-x="196" 
d="M191 423l-55 -43v-380h-76v320l-54 -42v75l54 42v359h76v-300l55 43v-74z" />
    <glyph glyph-name="Nacute" unicode="&#x143;" horiz-adv-x="564" 
d="M408 808l-175 -64l-21 49l170 84zM490 0h-92l-250 563h-4l8 -113v-450h-79v707h91l251 -572h4l-7 118v454h78v-707z" />
    <glyph glyph-name="nacute" unicode="&#x144;" horiz-adv-x="447" 
d="M348 743l-156 -127l-38 45l148 138zM391 0h-76v345q0 75 -13 106.5t-57 31.5q-38 0 -109 -60v-423h-76v546h76v-60q4 7 19.5 22t46.5 32.5t61 17.5q35 0 60.5 -14t38 -33t19.5 -50t8.5 -53.5t1.5 -55.5v-352z" />
    <glyph glyph-name="Ncommaaccent" unicode="&#x145;" horiz-adv-x="564" 
d="M322 -60l-23 -185h-58l12 185h69zM490 0h-92l-250 563h-4l8 -113v-450h-79v707h91l251 -572h4l-7 118v454h78v-707z" />
    <glyph glyph-name="ncommaaccent" unicode="&#x146;" horiz-adv-x="447" 
d="M261 -60l-23 -185h-58l12 185h69zM391 0h-76v345q0 75 -13 106.5t-57 31.5q-38 0 -109 -60v-423h-76v546h76v-60q4 7 19.5 22t46.5 32.5t61 17.5q35 0 60.5 -14t38 -33t19.5 -50t8.5 -53.5t1.5 -55.5v-352z" />
    <glyph glyph-name="Ncaron" unicode="&#x147;" horiz-adv-x="564" 
d="M425 823l-145 -90l-143 89l27 47l116 -64l117 63zM490 0h-92l-250 563h-4l8 -113v-450h-79v707h91l251 -572h4l-7 118v454h78v-707z" />
    <glyph glyph-name="ncaron" unicode="&#x148;" horiz-adv-x="447" 
d="M368 736l-148 -115l-139 112l37 48l105 -81l109 80zM391 0h-76v345q0 75 -13 106.5t-57 31.5q-38 0 -109 -60v-423h-76v546h76v-60q4 7 19.5 22t46.5 32.5t61 17.5q35 0 60.5 -14t38 -33t19.5 -50t8.5 -53.5t1.5 -55.5v-352z" />
    <glyph glyph-name="napostrophe" unicode="&#x149;" horiz-adv-x="456" 
d="M49 698q0 -64 -31 -146h-63q22 73 22 120v78h72v-52zM400 0h-76v345q0 75 -13 106.5t-57 31.5q-38 0 -109 -60v-423h-76v546h76v-60q4 7 19.5 22t46.5 32.5t61 17.5q35 0 60.5 -14t38 -33t19.5 -50t8.5 -53.5t1.5 -55.5v-352z" />
    <glyph glyph-name="Eng" unicode="&#x14a;" horiz-adv-x="564" 
d="M490 -21q0 -111 -36.5 -159t-104.5 -48q-25 0 -62 15l14 68q24 -10 45 -10q37 0 51.5 32t14.5 96v27h-16l-247 562h-4l7 -111v-451h-79v707h91l251 -570h4l-8 119v451h79v-728z" />
    <glyph glyph-name="eng" unicode="&#x14b;" horiz-adv-x="447" 
d="M391 -21q0 -111 -36.5 -159t-104.5 -48q-25 0 -63 15l15 68q24 -10 45 -10q37 0 52.5 32t15.5 96v373q0 74 -13 105.5t-57 31.5q-34 0 -109 -59v-424h-76v546h76v-59q4 7 19.5 22t46.5 32.5t61 17.5q35 0 60.5 -14t38 -33t19.5 -50t8.5 -53.5t1.5 -55.5v-374z" />
    <glyph glyph-name="Omacron" unicode="&#x14c;" horiz-adv-x="590" 
d="M410 766h-232v62h232v-62zM556 353q0 -165 -71.5 -265t-196.5 -100q-122 0 -188.5 99.5t-66.5 267.5q0 166 73.5 264t195.5 98q123 0 188.5 -101.5t65.5 -262.5zM475 354q0 132 -48.5 213t-133.5 81q-86 0 -132.5 -80.5t-46.5 -211.5q0 -130 46.5 -214t131.5 -84
q90 0 136.5 81t46.5 215z" />
    <glyph glyph-name="omacron" unicode="&#x14d;" horiz-adv-x="434" 
d="M333 668h-232v65h232v-65zM402 273q0 -137 -51 -209.5t-136 -72.5q-87 0 -134.5 72.5t-47.5 203.5q0 137 50.5 214t136.5 77q92 0 137 -74.5t45 -210.5zM326 273q0 41 -5 76.5t-17 68.5t-34 52.5t-53 19.5q-38 0 -63.5 -34.5t-35 -81t-9.5 -102.5q0 -92 26.5 -152
t83.5 -60t82 60.5t25 152.5z" />
    <glyph glyph-name="Obreve" unicode="&#x14e;" horiz-adv-x="590" 
d="M556 353q0 -165 -71.5 -265t-196.5 -100q-122 0 -188.5 99.5t-66.5 267.5q0 166 73.5 264t195.5 98q123 0 188.5 -101.5t65.5 -262.5zM475 354q0 132 -48.5 213t-133.5 81q-86 0 -132.5 -80.5t-46.5 -211.5q0 -130 46.5 -214t131.5 -84q90 0 136.5 81t46.5 215zM424 821
q-15 -25 -51 -49t-82 -24q-79 0 -130 72l40 40q44 -48 91 -48q51 0 92 45z" />
    <glyph glyph-name="obreve" unicode="&#x14f;" horiz-adv-x="434" 
d="M402 273q0 -137 -51 -209.5t-136 -72.5q-87 0 -134.5 72.5t-47.5 203.5q0 137 50.5 214t136.5 77q92 0 137 -74.5t45 -210.5zM326 273q0 41 -5 76.5t-17 68.5t-34 52.5t-53 19.5q-38 0 -63.5 -34.5t-35 -81t-9.5 -102.5q0 -92 26.5 -152t83.5 -60t82 60.5t25 152.5z
M353 722q-17 -26 -53 -50t-83 -24q-81 0 -133 73l40 42q45 -49 94 -49q53 0 95 46z" />
    <glyph glyph-name="Ohungarumlaut" unicode="&#x150;" horiz-adv-x="590" 
d="M535 800l-168 -64l-20 49l162 81zM350 861l-135 -120l-36 38l122 134zM556 353q0 -165 -71.5 -265t-196.5 -100q-122 0 -188.5 99.5t-66.5 267.5q0 166 73.5 264t195.5 98q123 0 188.5 -101.5t65.5 -262.5zM475 354q0 132 -48.5 213t-133.5 81q-86 0 -132.5 -80.5
t-46.5 -211.5q0 -130 46.5 -214t131.5 -84q90 0 136.5 81t46.5 215z" />
    <glyph glyph-name="ohungarumlaut" unicode="&#x151;" horiz-adv-x="434" 
d="M443 731l-166 -121l-32 46l159 131zM268 762l-144 -147l-41 38l136 154zM402 273q0 -137 -51 -209.5t-136 -72.5q-87 0 -134.5 72.5t-47.5 203.5q0 137 50.5 214t136.5 77q92 0 137 -74.5t45 -210.5zM326 273q0 41 -5 76.5t-17 68.5t-34 52.5t-53 19.5q-38 0 -63.5 -34.5
t-35 -81t-9.5 -102.5q0 -92 26.5 -152t83.5 -60t82 60.5t25 152.5z" />
    <glyph glyph-name="OE" unicode="&#x152;" horiz-adv-x="774" 
d="M746 0h-317v52q-54 -64 -146 -64q-116 0 -183 101.5t-67 265.5q0 165 73.5 263.5t190.5 98.5q79 0 132 -60v50h301v-69h-223v-249h207v-68h-207v-250h239v-71zM429 140v424q-49 82 -134 82q-87 0 -135.5 -81t-48.5 -209q0 -127 47 -212t132 -85q88 0 139 81z" />
    <glyph glyph-name="oe" unicode="&#x153;" horiz-adv-x="684" 
d="M657 256h-256q0 -109 33.5 -150.5t100.5 -41.5q42 0 103 21l13 -67q-43 -27 -133 -27q-117 0 -158 102q-48 -102 -145 -102q-89 0 -135.5 74t-46.5 202q0 134 49.5 212.5t137.5 78.5q103 0 144 -105q46 106 143 106q150 0 150 -272v-31zM578 320q0 80 -20 127t-60 47
q-41 0 -66 -46t-30 -128h176zM326 273q0 41 -5 76.5t-17 68.5t-34 52.5t-53 19.5q-38 0 -63.5 -34.5t-35 -81t-9.5 -102.5q0 -92 26.5 -152t83.5 -60t82 60.5t25 152.5z" />
    <glyph glyph-name="Racute" unicode="&#x154;" horiz-adv-x="506" 
d="M356 808l-175 -64l-21 49l170 84zM503 53l-15 -64q-37 2 -77 27.5t-69 83.5l-89 182q-18 -4 -62 -4h-40v-278h-78v707h172q80 0 127 -53.5t47 -158.5q0 -136 -94 -190l78 -150q38 -72 100 -102zM337 490q0 146 -107 146h-79v-289h62q124 0 124 143z" />
    <glyph glyph-name="racute" unicode="&#x155;" horiz-adv-x="283" 
d="M313 743l-156 -127l-38 45l148 138zM291 546l-10 -72q-21 9 -54 9q-28 0 -52.5 -23t-38.5 -55v-405h-76v546h76v-64h3q38 74 96 74q33 0 56 -10z" />
    <glyph glyph-name="Rcommaaccent" unicode="&#x156;" horiz-adv-x="506" 
d="M295 -60l-23 -185h-58l12 185h69zM503 53l-15 -64q-37 2 -77 27.5t-69 83.5l-89 182q-18 -4 -62 -4h-40v-278h-78v707h172q80 0 127 -53.5t47 -158.5q0 -136 -94 -190l78 -150q38 -72 100 -102zM337 490q0 146 -107 146h-79v-289h62q124 0 124 143z" />
    <glyph glyph-name="rcommaaccent" unicode="&#x157;" horiz-adv-x="283" 
d="M131 -60l-23 -185h-58l12 185h69zM291 546l-10 -72q-21 9 -54 9q-28 0 -52.5 -23t-38.5 -55v-405h-76v546h76v-64h3q38 74 96 74q33 0 56 -10z" />
    <glyph glyph-name="Rcaron" unicode="&#x158;" horiz-adv-x="506" 
d="M362 823l-145 -90l-143 89l27 47l116 -64l117 63zM503 53l-15 -64q-37 2 -77 27.5t-69 83.5l-89 182q-18 -4 -62 -4h-40v-278h-78v707h172q80 0 127 -53.5t47 -158.5q0 -136 -94 -190l78 -150q38 -72 100 -102zM337 490q0 146 -107 146h-79v-289h62q124 0 124 143z" />
    <glyph glyph-name="rcaron" unicode="&#x159;" horiz-adv-x="283" 
d="M312 736l-148 -115l-139 112l37 48l105 -81l109 80zM291 546l-10 -72q-21 9 -54 9q-28 0 -52.5 -23t-38.5 -55v-405h-76v546h76v-64h3q38 74 96 74q33 0 56 -10z" />
    <glyph glyph-name="Sacute" unicode="&#x15a;" horiz-adv-x="400" 
d="M334 808l-175 -64l-21 49l170 84zM373 185q0 -93 -56.5 -143.5t-137.5 -50.5q-85 0 -153 50l31 62q64 -40 121 -40q50 0 82 29.5t32 87.5q0 34 -18 63t-45 49t-58.5 45.5t-58.5 49.5t-45 63t-18 86q0 80 49 127.5t120 47.5q68 0 129 -33l-24 -62q-52 24 -102 24
q-44 0 -68.5 -26.5t-24.5 -75.5q0 -32 18 -61t45.5 -49.5t59 -46t59 -50.5t45.5 -63t18 -83z" />
    <glyph glyph-name="sacute" unicode="&#x15b;" horiz-adv-x="337" 
d="M304 743l-156 -127l-38 45l148 138zM312 151q0 -77 -48.5 -118t-111.5 -41q-68 0 -123 24l11 68q65 -23 107 -23q38 0 64 23t26 58q0 30 -20.5 54t-49 43t-57.5 40.5t-49.5 55t-20.5 77.5q0 70 40.5 107t106.5 37q48 0 102 -23l-12 -65q-50 21 -97 21q-31 0 -48.5 -19
t-17.5 -50q0 -29 20.5 -54t49.5 -44t58 -40.5t49.5 -55t20.5 -75.5z" />
    <glyph glyph-name="Scircumflex" unicode="&#x15c;" horiz-adv-x="400" 
d="M62 782l145 89l143 -89l-27 -46l-116 64l-116 -63zM373 185q0 -93 -56.5 -143.5t-137.5 -50.5q-85 0 -153 50l31 62q64 -40 121 -40q50 0 82 29.5t32 87.5q0 34 -18 63t-45 49t-58.5 45.5t-58.5 49.5t-45 63t-18 86q0 80 49 127.5t120 47.5q68 0 129 -33l-24 -62
q-52 24 -102 24q-44 0 -68.5 -26.5t-24.5 -75.5q0 -32 18 -61t45.5 -49.5t59 -46t59 -50.5t45.5 -63t18 -83z" />
    <glyph glyph-name="scircumflex" unicode="&#x15d;" horiz-adv-x="337" 
d="M320 676l-34 -46l-108 81l-110 -80l-35 45l144 113zM312 151q0 -77 -48.5 -118t-111.5 -41q-68 0 -123 24l11 68q65 -23 107 -23q38 0 64 23t26 58q0 30 -20.5 54t-49 43t-57.5 40.5t-49.5 55t-20.5 77.5q0 70 40.5 107t106.5 37q48 0 102 -23l-12 -65q-50 21 -97 21
q-31 0 -48.5 -19t-17.5 -50q0 -29 20.5 -54t49.5 -44t58 -40.5t49.5 -55t20.5 -75.5z" />
    <glyph glyph-name="Scedilla" unicode="&#x15e;" horiz-adv-x="400" 
d="M373 185q0 -93 -56.5 -143.5t-137.5 -50.5q-85 0 -153 50l31 62q64 -40 121 -40q50 0 82 29.5t32 87.5q0 34 -18 63t-45 49t-58.5 45.5t-58.5 49.5t-45 63t-18 86q0 80 49 127.5t120 47.5q68 0 129 -33l-24 -62q-52 24 -102 24q-44 0 -68.5 -26.5t-24.5 -75.5
q0 -32 18 -61t45.5 -49.5t59 -46t59 -50.5t45.5 -63t18 -83zM246 -127q0 -69 -107 -123l-31 57q66 37 66 71q0 25 -23 71h72q23 -41 23 -76z" />
    <glyph glyph-name="scedilla" unicode="&#x15f;" horiz-adv-x="337" 
d="M312 151q0 -77 -48.5 -118t-111.5 -41q-68 0 -123 24l11 68q65 -23 107 -23q38 0 64 23t26 58q0 30 -20.5 54t-49 43t-57.5 40.5t-49.5 55t-20.5 77.5q0 70 40.5 107t106.5 37q48 0 102 -23l-12 -65q-50 21 -97 21q-31 0 -48.5 -19t-17.5 -50q0 -29 20.5 -54t49.5 -44
t58 -40.5t49.5 -55t20.5 -75.5zM220 -127q0 -69 -107 -123l-31 57q66 37 66 71q0 25 -23 71h72q23 -41 23 -76z" />
    <glyph glyph-name="Scaron" unicode="&#x160;" horiz-adv-x="400" 
d="M348 823l-145 -90l-143 89l27 47l116 -64l117 63zM373 185q0 -93 -56.5 -143.5t-137.5 -50.5q-85 0 -153 50l31 62q64 -40 121 -40q50 0 82 29.5t32 87.5q0 34 -18 63t-45 49t-58.5 45.5t-58.5 49.5t-45 63t-18 86q0 80 49 127.5t120 47.5q68 0 129 -33l-24 -62
q-52 24 -102 24q-44 0 -68.5 -26.5t-24.5 -75.5q0 -32 18 -61t45.5 -49.5t59 -46t59 -50.5t45.5 -63t18 -83z" />
    <glyph glyph-name="scaron" unicode="&#x161;" horiz-adv-x="337" 
d="M320 736l-148 -115l-139 112l37 48l105 -81l109 80zM312 151q0 -77 -48.5 -118t-111.5 -41q-68 0 -123 24l11 68q65 -23 107 -23q38 0 64 23t26 58q0 30 -20.5 54t-49 43t-57.5 40.5t-49.5 55t-20.5 77.5q0 70 40.5 107t106.5 37q48 0 102 -23l-12 -65q-50 21 -97 21
q-31 0 -48.5 -19t-17.5 -50q0 -29 20.5 -54t49.5 -44t58 -40.5t49.5 -55t20.5 -75.5z" />
    <glyph glyph-name="Tcommaaccent" unicode="&#x162;" horiz-adv-x="410" 
d="M239 -60l-23 -185h-58l12 185h69zM416 635h-171v-635h-79v635h-172v72h422v-72z" />
    <glyph glyph-name="tcommaaccent" unicode="&#x163;" horiz-adv-x="302" 
d="M224 -60l-23 -185h-58l12 185h69zM296 13q-42 -19 -81 -19q-38 0 -60.5 5t-42.5 21t-28.5 49t-8.5 87v323h-58v67h58v112h74v-112h121v-67h-121v-327q0 -51 14.5 -70t51.5 -19q40 0 70 15z" />
    <glyph glyph-name="Tcaron" unicode="&#x164;" horiz-adv-x="410" 
d="M347 823l-145 -90l-143 89l27 47l116 -64l117 63zM416 635h-171v-635h-79v635h-172v72h422v-72z" />
    <glyph glyph-name="tcaron" unicode="&#x165;" horiz-adv-x="302" 
d="M289 827l-23 -185h-58l12 185h69zM296 13q-42 -19 -81 -19q-38 0 -60.5 5t-42.5 21t-28.5 49t-8.5 87v323h-58v67h58v112h74v-112h121v-67h-121v-327q0 -51 14.5 -70t51.5 -19q40 0 70 15z" />
    <glyph glyph-name="Tbar" unicode="&#x166;" horiz-adv-x="410" 
d="M416 635h-171v-252h112v-59h-112v-324h-79v324h-109v59h109v252h-172v72h422v-72z" />
    <glyph glyph-name="tbar" unicode="&#x167;" horiz-adv-x="302" 
d="M296 13q-42 -19 -81 -19q-38 0 -60.5 5t-42.5 21t-28.5 49t-8.5 87v130h-58v59h58v134h-58v67h58v112h74v-112h121v-67h-121v-134h110v-59h-110v-134q0 -51 14.5 -70t51.5 -19q40 0 70 15z" />
    <glyph glyph-name="Utilde" unicode="&#x168;" horiz-adv-x="554" 
d="M488 270q0 -81 -18.5 -139t-50.5 -88t-66.5 -43t-73.5 -13q-42 0 -77.5 12t-67.5 39t-50 79.5t-18 126.5v463h80v-464q0 -184 133 -184q59 0 96 47.5t37 159.5v441h76v-437zM420 807q-32 -45 -80 -45q-21 0 -57.5 11t-55.5 11q-26 0 -55 -20l-30 39q42 42 93 42
q23 0 55 -11t46 -11q7 0 13 1.5t10.5 3t9 4.5t7 4.5t7 5.5t5.5 5z" />
    <glyph glyph-name="utilde" unicode="&#x169;" horiz-adv-x="447" 
d="M391 0h-77v63q-4 -7 -19 -22.5t-46 -33.5t-61 -18q-35 0 -60.5 14t-38 32.5t-19.5 50t-8.5 53.5t-1.5 55v352h75v-347q0 -74 13.5 -106t57.5 -32q26 0 57.5 21.5t50.5 41.5v422h77v-546zM367 711q-38 -49 -86 -49q-21 0 -56 13t-52 13q-29 0 -57 -21l-30 41q42 44 95 44
q23 0 54 -12.5t43 -12.5q11 0 20.5 3t14 5.5t12.5 8t9 6.5z" />
    <glyph glyph-name="Umacron" unicode="&#x16a;" horiz-adv-x="554" 
d="M488 270q0 -81 -18.5 -139t-50.5 -88t-66.5 -43t-73.5 -13q-42 0 -77.5 12t-67.5 39t-50 79.5t-18 126.5v463h80v-464q0 -184 133 -184q59 0 96 47.5t37 159.5v441h76v-437zM398 766h-232v62h232v-62z" />
    <glyph glyph-name="umacron" unicode="&#x16b;" horiz-adv-x="447" 
d="M391 0h-77v63q-4 -7 -19 -22.5t-46 -33.5t-61 -18q-35 0 -60.5 14t-38 32.5t-19.5 50t-8.5 53.5t-1.5 55v352h75v-347q0 -74 13.5 -106t57.5 -32q26 0 57.5 21.5t50.5 41.5v422h77v-546zM341 673h-232v65h232v-65z" />
    <glyph glyph-name="Ubreve" unicode="&#x16c;" horiz-adv-x="554" 
d="M488 270q0 -81 -18.5 -139t-50.5 -88t-66.5 -43t-73.5 -13q-42 0 -77.5 12t-67.5 39t-50 79.5t-18 126.5v463h80v-464q0 -184 133 -184q59 0 96 47.5t37 159.5v441h76v-437zM407 821q-15 -25 -51 -49t-82 -24q-79 0 -130 72l40 40q44 -48 91 -48q51 0 92 45z" />
    <glyph glyph-name="ubreve" unicode="&#x16d;" horiz-adv-x="447" 
d="M391 0h-77v63q-4 -7 -19 -22.5t-46 -33.5t-61 -18q-35 0 -60.5 14t-38 32.5t-19.5 50t-8.5 53.5t-1.5 55v352h75v-347q0 -74 13.5 -106t57.5 -32q26 0 57.5 21.5t50.5 41.5v422h77v-546zM362 722q-17 -26 -53 -50t-83 -24q-81 0 -133 73l40 42q45 -49 94 -49q53 0 95 46z
" />
    <glyph glyph-name="Uring" unicode="&#x16e;" horiz-adv-x="554" 
d="M372 815q0 -39 -26.5 -62.5t-65.5 -23.5q-40 0 -67.5 21.5t-27.5 62.5t27.5 65t65.5 24q36 0 65 -22t29 -65zM326 814q0 19 -14.5 32.5t-33.5 13.5q-20 0 -33 -12.5t-13 -31.5q0 -20 13.5 -33.5t33.5 -13.5t33.5 13t13.5 32zM488 270q0 -81 -18.5 -139t-50.5 -88
t-66.5 -43t-73.5 -13q-42 0 -77.5 12t-67.5 39t-50 79.5t-18 126.5v463h80v-464q0 -184 133 -184q59 0 96 47.5t37 159.5v441h76v-437z" />
    <glyph glyph-name="uring" unicode="&#x16f;" horiz-adv-x="447" 
d="M322 701q0 -39 -26.5 -62.5t-65.5 -23.5q-40 0 -67.5 21.5t-27.5 62.5t27.5 65t65.5 24q36 0 65 -22t29 -65zM276 700q0 19 -14.5 32.5t-33.5 13.5q-20 0 -33 -12.5t-13 -31.5q0 -20 13.5 -33.5t33.5 -13.5t33.5 13t13.5 32zM391 0h-77v63q-4 -7 -19 -22.5t-46 -33.5
t-61 -18q-35 0 -60.5 14t-38 32.5t-19.5 50t-8.5 53.5t-1.5 55v352h75v-347q0 -74 13.5 -106t57.5 -32q26 0 57.5 21.5t50.5 41.5v422h77v-546z" />
    <glyph glyph-name="Uhungarumlaut" unicode="&#x170;" horiz-adv-x="554" 
d="M488 270q0 -81 -18.5 -139t-50.5 -88t-66.5 -43t-73.5 -13q-42 0 -77.5 12t-67.5 39t-50 79.5t-18 126.5v463h80v-464q0 -184 133 -184q59 0 96 47.5t37 159.5v441h76v-437zM500 800l-168 -64l-20 49l162 81zM315 861l-135 -120l-36 38l122 134z" />
    <glyph glyph-name="uhungarumlaut" unicode="&#x171;" horiz-adv-x="447" 
d="M391 0h-77v63q-4 -7 -19 -22.5t-46 -33.5t-61 -18q-35 0 -60.5 14t-38 32.5t-19.5 50t-8.5 53.5t-1.5 55v352h75v-347q0 -74 13.5 -106t57.5 -32q26 0 57.5 21.5t50.5 41.5v422h77v-546zM464 731l-166 -121l-32 46l159 131zM289 762l-144 -147l-41 38l136 154z" />
    <glyph glyph-name="Uogonek" unicode="&#x172;" horiz-adv-x="554" 
d="M337 -153l15 -54q-28 -17 -77 -17q-111 0 -111 98q0 61 76 116q-77 10 -125.5 69.5t-48.5 184.5v463h80v-464q0 -184 133 -184q59 0 96 47.5t37 159.5v441h76v-437q0 -221 -135 -270q-114 -63 -114 -113q0 -48 56 -48q21 0 42 8z" />
    <glyph glyph-name="uogonek" unicode="&#x173;" horiz-adv-x="447" 
d="M391 546v-546q-35 -17 -74.5 -49t-39.5 -64q0 -48 56 -48q22 0 41 8l15 -54q-28 -17 -76 -17q-111 0 -111 98q0 64 91 118l21 12v59q-4 -7 -19 -22.5t-46 -33.5t-61 -18q-35 0 -60.5 14t-38 32.5t-19.5 49.5t-8.5 53t-1.5 55v353h75v-348q0 -74 13.5 -105.5t57.5 -31.5
q26 0 57.5 21.5t50.5 41.5v422h77z" />
    <glyph glyph-name="Wcircumflex" unicode="&#x174;" horiz-adv-x="725" 
d="M215 780l145 89l143 -89l-27 -46l-116 64l-116 -63zM727 707l-170 -707h-101l-82 338l-14 79h-3l-18 -78l-96 -339h-101l-143 707h81l102 -530l14 -103h3l21 101l103 354l-45 178h81l128 -532l18 -100h3l17 102l125 530h77z" />
    <glyph glyph-name="wcircumflex" unicode="&#x175;" horiz-adv-x="629" 
d="M462 676l-34 -46l-108 81l-110 -80l-35 45l144 113zM627 546l-138 -546h-93l-69 365l-11 85h-5l-12 -86l-79 -364h-91l-125 546h79l80 -383l10 -84h6l10 84l82 383h89l73 -379l10 -87h6l11 83l90 383h77z" />
    <glyph glyph-name="Ycircumflex" unicode="&#x176;" horiz-adv-x="411" 
d="M419 707l-179 -439v-268h-78v269l-170 438h88l93 -263l28 -92h4l28 91l101 264h85zM61 780l145 89l143 -89l-27 -46l-116 64l-116 -63z" />
    <glyph glyph-name="ycircumflex" unicode="&#x177;" horiz-adv-x="373" 
d="M372 546l-195 -766h-76l53 220h-21l-130 546h81l85 -388l11 -87h6l12 86l95 389h79zM332 676l-34 -46l-108 81l-110 -80l-35 45l144 113z" />
    <glyph glyph-name="Ydieresis" unicode="&#x178;" horiz-adv-x="411" 
d="M419 707l-179 -439v-268h-78v269l-170 438h88l93 -263l28 -92h4l28 91l101 264h85zM334 799l-54 -55l-54 55l54 53zM181 799l-54 -55l-53 55l53 53z" />
    <glyph glyph-name="Zacute" unicode="&#x179;" horiz-adv-x="394" 
d="M307 808l-175 -64l-21 49l170 84zM381 0h-367v77l264 555h-246v75h334v-71l-266 -561h281v-75z" />
    <glyph glyph-name="zacute" unicode="&#x17a;" horiz-adv-x="359" 
d="M296 743l-156 -127l-38 45l148 138zM339 0h-317v78l229 396h-211v72h296v-74l-230 -400h233v-72z" />
    <glyph glyph-name="Zdotaccent" unicode="&#x17b;" horiz-adv-x="394" 
d="M381 0h-367v77l264 555h-246v75h334v-71l-266 -561h281v-75zM254 802l-54 -55l-54 55l54 53z" />
    <glyph glyph-name="zdotaccent" unicode="&#x17c;" horiz-adv-x="359" 
d="M339 0h-317v78l229 396h-211v72h296v-74l-230 -400h233v-72zM245 715l-60 -60l-58 60l58 59z" />
    <glyph glyph-name="Zcaron" unicode="&#x17d;" horiz-adv-x="394" 
d="M346 823l-145 -90l-143 89l27 47l116 -64l117 63zM381 0h-367v77l264 555h-246v75h334v-71l-266 -561h281v-75z" />
    <glyph glyph-name="zcaron" unicode="&#x17e;" horiz-adv-x="359" 
d="M335 736l-148 -115l-139 112l37 48l105 -81l109 80zM339 0h-317v78l229 396h-211v72h296v-74l-230 -400h233v-72z" />
    <glyph glyph-name="uni018F" unicode="&#x18f;" horiz-adv-x="591" 
d="M285 -12q-124 0 -184.5 91.5t-63.5 252.5v56h431q-6 120 -51.5 190.5t-134.5 70.5q-93 0 -195 -67l-21 61q104 74 226 74q127 0 191 -96t64 -268q0 -169 -65 -267t-197 -98zM288 56q95 0 135 70t45 198h-354q3 -59 12.5 -104.5t28.5 -84t52.5 -59t80.5 -20.5z" />
    <glyph glyph-name="florin" unicode="&#x192;" horiz-adv-x="341" 
d="M334 497q-74 -7 -95 -22q-33 -25 -33 -113v-42h82v-68h-85v-73q0 -53 -13 -91t-31.5 -58.5t-47.5 -32.5t-53 -15t-56 -3l-4 68q77 6 97 22q33 24 33 111v72h-75v68h78v41q0 64 16 107t46 63.5t62.5 28t75.5 7.5z" />
    <glyph glyph-name="uni01D3" unicode="&#x1d3;" horiz-adv-x="554" 
d="M422 823l-145 -90l-143 89l27 47l116 -64l117 63zM488 270q0 -81 -18.5 -139t-50.5 -88t-66.5 -43t-73.5 -13q-42 0 -77.5 12t-67.5 39t-50 79.5t-18 126.5v463h80v-464q0 -184 133 -184q59 0 96 47.5t37 159.5v441h76v-437z" />
    <glyph glyph-name="uni01D4" unicode="&#x1d4;" horiz-adv-x="447" 
d="M368 736l-148 -115l-139 112l37 48l105 -81l109 80zM391 0h-77v63q-4 -7 -19 -22.5t-46 -33.5t-61 -18q-35 0 -60.5 14t-38 32.5t-19.5 50t-8.5 53.5t-1.5 55v352h75v-347q0 -74 13.5 -106t57.5 -32q26 0 57.5 21.5t50.5 41.5v422h77v-546z" />
    <glyph glyph-name="AEmacron" unicode="&#x1e2;" horiz-adv-x="675" 
d="M647 0h-317v264h-163l-88 -264h-79l237 707h394v-69h-222v-249h206v-68h-206v-250h238v-71zM330 333v307h-43l-99 -307h142zM534 766h-232v62h232v-62z" />
    <glyph glyph-name="aemacron" unicode="&#x1e3;" horiz-adv-x="621" 
d="M589 269l-256 -13q0 -109 33.5 -150.5t100.5 -41.5q42 0 103 21l13 -67q-47 -27 -133 -27q-105 0 -153 87q-24 -30 -64.5 -58t-89.5 -28q-63 0 -93 46t-30 113q0 76 50 117t125 43l65 2v81q0 53 -18.5 72.5t-71.5 19.5q-36 0 -105 -28l-13 65q25 16 64 26t70 10
q101 0 129 -77q44 77 124 77q78 0 114 -64t36 -197v-29zM510 328q0 166 -80 166q-40 0 -65 -47.5t-31 -131.5zM276 130q-8 29 -10 46q-6 38 -6 78q-4 0 -27 -1t-30 -2t-27 -3.5t-27.5 -6.5t-21 -11t-19 -16.5t-10.5 -24t-5 -32.5q0 -97 63 -97q44 0 120 70zM427 668h-232v65
h232v-65z" />
    <glyph glyph-name="AEacute" unicode="&#x1fc;" horiz-adv-x="675" 
d="M508 808l-175 -64l-21 49l170 84zM647 0h-317v264h-163l-88 -264h-79l237 707h394v-69h-222v-249h206v-68h-206v-250h238v-71zM330 333v307h-43l-99 -307h142z" />
    <glyph glyph-name="aeacute" unicode="&#x1fd;" horiz-adv-x="621" 
d="M466 743l-156 -127l-38 45l148 138zM589 269l-256 -13q0 -109 33.5 -150.5t100.5 -41.5q42 0 103 21l13 -67q-47 -27 -133 -27q-105 0 -153 87q-24 -30 -64.5 -58t-89.5 -28q-63 0 -93 46t-30 113q0 76 50 117t125 43l65 2v81q0 53 -18.5 72.5t-71.5 19.5q-36 0 -105 -28
l-13 65q25 16 64 26t70 10q101 0 129 -77q44 77 124 77q78 0 114 -64t36 -197v-29zM510 328q0 166 -80 166q-40 0 -65 -47.5t-31 -131.5zM276 130q-8 29 -10 46q-6 38 -6 78q-4 0 -27 -1t-30 -2t-27 -3.5t-27.5 -6.5t-21 -11t-19 -16.5t-10.5 -24t-5 -32.5q0 -97 63 -97
q44 0 120 70z" />
    <glyph glyph-name="Oslashacute" unicode="&#x1fe;" horiz-adv-x="590" 
d="M566 681l-63 -86q53 -94 53 -242q0 -164 -71.5 -264.5t-196.5 -100.5q-99 0 -165 74l-52 -74l-49 37l63 90q-52 99 -52 240q0 166 73.5 264t195.5 98q100 0 164 -70l51 71zM417 581q-49 67 -122 67q-87 0 -135.5 -81t-48.5 -211q0 -97 28 -168zM477 354q0 97 -29 166
l-278 -395q46 -67 120 -67q91 0 139 81t48 215zM420 808l-175 -64l-21 49l170 84z" />
    <glyph glyph-name="oslashacute" unicode="&#x1ff;" horiz-adv-x="434" 
d="M422 547l-54 -84q34 -69 34 -190q0 -137 -51 -209.5t-136 -72.5q-73 0 -117 50l-42 -66l-43 29l54 83q-34 71 -34 180q0 137 50.5 214t136.5 77q75 0 117 -49l42 66zM292 442q-28 48 -75 48q-38 0 -63.5 -34.5t-35 -81t-9.5 -102.5q0 -64 12 -105zM326 273q0 59 -12 109
l-172 -275q29 -47 77 -47q57 0 82 60.5t25 152.5zM345 743l-156 -127l-38 45l148 138z" />
    <glyph glyph-name="Scommaaccent" unicode="&#x218;" horiz-adv-x="400" 
d="M225 -60l-23 -185h-58l12 185h69zM373 185q0 -93 -56.5 -143.5t-137.5 -50.5q-85 0 -153 50l31 62q64 -40 121 -40q50 0 82 29.5t32 87.5q0 34 -18 63t-45 49t-58.5 45.5t-58.5 49.5t-45 63t-18 86q0 80 49 127.5t120 47.5q68 0 129 -33l-24 -62q-52 24 -102 24
q-44 0 -68.5 -26.5t-24.5 -75.5q0 -32 18 -61t45.5 -49.5t59 -46t59 -50.5t45.5 -63t18 -83z" />
    <glyph glyph-name="scommaaccent" unicode="&#x219;" horiz-adv-x="337" 
d="M203 -60l-23 -185h-58l12 185h69zM312 151q0 -77 -48.5 -118t-111.5 -41q-68 0 -123 24l11 68q65 -23 107 -23q38 0 64 23t26 58q0 30 -20.5 54t-49 43t-57.5 40.5t-49.5 55t-20.5 77.5q0 70 40.5 107t106.5 37q48 0 102 -23l-12 -65q-50 21 -97 21q-31 0 -48.5 -19
t-17.5 -50q0 -29 20.5 -54t49.5 -44t58 -40.5t49.5 -55t20.5 -75.5z" />
    <glyph glyph-name="uni021A" unicode="&#x21a;" horiz-adv-x="410" 
d="M241 -60l-23 -185h-58l12 185h69zM416 635h-171v-635h-79v635h-172v72h422v-72z" />
    <glyph glyph-name="uni021B" unicode="&#x21b;" horiz-adv-x="302" 
d="M222 -60l-23 -185h-58l12 185h69zM296 13q-42 -19 -81 -19q-38 0 -60.5 5t-42.5 21t-28.5 49t-8.5 87v323h-58v67h58v112h74v-112h121v-67h-121v-327q0 -51 14.5 -70t51.5 -19q40 0 70 15z" />
    <glyph glyph-name="Ymacron" unicode="&#x232;" horiz-adv-x="411" 
d="M419 707l-179 -439v-268h-78v269l-170 438h88l93 -263l28 -92h4l28 91l101 264h85zM319 766h-232v62h232v-62z" />
    <glyph glyph-name="ymacron" unicode="&#x233;" horiz-adv-x="373" 
d="M372 546l-195 -766h-76l53 220h-21l-130 546h81l85 -388l11 -87h6l12 86l95 389h79zM299 668h-232v65h232v-65z" />
    <glyph glyph-name="schwa" unicode="&#x259;" horiz-adv-x="393" 
d="M26 292h257q0 109 -34 150.5t-101 41.5q-43 0 -102 -21l-14 67q47 27 133 27q95 0 144 -62.5t49 -209.5q0 -153 -50 -224.5t-132 -71.5q-150 0 -150 272v31zM105 228q0 -80 20 -127t60 -47q84 0 97 174h-177z" />
    <glyph glyph-name="h.superior" unicode="&#x2b0;" horiz-adv-x="331" 
d="M47 415v498h58v-176q3 2 13 11t16 13.5t16.5 11t22.5 9.5t25 3q96 0 96 -138v-232h-56v222q0 48 -10.5 71t-42.5 23q-7 0 -16 -2.5t-16 -6t-15.5 -9t-13.5 -9.5t-11.5 -9t-7.5 -6v-274h-58z" />
    <glyph glyph-name="j.superior" unicode="&#x2b2;" horiz-adv-x="166" 
d="M11 271q-22 0 -42 9l10 50q17 -5 32 -5q23 0 32 20t9 62v369h57v-368q0 -137 -98 -137zM80 839l-44 50l44 49l45 -49z" />
    <glyph glyph-name="r.superior" unicode="&#x2b3;" horiz-adv-x="209" 
d="M47 416v360h58v-48q26 55 70 55q18 0 33 -5l-7 -58q-15 5 -33 5q-37 0 -63 -50v-259h-58z" />
    <glyph glyph-name="w.superior" unicode="&#x2b7;" horiz-adv-x="483" 
d="M95 416l-86 360h61l65 -315l66 315h83l55 -313l77 313h58l-100 -360h-76l-57 309l-67 -309h-79z" />
    <glyph glyph-name="y.superior" unicode="&#x2b8;" horiz-adv-x="288" 
d="M84 271l39 145h-21l-93 360h61l73 -306l79 306h58l-142 -505h-54z" />
    <glyph glyph-name="circumflex" unicode="&#x2c6;" horiz-adv-x="390" 
d="M339 676l-34 -46l-108 81l-110 -80l-35 45l144 113z" />
    <glyph glyph-name="caron" unicode="&#x2c7;" horiz-adv-x="390" 
d="M341 736l-148 -115l-139 112l37 48l105 -81l109 80z" />
    <glyph glyph-name="breve" unicode="&#x2d8;" horiz-adv-x="369" 
d="M331 722q-17 -26 -53 -50t-83 -24q-81 0 -133 73l40 42q45 -49 94 -49q53 0 95 46z" />
    <glyph glyph-name="dotaccent" unicode="&#x2d9;" horiz-adv-x="204" 
d="M161 715l-60 -60l-58 60l58 59z" />
    <glyph glyph-name="ring" unicode="&#x2da;" horiz-adv-x="395" 
d="M292 701q0 -39 -26.5 -62.5t-65.5 -23.5q-40 0 -67.5 21.5t-27.5 62.5t27.5 65t65.5 24q36 0 65 -22t29 -65zM246 700q0 19 -14.5 32.5t-33.5 13.5q-20 0 -33 -12.5t-13 -31.5q0 -20 13.5 -33.5t33.5 -13.5t33.5 13t13.5 32z" />
    <glyph glyph-name="ogonek" unicode="&#x2db;" horiz-adv-x="417" 
d="M374 -148l14 -52q-26 -17 -74 -17q-109 0 -109 101q0 84 155 161l30 -41q-85 -49 -105 -84q-9 -15 -9 -29q0 -47 55 -47q22 0 43 8z" />
    <glyph glyph-name="tilde" unicode="&#x2dc;" horiz-adv-x="390" 
d="M339 711q-38 -49 -86 -49q-21 0 -56 13t-52 13q-29 0 -57 -21l-30 41q42 44 95 44q23 0 54 -12.5t43 -12.5q11 0 20.5 3t14 5.5t12.5 8t9 6.5z" />
    <glyph glyph-name="hungarumlaut" unicode="&#x2dd;" horiz-adv-x="421" 
d="M396 731l-166 -121l-32 46l159 131zM221 762l-144 -147l-41 38l136 154z" />
    <glyph glyph-name="x.superior" unicode="&#x2e3;" horiz-adv-x="290" 
d="M11 416l102 185l-95 175h63l64 -133l64 133h62l-94 -175l102 -185h-66l-68 142l-71 -142h-63z" />
    <glyph glyph-name="Sigma" unicode="&#x3a3;" horiz-adv-x="396" 
d="M373 0h-346v73l130 280l-130 280v74h346v-72h-262l135 -283l-133 -278h260v-74z" />
    <glyph glyph-name="alpha" unicode="&#x3b1;" horiz-adv-x="447" 
d="M176 -9q-60 0 -101.5 59.5t-41.5 201.5q0 137 44 219.5t118 82.5q73 0 98 -75h3v67h68v-432q0 -31 12.5 -43t38.5 -15l-5 -62q-55 0 -81.5 22t-27.5 87h-2q-20 -52 -53.5 -82t-69.5 -30zM186 63q37 0 70.5 53t33.5 141v102q-35 128 -89 128q-49 0 -71 -65t-22 -168
q0 -92 20.5 -141.5t57.5 -49.5z" />
    <glyph glyph-name="beta" unicode="&#x3b2;" horiz-adv-x="452" 
d="M69 -220v765q0 103 42.5 166.5t119.5 63.5q66 0 108 -51t42 -131q0 -59 -26.5 -107t-70.5 -69v-3q55 -18 92 -69t37 -127q0 -112 -47.5 -170.5t-126.5 -58.5q-45 0 -95 21v-230h-75zM233 58q105 0 105 155q0 75 -36.5 115.5t-92.5 45.5v69q42 5 70 47t28 96t-21.5 87
t-55.5 33q-42 0 -64 -44t-22 -113v-472q44 -19 89 -19z" />
    <glyph glyph-name="gamma" unicode="&#x3b3;" horiz-adv-x="393" 
d="M153 -220q-7 67 -7 138q0 27 4 95q-22 151 -62.5 296.5t-78.5 236.5h81q26 -68 58 -187t52 -250h5q92 266 97 437h77q-6 -172 -150 -529q-7 -18 -10 -26q8 -75 8 -139q0 -24 -2 -72h-72z" />
    <glyph glyph-name="delta" unicode="&#x3b4;" horiz-adv-x="445" 
d="M221 -9q-83 0 -131.5 64.5t-48.5 192.5q0 168 120 267q-73 61 -73 121q0 70 44 104.5t103 34.5q81 0 145 -29l-12 -66q-70 26 -130 26q-33 0 -53 -19t-20 -47q0 -15 7.5 -30t22.5 -29.5t27.5 -24t33.5 -24.5t29 -21q56 -43 88.5 -101.5t32.5 -153.5q0 -135 -51.5 -200
t-133.5 -65zM226 60q105 0 105 194q0 45 -9 80.5t-28 61.5t-35.5 41.5t-43.5 36.5q-45 -36 -72 -87t-27 -137q0 -87 27 -138.5t83 -51.5z" />
    <glyph glyph-name="pi" unicode="&#x3c0;" horiz-adv-x="463" 
d="M397 -6q-88 0 -88 117v367h-163v-478h-76v478h-55v68h423v-68h-52v-366q0 -54 36 -54q16 0 23 1l3 -59q-28 -6 -51 -6z" />
    <glyph glyph-name="omega" unicode="&#x3c9;" horiz-adv-x="570" 
d="M180 -9q-69 0 -108 70.5t-39 176.5q0 184 97 308h79q-101 -123 -101 -301q0 -41 6 -79.5t25 -72t49 -33.5q27 0 43.5 40.5t16.5 109.5v154h73v-154q0 -68 18.5 -110t45.5 -42q42 0 59 58t17 129q0 175 -103 301h82q97 -121 97 -308q0 -106 -39 -176.5t-108 -70.5
q-72 0 -105 86q-33 -86 -105 -86z" />
    <glyph glyph-name="i.inferior" unicode="&#x1d62;" horiz-adv-x="167" 
d="M59 0v360h57v-360h-57zM87 423l-44 50l44 49l45 -49z" />
    <glyph glyph-name="r.inferior" unicode="&#x1d63;" horiz-adv-x="209" 
d="M47 0v360h58v-48q26 55 70 55q18 0 33 -5l-7 -58q-15 5 -33 5q-37 0 -63 -50v-259h-58z" />
    <glyph glyph-name="u.inferior" unicode="&#x1d64;" horiz-adv-x="332" 
d="M132 -8q-28 0 -46.5 12t-27 34t-11.5 43t-3 50v229h57v-219q0 -48 8.5 -71.5t36.5 -23.5q31 0 82 35v279h57v-360h-57v33q-48 -41 -96 -41z" />
    <glyph glyph-name="v.inferior" unicode="&#x1d65;" horiz-adv-x="289" 
d="M107 0l-98 360h60l75 -305l79 305h58l-104 -360h-70z" />
    <glyph glyph-name="uni1E46" unicode="&#x1e46;" horiz-adv-x="564" 
d="M350 -126l-60 -60l-58 60l58 59zM490 0h-92l-250 563h-4l8 -113v-450h-79v707h91l251 -572h4l-7 118v454h78v-707z" />
    <glyph glyph-name="uni1E47" unicode="&#x1e47;" horiz-adv-x="447" 
d="M288 -128l-60 -60l-58 60l58 59zM391 0h-76v345q0 75 -13 106.5t-57 31.5q-38 0 -109 -60v-423h-76v546h76v-60q4 7 19.5 22t46.5 32.5t61 17.5q35 0 60.5 -14t38 -33t19.5 -50t8.5 -53.5t1.5 -55.5v-352z" />
    <glyph glyph-name="uni1E62" unicode="&#x1e62;" horiz-adv-x="400" 
d="M373 185q0 -93 -56.5 -143.5t-137.5 -50.5q-85 0 -153 50l31 62q64 -40 121 -40q50 0 82 29.5t32 87.5q0 34 -18 63t-45 49t-58.5 45.5t-58.5 49.5t-45 63t-18 86q0 80 49 127.5t120 47.5q68 0 129 -33l-24 -62q-52 24 -102 24q-44 0 -68.5 -26.5t-24.5 -75.5
q0 -32 18 -61t45.5 -49.5t59 -46t59 -50.5t45.5 -63t18 -83zM258 -127l-60 -60l-58 60l58 59z" />
    <glyph glyph-name="uni1E63" unicode="&#x1e63;" horiz-adv-x="337" 
d="M312 151q0 -77 -48.5 -118t-111.5 -41q-68 0 -123 24l11 68q65 -23 107 -23q38 0 64 23t26 58q0 30 -20.5 54t-49 43t-57.5 40.5t-49.5 55t-20.5 77.5q0 70 40.5 107t106.5 37q48 0 102 -23l-12 -65q-50 21 -97 21q-31 0 -48.5 -19t-17.5 -50q0 -29 20.5 -54t49.5 -44
t58 -40.5t49.5 -55t20.5 -75.5zM227 -125l-60 -60l-58 60l58 59z" />
    <glyph glyph-name="Wgrave" unicode="&#x1e80;" horiz-adv-x="725" 
d="M727 707l-170 -707h-101l-82 338l-14 79h-3l-18 -78l-96 -339h-101l-143 707h81l102 -530l14 -103h3l21 101l103 354l-45 178h81l128 -532l18 -100h3l17 102l125 530h77zM429 744l-175 64l25 69l171 -84z" />
    <glyph glyph-name="wgrave" unicode="&#x1e81;" horiz-adv-x="629" 
d="M627 546l-138 -546h-93l-69 365l-11 85h-5l-12 -86l-79 -364h-91l-125 546h79l80 -383l10 -84h6l10 84l82 383h89l73 -379l10 -87h6l11 83l90 383h77zM407 660l-36 -47l-159 127l45 56z" />
    <glyph glyph-name="Wacute" unicode="&#x1e82;" horiz-adv-x="725" 
d="M475 808l-175 -64l-21 49l170 84zM727 707l-170 -707h-101l-82 338l-14 79h-3l-18 -78l-96 -339h-101l-143 707h81l102 -530l14 -103h3l21 101l103 354l-45 178h81l128 -532l18 -100h3l17 102l125 530h77z" />
    <glyph glyph-name="wacute" unicode="&#x1e83;" horiz-adv-x="629" 
d="M443 743l-156 -127l-38 45l148 138zM627 546l-138 -546h-93l-69 365l-11 85h-5l-12 -86l-79 -364h-91l-125 546h79l80 -383l10 -84h6l10 84l82 383h89l73 -379l10 -87h6l11 83l90 383h77z" />
    <glyph glyph-name="Wdieresis" unicode="&#x1e84;" horiz-adv-x="725" 
d="M489 799l-54 -55l-54 55l54 53zM336 799l-54 -55l-53 55l53 53zM727 707l-170 -707h-101l-82 338l-14 79h-3l-18 -78l-96 -339h-101l-143 707h81l102 -530l14 -103h3l21 101l103 354l-45 178h81l128 -532l18 -100h3l17 102l125 530h77z" />
    <glyph glyph-name="wdieresis" unicode="&#x1e85;" horiz-adv-x="629" 
d="M444 715l-54 -55l-53 55l53 53zM291 715l-54 -55l-53 55l53 53zM627 546l-138 -546h-93l-69 365l-11 85h-5l-12 -86l-79 -364h-91l-125 546h79l80 -383l10 -84h6l10 84l82 383h89l73 -379l10 -87h6l11 83l90 383h77z" />
    <glyph glyph-name="uni1EBC" unicode="&#x1ebc;" horiz-adv-x="419" 
d="M390 0h-317v707h301v-69h-222v-249h206v-68h-206v-250h238v-71zM365 807q-31 -45 -80 -45q-21 0 -57.5 11t-55.5 11q-26 0 -55 -20l-30 39q42 42 93 42q22 0 55 -11t46 -11q7 0 13 1.5t10.5 3t9 4.5t7 4.5t7 5.5t5.5 5z" />
    <glyph glyph-name="uni1EBD" unicode="&#x1ebd;" horiz-adv-x="393" 
d="M366 256h-257q0 -109 34 -150.5t101 -41.5q43 0 102 21l14 -67q-47 -27 -133 -27q-95 0 -144 62.5t-49 209.5q0 153 50 224.5t132 71.5q150 0 150 -272v-31zM287 320q0 80 -20 127t-60 47q-84 0 -97 -174h177zM351 711q-38 -49 -86 -49q-21 0 -56 13t-52 13
q-29 0 -57 -21l-30 41q42 44 95 44q23 0 54 -12.5t43 -12.5q11 0 20.5 3t14 5.5t12.5 8t9 6.5z" />
    <glyph glyph-name="Ygrave" unicode="&#x1ef2;" horiz-adv-x="411" 
d="M419 707l-179 -439v-268h-78v269l-170 438h88l93 -263l28 -92h4l28 91l101 264h85zM272 744l-175 64l25 69l171 -84z" />
    <glyph glyph-name="ygrave" unicode="&#x1ef3;" horiz-adv-x="373" 
d="M372 546l-195 -766h-76l53 220h-21l-130 546h81l85 -388l11 -87h6l12 86l95 389h79zM276 660l-36 -47l-159 127l45 56z" />
    <glyph glyph-name="uni2012" unicode="&#x2012;" horiz-adv-x="400" 
d="M0 267v67h400v-67h-400z" />
    <glyph glyph-name="endash" unicode="&#x2013;" horiz-adv-x="461" 
d="M431 252h-401v69h401v-69z" />
    <glyph glyph-name="emdash" unicode="&#x2014;" horiz-adv-x="661" 
d="M631 252h-601v69h601v-69z" />
    <glyph glyph-name="quoteleft" unicode="&#x2018;" horiz-adv-x="208" 
d="M164 755q-21 -70 -21 -122v-80h-75v53q0 67 32 149h64z" />
    <glyph glyph-name="quoteright" unicode="&#x2019;" horiz-adv-x="204" 
d="M140 702q0 -67 -32 -149h-64q22 73 22 122v80h74v-53z" />
    <glyph glyph-name="quotesinglbase" unicode="&#x201a;" horiz-adv-x="204" 
d="M140 27q0 -67 -32 -149h-64q22 73 22 106v96h74v-53z" />
    <glyph glyph-name="quotedblleft" unicode="&#x201c;" horiz-adv-x="323" 
d="M279 755q-21 -70 -21 -122v-80h-75v53q0 67 32 149h64zM154 755q-21 -70 -21 -122v-80h-75v53q0 67 32 149h64z" />
    <glyph glyph-name="quotedblright" unicode="&#x201d;" horiz-adv-x="321" 
d="M265 702q0 -67 -32 -149h-63q21 76 21 122v80h74v-53zM140 702q0 -67 -32 -149h-64q22 73 22 122v80h74v-53z" />
    <glyph glyph-name="quotedblbase" unicode="&#x201e;" horiz-adv-x="321" 
d="M273 27q0 -67 -32 -149h-64q22 73 22 106v96h74v-53zM148 27q0 -67 -32 -149h-64q21 70 21 106v96h75v-53z" />
    <glyph glyph-name="dagger" unicode="&#x2020;" horiz-adv-x="345" 
d="M326 502l-117 8l1 -510h-75l3 510l-119 -8v79l119 -7l-6 180h81l-5 -180l118 7v-79z" />
    <glyph glyph-name="daggerdbl" unicode="&#x2021;" horiz-adv-x="351" 
d="M330 172l-120 6l6 -178h-82l6 178l-119 -6v80l119 -8l1 132l-1 133l-119 -7v79l119 -6l-6 179h82l-6 -179l120 6v-79l-120 7v-265l120 8v-80z" />
    <glyph glyph-name="bullet" unicode="&#x2022;" horiz-adv-x="495" 
d="M393 352q0 -61 -42.5 -102.5t-102.5 -41.5q-61 0 -103 41t-42 103t42 103.5t103 41.5t103 -41t42 -104z" />
    <glyph glyph-name="ellipsis" unicode="&#x2026;" horiz-adv-x="554" 
d="M484 0h-86v90h86v-90zM320 0h-86v90h86v-90zM156 0h-86v90h86v-90z" />
    <glyph glyph-name="perthousand" unicode="&#x2030;" horiz-adv-x="849" 
d="M826 165q0 -80 -35.5 -127t-87.5 -47q-54 0 -86.5 39.5t-32.5 126.5q0 77 35 124t87 47q54 0 87 -40.5t33 -122.5zM265 551q0 -80 -35.5 -127t-87.5 -47q-54 0 -86.5 40t-32.5 126q0 77 35 124t87 47q54 0 87 -40.5t33 -122.5zM551 165q0 -80 -35.5 -127t-87.5 -47
q-54 0 -87 40t-33 126q0 77 35.5 124t87.5 47q54 0 87 -40.5t33 -122.5zM758 166q0 101 -52 101q-25 0 -41 -28.5t-16 -80.5q0 -50 14.5 -78t39.5 -28q24 0 39.5 28.5t15.5 85.5zM197 552q0 101 -52 101q-24 0 -40.5 -28.5t-16.5 -80.5q0 -50 14.5 -78t39.5 -28
q24 0 39.5 28.5t15.5 85.5zM482 166q0 101 -51 101q-25 0 -41 -28.5t-16 -80.5q0 -50 14.5 -78t39.5 -28q23 0 38.5 29t15.5 85zM528 626l-438 -599l-47 41l438 598z" />
    <glyph glyph-name="guilsinglleft" unicode="&#x2039;" horiz-adv-x="207" 
d="M182 469l-82 -197l81 -194l-59 -24l-100 218l101 219z" />
    <glyph glyph-name="guilsinglright" unicode="&#x203a;" horiz-adv-x="207" 
d="M185 272l-101 -221l-59 24l82 197l-81 193l59 25z" />
    <glyph glyph-name="fraction" unicode="&#x2044;" horiz-adv-x="271" 
d="M384 613l-442 -556l-39 31l444 558z" />
    <glyph glyph-name="fraction" unicode="&#x2215;" horiz-adv-x="271" 
d="M384 613l-442 -556l-39 31l444 558z" />
    <glyph glyph-name="zerosuperior" unicode="&#x2070;" horiz-adv-x="277" 
d="M137 411q-115 0 -115 183q0 83 28 138t93 55q113 0 113 -182q0 -194 -119 -194zM138 461q27 0 41.5 23t17.5 49.5t3 67.5q0 133 -59 133q-21 0 -34.5 -12t-19.5 -35t-7.5 -43.5t-1.5 -49.5q0 -133 60 -133z" />
    <glyph glyph-name="i.superior" unicode="&#x2071;" horiz-adv-x="167" 
d="M59 414v360h57v-360h-57zM87 837l-44 50l44 49l45 -49z" />
    <glyph glyph-name="foursuperior" unicode="&#x2074;" horiz-adv-x="254" 
d="M140 415v89h-124v53l101 224h78v-229h47v-48h-47v-89h-55zM59 552h81v176z" />
    <glyph glyph-name="fivesuperior" unicode="&#x2075;" horiz-adv-x="246" 
d="M114 408q-32 0 -80 13l12 51q39 -13 67 -13q24 0 36.5 18t12.5 46q0 67 -49 67q-26 0 -67 -4v195h165v-51h-114v-91q1 0 9 0.5t16 0.5q44 0 71 -29t27 -82q0 -56 -30 -88.5t-76 -32.5z" />
    <glyph glyph-name="sixsuperior" unicode="&#x2076;" horiz-adv-x="258" 
d="M135 409q-53 0 -79.5 36.5t-26.5 124.5q0 101 37 159t97 58q28 0 59 -12l-12 -50q-23 9 -49 9q-60 0 -74 -108q29 17 55 17q44 0 69 -28t25 -81q0 -61 -29 -93t-72 -32zM137 458q20 0 31 20t11 51q0 67 -43 67q-19 0 -49 -14q0 -73 9.5 -98.5t40.5 -25.5z" />
    <glyph glyph-name="sevensuperior" unicode="&#x2077;" horiz-adv-x="209" 
d="M67 404l-53 20l129 302h-140v55h198v-46z" />
    <glyph glyph-name="eightsuperior" unicode="&#x2078;" horiz-adv-x="258" 
d="M127 410q-105 0 -105 98q0 58 53 103q-43 30 -43 82q0 43 28.5 68.5t70.5 25.5q45 0 70.5 -24t25.5 -64q0 -55 -53 -90q62 -39 62 -94q0 -51 -30 -78t-79 -27zM128 451q24 0 38 18t14 49q0 11 -4.5 20.5t-17.5 19.5t-20 14l-28 16q-33 -24 -33 -74q0 -63 51 -63zM137 630
q36 30 36 63q0 50 -43 50q-46 0 -46 -54q0 -29 53 -59z" />
    <glyph glyph-name="ninesuperior" unicode="&#x2079;" horiz-adv-x="257" 
d="M103 409q-31 0 -60 12l13 48q23 -9 49 -9q61 0 72 110q-26 -18 -53 -18q-44 0 -69.5 28t-25.5 82q0 60 29 92.5t72 32.5q54 0 80.5 -36.5t26.5 -125.5q0 -100 -37 -158t-97 -58zM130 600q26 0 49 13q0 73 -10 99t-41 26q-20 0 -30.5 -19t-10.5 -50q0 -69 43 -69z" />
    <glyph glyph-name="plussuperior" unicode="&#x207a;" horiz-adv-x="339" 
d="M139 462v111l-111 -1v53h111v114h54v-115l118 1v-53l-118 1v-111h-54z" />
    <glyph glyph-name="minussuperior" unicode="&#x207b;" horiz-adv-x="336" 
d="M28 574v53h280v-53h-280z" />
    <glyph glyph-name="equalsuperior" unicode="&#x207c;" horiz-adv-x="336" 
d="M28 507v53h280v-53h-280zM28 639v53h280v-53h-280z" />
    <glyph glyph-name="parenleftsuperior" unicode="&#x207d;" horiz-adv-x="208" 
d="M156 270q-5 4 -13 13t-29 39.5t-37 66.5t-29 94t-13 122t12.5 120.5t30.5 91.5t35.5 60.5t30.5 36.5l12 11l36 -43q-4 -3 -10.5 -10t-23 -32t-29.5 -54t-23.5 -78t-10.5 -102q0 -54 10 -104t24.5 -83t28.5 -58.5t24 -36.5l10 -12z" />
    <glyph glyph-name="parenrightsuperior" unicode="&#x207e;" horiz-adv-x="208" 
d="M52 270l-36 42q4 4 10.5 12t23 36t29 59.5t23 82t10.5 104.5q0 53 -10 101.5t-24 79t-28 53t-24 32.5l-10 10l36 43q5 -4 13 -11.5t29 -35.5t37 -61.5t29 -90.5t13 -121t-12.5 -121.5t-30 -95t-35.5 -65.5t-31 -41z" />
    <glyph glyph-name="n.superior" unicode="&#x207f;" horiz-adv-x="331" 
d="M47 416v360h58v-38q45 48 93 48q29 0 48.5 -11.5t27.5 -34t11 -43t3 -49.5v-232h-57v222q0 48 -9 71t-37 23q-37 0 -80 -43v-273h-58z" />
    <glyph glyph-name="zeroinferior" unicode="&#x2080;" horiz-adv-x="277" 
d="M137 -5q-115 0 -115 183q0 83 28 138t93 55q113 0 113 -182q0 -194 -119 -194zM138 46q27 0 41.5 23t17.5 49t3 67q0 133 -59 133q-21 0 -34.5 -12t-19.5 -35t-7.5 -43t-1.5 -49q0 -133 60 -133z" />
    <glyph glyph-name="oneinferior" unicode="&#x2081;" horiz-adv-x="193" 
d="M83 0v314h-63v51l120 4v-369h-57z" />
    <glyph glyph-name="twoinferior" unicode="&#x2082;" horiz-adv-x="235" 
d="M13 0v49q82 79 103 106q39 51 39 100q0 61 -43 61q-42 0 -68 -34l-22 40q36 49 95 49q40 0 67 -29.5t27 -80.5q0 -34 -11.5 -64t-35 -58t-40.5 -44t-48 -42h138v-53h-201z" />
    <glyph glyph-name="threeinferior" unicode="&#x2083;" horiz-adv-x="231" 
d="M103 -5q-48 0 -82 16l10 49q38 -14 67 -14q59 0 59 58q0 36 -18 50t-60 17v39q34 5 49.5 20t15.5 45q0 47 -42 47q-26 0 -54 -17l-12 41q35 25 74 25t64 -24t25 -64q0 -61 -47 -86q29 -8 45.5 -34t16.5 -59q0 -56 -32 -82.5t-79 -26.5z" />
    <glyph glyph-name="fourinferior" unicode="&#x2084;" horiz-adv-x="254" 
d="M140 0v88h-124v54l101 224h78v-229h47v-49h-47v-88h-55zM59 137h81v176z" />
    <glyph glyph-name="fiveinferior" unicode="&#x2085;" horiz-adv-x="246" 
d="M114 -8q-36 0 -80 14l12 51q39 -13 67 -13q24 0 36.5 17.5t12.5 46.5q0 67 -49 67q-15 0 -67 -5v196h165v-51h-114v-92q1 0 9 0.5t16 0.5q44 0 71 -29t27 -81q0 -56 -30 -89t-76 -33z" />
    <glyph glyph-name="sixinferior" unicode="&#x2086;" horiz-adv-x="258" 
d="M135 -7q-53 0 -79.5 37t-26.5 125q0 100 37 158t97 58q32 0 59 -12l-12 -49q-29 9 -49 9q-60 0 -74 -109q31 18 55 18q44 0 69 -28t25 -82q0 -60 -29 -92.5t-72 -32.5zM137 42q20 0 31 20t11 51q0 67 -43 67q-21 0 -49 -13q0 -74 9.5 -99.5t40.5 -25.5z" />
    <glyph glyph-name="seveninferior" unicode="&#x2087;" horiz-adv-x="209" 
d="M67 -12l-53 21l129 302h-140v55h198v-46z" />
    <glyph glyph-name="eightinferior" unicode="&#x2088;" horiz-adv-x="258" 
d="M127 -6q-48 0 -76.5 24t-28.5 74q0 58 53 103q-43 32 -43 83q0 44 28.5 69t70.5 25q45 0 70.5 -24t25.5 -64q0 -55 -53 -90q62 -39 62 -95q0 -51 -30 -78t-79 -27zM128 36q24 0 38 18t14 49q0 11 -4.5 20.5t-17.5 19.5t-20 14l-28 16q-33 -26 -33 -74q0 -63 51 -63z
M137 215q36 29 36 63q0 50 -43 50q-46 0 -46 -54q0 -29 53 -59z" />
    <glyph glyph-name="nineinferior" unicode="&#x2089;" horiz-adv-x="257" 
d="M103 -7q-27 0 -60 12l13 49q23 -9 49 -9q61 0 72 109q-25 -17 -53 -17q-44 0 -69.5 28t-25.5 81q0 61 29 93t72 32q54 0 80.5 -36t26.5 -125q0 -101 -37 -159t-97 -58zM130 184q24 0 49 14q0 72 -10 98t-41 26q-20 0 -30.5 -19t-10.5 -49q0 -70 43 -70z" />
    <glyph glyph-name="plus.inferior" unicode="&#x208a;" horiz-adv-x="339" 
d="M139 63v111l-111 -1v53h111v114h54v-115l118 1v-53l-118 1v-111h-54z" />
    <glyph glyph-name="minus.inferior" unicode="&#x208b;" horiz-adv-x="336" 
d="M28 172v53h280v-53h-280z" />
    <glyph glyph-name="equal.inferior" unicode="&#x208c;" horiz-adv-x="336" 
d="M28 105v53h280v-53h-280zM28 237v53h280v-53h-280z" />
    <glyph glyph-name="parenleft.inferior" unicode="&#x208d;" horiz-adv-x="208" 
d="M156 -147q-5 4 -13 13t-29 39.5t-37 66.5t-29 94t-13 122t12.5 120.5t30.5 91.5t35.5 60.5t30.5 36.5l12 11l36 -43q-4 -3 -10.5 -10t-23 -32t-29.5 -54t-23.5 -78t-10.5 -102q0 -54 10 -104t24.5 -83t28.5 -58.5t24 -37.5l10 -11z" />
    <glyph glyph-name="parenright.inferior" unicode="&#x208e;" horiz-adv-x="208" 
d="M52 -147l-36 42q4 4 10.5 12t23 36t29 59.5t23 82t10.5 104.5q0 53 -10 101.5t-24 79t-28 53t-24 32.5l-10 10l36 43q5 -4 13 -11.5t29 -35.5t37 -61.5t29 -90.5t13 -121t-12.5 -121.5t-30 -95t-35.5 -65.5t-31 -40z" />
    <glyph glyph-name="colonsign" unicode="&#x20a1;" horiz-adv-x="554" 
d="M26 -75l71 175q-63 97 -63 249q0 165 71.5 265.5t196.5 100.5q19 0 45 -2l36 87h48l-39 -95q26 -5 64 -27l49 122h49l-295 -726q30 -10 57 -10q58 0 129 27l15 -68q-62 -33 -157 -33q-33 0 -75 11l-31 -76h-49l38 93q-31 16 -56 42l-55 -135h-49zM114 359q0 -90 26 -155
l176 435q-5 1 -19 1q-77 0 -130 -71.5t-53 -209.5zM166 147q26 -37 51 -54l211 520q-38 16 -65 21z" />
    <glyph glyph-name="cruzeiro" unicode="&#x20a2;" horiz-adv-x="502" 
d="M487 466l-10 -72q-25 9 -55 9q-27 0 -51.5 -23.5t-38.5 -54.5v-260h1q83 2 142 27l16 -63q-75 -39 -183 -39q-131 0 -202.5 99t-71.5 260q0 166 73 266t203 100q101 0 178 -41l-17 -65q-73 31 -161 31q-86 0 -141 -70.5t-55 -210.5q0 -118 38 -189t103 -94v390h77v-65h3
q35 75 96 75q33 0 56 -10z" />
    <glyph glyph-name="franc" unicode="&#x20a3;" horiz-adv-x="554" 
d="M562 405l-10 -73q-23 10 -54 10q-28 0 -52 -23t-39 -56v-263h-76v334h-179v-334h-79v707h362v-69h-283v-234h255v-64h3q38 74 97 74q37 0 55 -9z" />
    <glyph glyph-name="lira" unicode="&#x20a4;" horiz-adv-x="367" 
d="M37 0v70q28 13 44 76t17 106h-74v67h79q0 9 0.5 30.5t0.5 33.5h-80v67h80q0 68 1 71q1 52 15 88.5t33.5 55t46 28.5t48 12.5t44.5 3.5h12l3 -67q-63 -7 -81 -16q-49 -23 -48 -115v-61h139v-67h-140q0 -35 -3 -64h143v-67h-147q-12 -123 -53 -183h245v-69h-325z" />
    <glyph glyph-name="mill" unicode="&#x20a5;" horiz-adv-x="684" 
d="M119 -134l186 465v39q0 61 -12.5 87t-52.5 26q-11 0 -23.5 -4.5t-25.5 -12.5t-21.5 -14.5t-20 -16t-13.5 -11.5v-424h-76v546h76v-59q4 6 19.5 21.5t46 33t57.5 17.5q82 0 108 -77l105 259h53l-82 -202q36 20 63 20q29 0 51 -8.5t35 -26.5t21 -35t11 -46t3.5 -45.5
t0.5 -46.5v-351h-75v347q0 31 -1 48.5t-4.5 37t-10.5 28.5t-19 15.5t-31 6.5q-30 0 -83 -39l-23 -59v-385h-76v211l-134 -345h-52z" />
    <glyph glyph-name="naira" unicode="&#x20a6;" horiz-adv-x="563" 
d="M490 0h-113l-97 255h-129v-255h-78v255h-65v50h65v116h-65v50h65v236h103l90 -236h145v236h79v-236h65v-50h-65v-116h65v-50h-65v-255zM285 421l45 -116h81v116h-126zM150 421l1 -116h111l-44 116h-68zM414 101l-2 51v103h-63l61 -154h4zM150 551v-80h49l-48 124h-4z" />
    <glyph glyph-name="pesetas" unicode="&#x20a7;" horiz-adv-x="1055" 
d="M419 483q0 -99 -56.5 -163.5t-161.5 -64.5h-17v72h22q57 0 94 38.5t37 112.5q0 76 -30.5 117t-84.5 41h-71v-636h-78v707h156q88 0 139 -59t51 -165zM1015 151q0 -77 -48.5 -118t-111.5 -41q-68 0 -123 24l11 68q65 -23 107 -23q38 0 64 23t26 58q0 30 -20.5 54t-49 43
t-57.5 40.5t-49.5 55t-20.5 77.5q0 70 40.5 107t106.5 37q48 0 102 -23l-12 -65q-50 21 -97 21q-31 0 -48.5 -19t-17.5 -50q0 -29 20.5 -54t49.5 -44t58 -40.5t49.5 -55t20.5 -75.5zM716 13q-42 -19 -81 -19q-38 0 -60.5 5t-42.5 21t-28.5 49t-8.5 87v323h-58v67h58v112h74
v-112h121v-67h-121v-327q0 -51 14.5 -70t51.5 -19q40 0 70 15z" />
    <glyph glyph-name="rupee" unicode="&#x20a8;" horiz-adv-x="750" 
d="M337 490q0 146 -107 146h-79v-289h62q124 0 124 143zM540 -8q-69 0 -119 26t-84 93l-84 171q-18 -4 -62 -4h-40v-278h-78v707h172q80 0 127 -53.5t47 -158.5q0 -136 -94 -190l73 -139q54 -107 134 -107q54 0 86 23t32 60q0 30 -20 54t-48 42t-56 38.5t-48 53.5t-20 77
q0 71 38.5 110.5t103.5 39.5q54 0 102 -24l-12 -66q-46 21 -97 21q-30 0 -46.5 -21t-16.5 -53q0 -29 20 -53t48 -42.5t56.5 -38.5t48.5 -53t20 -75q0 -81 -57 -120.5t-126 -39.5z" />
    <glyph glyph-name="won" unicode="&#x20a9;" horiz-adv-x="749" 
d="M3 507h51l-40 200h81l38 -200h199l6 22l-45 178h81l47 -200h197l47 200h77l-48 -200h52v-56h-65l-28 -112h93v-56h-106l-68 -283h-101l-69 283h-65l-79 -283h-101l-57 283h-97v56h85l-23 112h-62v56zM142 451l23 -112h117l33 112h-173zM435 451l27 -112h117l26 112h-170z
M214 74l19 82l34 127h-93l24 -124l13 -85h3zM523 75l16 84l27 124h-91l30 -124l15 -84h3zM356 356l-4 -17h38l-4 16l-11 62h-3z" />
    <glyph glyph-name="sheqel" unicode="&#x20aa;" horiz-adv-x="719" 
d="M88 0v707h181q42 0 72 -5.5t52.5 -14.5t37 -29t23.5 -41t13 -58.5t5.5 -73t1.5 -92.5v-152h-75v152v64q0 51 -3.5 79t-15.5 54.5t-38.5 37.5t-70.5 11h-108v-639h-75zM245 0v467h76v-398h107q44 0 70.5 11t38.5 37.5t15.5 54.5t3.5 79v64v392h76v-392q0 -57 -1.5 -92.5
t-5.5 -73.5t-13 -58.5t-23.5 -40.5t-37 -29.5t-53 -15t-72.5 -5.5h-181z" />
    <glyph glyph-name="dong" unicode="&#x20ab;" horiz-adv-x="430" 
d="M192 96q-158 0 -158 228q0 112 51.5 174.5t135.5 62.5h13.5t11 -1t8 -1t8 -2t7 -2.5t9.5 -3.5t10 -4v73h-110v54h110v80h77v-80h58v-54h-58v-516h-77v46q-43 -54 -96 -54zM202 163q39 0 86 50v266q-3 1 -10 4.5t-11 5t-11 3.5t-16 3t-20 1q-58 0 -84.5 -49.5
t-26.5 -123.5q0 -160 93 -160zM52 0v49h313v-49h-313z" />
    <glyph glyph-name="Euro" unicode="&#x20ac;" horiz-adv-x="403" 
d="M378 21q-56 -31 -129 -31q-80 0 -133.5 50t-72.5 136h-45v55h37q-1 13 -1 38q0 35 2 51h-38v55h47q20 84 72 132t130 48q64 0 130 -35l-16 -64q-67 30 -113 30q-95 0 -126 -111h181v-55h-191q-2 -28 -2 -43q0 -16 2 -46h191v-55h-180q16 -60 52 -89.5t84 -29.5
q46 0 105 27z" />
    <glyph glyph-name="uni20AD" unicode="&#x20ad;" horiz-adv-x="451" 
d="M17 410h56v297h79v-297h21l185 297h92l-195 -297h166v-65h-166l209 -345h-98l-197 345h-17v-345h-79v345h-56v65z" />
    <glyph glyph-name="uni20AE" unicode="&#x20ae;" horiz-adv-x="410" 
d="M59 197l107 73v101l-107 -72v62l107 72v202h-172v72h422v-72h-171v-152l107 72v-62l-107 -72v-102l107 72v-66l-107 -72v-253h-79v203l-107 -72v66z" />
    <glyph glyph-name="uni20B1" unicode="&#x20b1;" horiz-adv-x="467" 
d="M10 574h63v133h156q66 0 112 -34.5t66 -98.5h71v-51h-61q2 -26 2 -41q0 -24 -1 -34h60v-52h-71q-21 -65 -73.5 -103t-132.5 -38h-17v72h22q84 0 116 69h-171v-396h-78v396h-63v52h63v75h-63v51zM151 448h185q1 9 1 29q0 34 -3 46h-183v-75zM151 636v-62h169
q-30 62 -98 62h-71z" />
    <glyph glyph-name="afii61289" unicode="&#x2113;" horiz-adv-x="336" 
d="M178 -12q-48 0 -68 39.5t-20 124.5v117q-5 -4 -13.5 -12.5t-15.5 -15t-14 -12.5l-23 40q37 35 66 67v187q0 126 30 178.5t87 52.5q82 0 82 -120q0 -147 -134 -311v-153q0 -74 7 -97.5t32 -23.5q35 0 56 37l24 -30q-39 -68 -96 -68zM155 562v-164q75 108 75 221
q0 30 -1.5 45t-8.5 26.5t-22 11.5q-24 0 -33.5 -32.5t-9.5 -107.5z" />
    <glyph glyph-name="afii61352" unicode="&#x2116;" horiz-adv-x="738" 
d="M431 0h-102l-197 441l4 -56v-385h-76v546h96l202 -449l-3 64v385h76v-546zM714 360q0 -64 -34 -100.5t-83 -36.5q-51 0 -82 36.5t-31 97.5q0 64 32.5 101.5t82.5 37.5q53 0 84 -36.5t31 -99.5zM714 81h-230v59h230v-59zM649 360q0 85 -51 85q-26 0 -38.5 -25.5
t-12.5 -60.5q0 -84 51 -84t51 85z" />
    <glyph glyph-name="uni2117" unicode="&#x2117;" horiz-adv-x="615" 
d="M577 353q0 -164 -73.5 -264.5t-202.5 -100.5q-125 0 -193.5 101.5t-68.5 265.5q0 165 75 262.5t201 97.5q123 0 192.5 -102t69.5 -260zM517 354q0 138 -56.5 223t-153.5 85q-99 0 -154 -83t-55 -223q0 -136 54 -224.5t152 -88.5q105 0 159 85.5t54 225.5zM437 424
q0 -67 -36 -98t-97 -31h-23v-153h-62v415h109q51 0 80 -35t29 -98zM375 421q0 84 -56 84h-38v-158h29q65 0 65 74z" />
    <glyph glyph-name="servicemark" unicode="&#x2120;" horiz-adv-x="636" 
d="M120 350q-62 0 -95 15l7 48q47 -14 81 -14q56 0 56 50q0 18 -14 32t-34 25t-39.5 23.5t-33.5 33.5t-14 50q0 49 30 75.5t74 26.5q46 0 78 -16l-9 -49q-34 16 -69 16q-47 0 -47 -45q0 -21 21.5 -39t48 -30.5t48 -37.5t21.5 -58q0 -56 -33.5 -81t-76.5 -25zM551 352h-61
v183l5 97h-6l-59 -155h-59l-48 148h-7l5 -92v-181h-59v355h83l57 -168h3l63 168h83v-355z" />
    <glyph glyph-name="trademark" unicode="&#x2122;" horiz-adv-x="590" 
d="M551 352h-61v183l5 97h-6l-59 -155h-59l-48 148h-7l5 -92v-181h-59v355h83l57 -168h3l63 168h83v-355zM243 642h-82v-290h-62v290h-85v65h229v-65z" />
    <glyph glyph-name="Omega" unicode="&#x2126;" horiz-adv-x="588" 
d="M581 0h-240v77q131 129 131 287q0 123 -48 203t-130 80q-87 0 -130.5 -77.5t-43.5 -203.5q0 -91 30 -155.5t99 -133.5v-77h-239v73h158q-24 21 -39 38.5t-39 53.5t-36.5 87t-12.5 113q0 164 68 258.5t189 94.5q123 0 187.5 -99t64.5 -256q0 -90 -40 -168t-88 -122h159
v-73z" />
    <glyph glyph-name="estimated" unicode="&#x212e;" horiz-adv-x="475" 
d="M247 -8q-96 0 -157 72.5t-61 199.5q0 128 61 212t158 84q90 0 144.5 -63.5t54.5 -178.5v-51h-330v-65q0 -57 39.5 -105t94.5 -48q91 0 148 96l32 -31q-62 -122 -184 -122zM117 317h243v28q0 165 -112 165q-60 0 -95.5 -44.5t-35.5 -120.5v-28z" />
    <glyph glyph-name="uni2139" unicode="&#x2139;" horiz-adv-x="800" 
d="M400 -8q-149 0 -255.5 106t-106.5 256q0 149 106.5 255.5t255.5 106.5t255.5 -106.5t106.5 -255.5q0 -150 -106.5 -256t-255.5 -106zM400 48q127 0 216 89.5t90 216.5q0 127 -89.5 216.5t-216.5 89.5t-216.5 -89.5t-89.5 -216.5t89.5 -216.5t216.5 -89.5zM400 454
q-31 0 -53 21.5t-22 53.5q0 30 22.5 51t52.5 21t52.5 -21t22.5 -51q0 -32 -22 -53.5t-53 -21.5zM328 140v280h143v-280h-143z" />
    <glyph glyph-name="uni213B" unicode="&#x213b;" horiz-adv-x="804" 
d="M754 0h-704v309h111v344h309l175 -175v-169h109v-309zM585 483l-109 110v-110h109zM606 309v135h-170v170h-236v-305h406zM715 39l-1 231h-625v-231h626zM390 529h-144v39h144v-39zM560 360h-314v38h314v-38zM390 444h-144v39h144v-39zM390 80h-144v39h144v-39z" />
    <glyph glyph-name="onethird" unicode="&#x2153;" horiz-adv-x="599" 
d="M457 -8q-48 0 -82 16l10 49q38 -14 67 -14q59 0 59 58q0 36 -18 50t-60 17v39q34 5 49.5 20t15.5 45q0 47 -42 47q-26 0 -54 -17l-12 41q35 25 74 25t64 -24t25 -64q0 -61 -47 -86q29 -8 45.5 -34t16.5 -59q0 -56 -32 -82.5t-79 -26.5zM521 613l-442 -556l-39 31l444 558
zM100 411v314h-63v50l120 5v-369h-57z" />
    <glyph glyph-name="twothirds" unicode="&#x2154;" horiz-adv-x="615" 
d="M473 -5q-48 0 -82 16l10 49q38 -14 67 -14q59 0 59 58q0 36 -18 50t-60 17v39q34 5 49.5 20t15.5 45q0 47 -42 47q-26 0 -54 -17l-12 41q35 25 74 25t64 -24t25 -64q0 -61 -47 -86q29 -8 45.5 -34t16.5 -59q0 -56 -32 -82.5t-79 -26.5zM30 415v50q82 77 104 106
q38 51 38 100q0 29 -11.5 45t-31.5 16q-41 0 -68 -34l-22 39q37 50 95 50q40 0 67 -29.5t27 -80.5q0 -34 -11.5 -64.5t-35 -58t-41 -44.5t-47.5 -41h138v-54h-201zM558 613l-442 -556l-39 31l444 558z" />
    <glyph glyph-name="uni215B" unicode="&#x215b;" horiz-adv-x="578" 
d="M107 411v314h-63v50l120 5v-369h-57zM511 636l-442 -556l-39 31l444 558zM438 -6q-48 0 -76.5 24t-28.5 74q0 58 53 103q-43 32 -43 83q0 44 28.5 69t70.5 25q45 0 70.5 -24t25.5 -64q0 -55 -53 -90q62 -39 62 -95q0 -51 -30 -78t-79 -27zM439 36q24 0 38 18t14 49
q0 11 -4.5 20.5t-17.5 19.5t-20 14l-28 16q-33 -26 -33 -74q0 -63 51 -63zM448 215q36 29 36 63q0 50 -43 50q-46 0 -46 -54q0 -29 53 -59z" />
    <glyph glyph-name="threesup_fraction_eightinf" unicode="&#x215c;" horiz-adv-x="627" 
d="M112 410q-42 0 -82 16l10 49q41 -13 67 -13q59 0 59 57q0 36 -18 50t-60 18v39q34 4 49.5 19t15.5 45q0 47 -42 47q-26 0 -54 -17l-12 41q36 26 74 26q39 0 64 -24t25 -65q0 -61 -47 -86q29 -8 45.5 -33.5t16.5 -58.5q0 -56 -32 -83t-79 -27zM535 613l-442 -556l-39 31
l444 558zM482 -6q-48 0 -76.5 24t-28.5 74q0 58 53 103q-43 32 -43 83q0 44 28.5 69t70.5 25q45 0 70.5 -24t25.5 -64q0 -55 -53 -90q62 -39 62 -95q0 -51 -30 -78t-79 -27zM483 36q24 0 38 18t14 49q0 11 -4.5 20.5t-17.5 19.5t-20 14l-28 16q-33 -26 -33 -74q0 -63 51 -63
zM492 215q36 29 36 63q0 50 -43 50q-46 0 -46 -54q0 -29 53 -59z" />
    <glyph glyph-name="fivesup_fraction_eightinf" unicode="&#x215d;" horiz-adv-x="624" 
d="M527 613l-442 -556l-39 31l444 558zM478 -6q-48 0 -76.5 24t-28.5 74q0 58 53 103q-43 32 -43 83q0 44 28.5 69t70.5 25q45 0 70.5 -24t25.5 -64q0 -55 -53 -90q62 -39 62 -95q0 -51 -30 -78t-79 -27zM479 36q24 0 38 18t14 49q0 11 -4.5 20.5t-17.5 19.5t-20 14l-28 16
q-33 -26 -33 -74q0 -63 51 -63zM488 215q36 29 36 63q0 50 -43 50q-46 0 -46 -54q0 -29 53 -59zM127 408q-32 0 -80 13l12 51q39 -13 67 -13q24 0 36.5 18t12.5 46q0 67 -49 67q-26 0 -67 -4v195h165v-51h-114v-91q1 0 9 0.5t16 0.5q44 0 71 -29t27 -82q0 -56 -30 -88.5
t-76 -32.5z" />
    <glyph glyph-name="sevensup_fraction_eightinf" unicode="&#x215e;" horiz-adv-x="624" 
d="M519 613l-442 -556l-39 31l444 558zM478 -6q-48 0 -76.5 24t-28.5 74q0 58 53 103q-43 32 -43 83q0 44 28.5 69t70.5 25q45 0 70.5 -24t25.5 -64q0 -55 -53 -90q62 -39 62 -95q0 -51 -30 -78t-79 -27zM479 36q24 0 38 18t14 49q0 11 -4.5 20.5t-17.5 19.5t-20 14l-28 16
q-33 -26 -33 -74q0 -63 51 -63zM488 215q36 29 36 63q0 50 -43 50q-46 0 -46 -54q0 -29 53 -59zM126 404l-53 20l129 302h-140v55h198v-46z" />
    <glyph glyph-name="arrowleft" unicode="&#x2190;" horiz-adv-x="611" 
d="M221 109l-184 192l183 191l42 -48l-100 -110h411l-1 -66h-411l102 -113z" />
    <glyph glyph-name="arrowup" unicode="&#x2191;" horiz-adv-x="611" 
d="M113 408l193 184l190 -183l-48 -42l-109 99v-409h-67v411l-112 -102z" />
    <glyph glyph-name="arrowright" unicode="&#x2192;" horiz-adv-x="611" 
d="M390 493l183 -192l-184 -192l-42 47l100 111h-410v67h409l-99 110z" />
    <glyph glyph-name="arrowdown" unicode="&#x2193;" horiz-adv-x="611" 
d="M498 185l-194 -184l-192 182l49 43l109 -98v408h68v-411l111 103z" />
    <glyph glyph-name="uni2196" unicode="&#x2196;" horiz-adv-x="611" 
d="M104 248v266h265v-65h-152l290 -288l-49 -49l-289 291v-155h-65z" />
    <glyph glyph-name="uni2197" unicode="&#x2197;" horiz-adv-x="611" 
d="M241 515h265v-266h-65v154l-288 -291l-49 49l290 288h-153v66z" />
    <glyph glyph-name="uni2198" unicode="&#x2198;" horiz-adv-x="611" 
d="M507 309v-267h-265v66h151l-290 288l50 48l288 -291v156h66z" />
    <glyph glyph-name="uni2199" unicode="&#x2199;" horiz-adv-x="611" 
d="M370 43h-266v265h66v-151l287 290l49 -51l-291 -287h155v-66z" />
    <glyph glyph-name="home" unicode="&#x21b8;" horiz-adv-x="780" 
d="M730 400h-92v-400h-491v400h-97l340 270zM623 436l-234 183l-236 -183h470zM599 39v361h-413v-361h231v253h116v-253h66zM353 176h-116v116h116v-116z" />
    <glyph glyph-name="partialdiff" unicode="&#x2202;" horiz-adv-x="413" 
d="M380 326q0 -339 -178 -339q-79 0 -124 48.5t-45 175.5q0 90 46 159.5t124 69.5q44 0 89 -14q-23 172 -168 227l25 70q33 -13 60 -28t60.5 -46.5t56 -71.5t38.5 -105.5t16 -145.5zM302 318v36q-54 14 -101 14q-45 0 -69.5 -47.5t-24.5 -119.5q0 -64 24 -105.5t66 -41.5
q105 0 105 264z" />
    <glyph glyph-name="Delta" unicode="&#x2206;" horiz-adv-x="489" 
d="M488 0h-487l206 707h98zM389 69l-121 497l-12 75h-3l-14 -75l-139 -497h289z" />
    <glyph glyph-name="product" unicode="&#x220f;" horiz-adv-x="508" 
d="M512 638h-71v-858h-80v858h-214v-858h-79v858h-71v69h515v-69z" />
    <glyph glyph-name="summation" unicode="&#x2211;" horiz-adv-x="361" 
d="M352 -220h-337v73l138 390l-139 390v74h338v-72h-253l139 -393l-137 -388h251v-74z" />
    <glyph glyph-name="minus" unicode="&#x2212;" horiz-adv-x="339" 
d="M318 252h-297v71h297v-71z" />
    <glyph glyph-name="radical" unicode="&#x221a;" horiz-adv-x="450" 
d="M461 837l-182 -837h-96l-89 476h-100v68h163l68 -394l6 -74h3l8 71l143 690h76z" />
    <glyph glyph-name="infinity" unicode="&#x221e;" horiz-adv-x="710" 
d="M670 294q0 -67 -36 -114.5t-101 -47.5q-26 0 -55 14.5t-43 25t-48.5 43t-36.5 34.5l-11.5 -11.5l-14.5 -14.5t-15.5 -15t-18 -16.5t-18.5 -15t-20.5 -15t-20 -12.5t-21 -10.5t-20.5 -6t-21 -2.5q-65 0 -97.5 45t-32.5 111q0 71 35.5 116t98.5 45q26 0 55 -14t43.5 -25.5
t47 -42t36.5 -34.5l15 15t19.5 19t20.5 18.5t24 19.5t24 16.5t26.5 15t26 8.5t27.5 4q64 0 98 -44t34 -109zM601 290q0 42 -19 66t-48 24q-44 0 -133 -89q95 -92 137 -92q28 0 45.5 25.5t17.5 65.5zM305 289q-72 69 -106 84q-16 7 -28 7q-28 0 -45.5 -25t-17.5 -64
q0 -43 17.5 -67.5t48.5 -24.5q41 0 131 90z" />
    <glyph glyph-name="integral" unicode="&#x222b;" horiz-adv-x="264" 
d="M292 645q-41 -5 -62.5 -10.5t-38 -20t-22 -38t-5.5 -63.5v-536q0 -66 -16 -109.5t-46.5 -64t-62 -27.5t-75.5 -7l-5 72q77 7 102 32.5t25 100.5v538q0 65 17 109t48 64t62 27t73 7z" />
    <glyph glyph-name="approxequal" unicode="&#x2248;" horiz-adv-x="413" 
d="M388 432q-52 -57 -107 -57q-34 0 -81 26.5t-73 26.5q-7 0 -14 -1.5t-12 -3t-12 -6t-10.5 -6.5t-11.5 -8t-10 -8l-32 57q50 52 110 52q35 0 78 -27.5t69 -27.5q12 0 24 5.5t20 11t25 19.5zM388 262q-52 -57 -107 -57q-34 0 -81 26.5t-73 26.5q-9 0 -16.5 -1.5t-15.5 -5.5
t-12 -6.5t-13.5 -9.5t-12.5 -9l-32 57q50 52 110 52q35 0 78 -27.5t69 -27.5q12 0 24 5.5t20 11t25 19.5z" />
    <glyph glyph-name="notequal" unicode="&#x2260;" horiz-adv-x="334" 
d="M315 156h-172l-61 -130h-61l61 130h-63v66h92l61 129h-153v65h182l51 109h61l-51 -109h53v-65h-82l-61 -129h143v-66z" />
    <glyph glyph-name="lessequal" unicode="&#x2264;" horiz-adv-x="340" 
d="M317 139l-294 166v97l294 165v-79l-237 -133v-4l237 -132v-80zM317 0h-294v68h294v-68z" />
    <glyph glyph-name="greaterequal" unicode="&#x2265;" horiz-adv-x="340" 
d="M317 305l-294 -166v80l237 132v4l-237 133v79l294 -165v-97zM317 0h-294v68h294v-68z" />
    <glyph glyph-name="uni231A" unicode="&#x231a;" horiz-adv-x="786" 
d="M753 354q0 -150 -105.5 -255t-254.5 -105t-254.5 105t-105.5 255q0 149 105.5 254.5t254.5 105.5t254.5 -105.5t105.5 -254.5zM711 354q0 133 -92.5 225.5t-225.5 92.5t-225.5 -92.5t-92.5 -225.5t92.5 -225.5t225.5 -92.5t225.5 92.5t92.5 225.5zM557 601l-20 -25
l-26 15l15 30zM659 488l-31 -15l-15 27l26 20zM689 341h-30v31h30v-31zM277 591l-26 -16l-20 26l31 20zM658 225l-20 -31l-26 20l15 26zM410 340h-200v33h167v262h33v-295zM175 500l-15 -27l-30 15l19 32zM557 112l-32 -18l-15 29l27 15zM409 62h-30v32h30v-32zM130 341h-31
v31h31v-31zM176 214l-27 -20l-19 31l31 15zM277 123l-15 -29l-31 18l20 26z" />
    <glyph glyph-name="uni235F" unicode="&#x235f;" horiz-adv-x="666" 
d="M616 333q0 -115 -81.5 -196.5t-196.5 -81.5t-196.5 81.5t-81.5 196.5t81.5 196.5t196.5 81.5q116 0 197 -81.5t81 -196.5zM491 385l-128 -10l-30 124l-30 -124l-127 10l109 -67l-49 -118l97 84l98 -84l-50 118z" />
    <glyph glyph-name="uni24BB" unicode="&#x24bb;" horiz-adv-x="793" 
d="M761 354q0 -151 -106.5 -258t-256.5 -107q-151 0 -258 107t-107 258t107 258t257 107q151 0 257.5 -107t106.5 -258zM705 354q0 128 -90 218t-217 90q-128 0 -218.5 -90t-90.5 -218t90.5 -218t217.5 -90q128 0 218 90t90 218zM491 458h-136v-96h128v-39h-128v-116h-51
v292h187v-41z" />
    <glyph glyph-name="uni24C2" unicode="&#x24c2;" horiz-adv-x="793" 
d="M233 207v292h70l91 -251l102 251h65v-292h-51v178l3 43l-89 -221h-64l-80 222l4 -40v-182h-51zM398 -11q-151 0 -258 107t-107 258t107 258t257 107q151 0 257.5 -107t106.5 -258t-106.5 -258t-256.5 -107zM397 46q128 0 218 90t90 218t-90 218t-217 90
q-128 0 -218.5 -90t-90.5 -218t90.5 -218t217.5 -90z" />
    <glyph glyph-name="uni24C9" unicode="&#x24c9;" horiz-adv-x="793" 
d="M761 353q0 -151 -106.5 -257.5t-256.5 -106.5q-151 0 -258 106.5t-107 257.5t107 258t257 107q151 0 257.5 -107t106.5 -258zM705 353q0 128 -90 218t-217 90q-128 0 -218.5 -90t-90.5 -218q0 -127 90.5 -217.5t217.5 -90.5q128 0 218 90t90 218zM518 456h-96v-250h-51
v250h-97v42h244v-42z" />
    <glyph glyph-name="uni24CC" unicode="&#x24cc;" horiz-adv-x="793" 
d="M761 352q0 -151 -106.5 -258t-256.5 -107q-151 0 -258 107t-107 258q0 150 107 257t257 107q151 0 257.5 -107t106.5 -257zM705 352q0 128 -90 218t-217 90q-128 0 -218.5 -90t-90.5 -218t90 -218.5t218 -90.5t218 90.5t90 218.5zM607 496l-91 -292h-66l-43 121l-13 44
l-16 -43l-48 -122h-68l-75 292h51l50 -201l11 -58l22 59l52 127l-25 73h51l67 -202l17 -56l16 59l59 199h49z" />
    <glyph glyph-name="uni25A0" unicode="&#x25a0;" horiz-adv-x="926" 
d="M110 0v707h706v-707h-706z" />
    <glyph glyph-name="uni25A1" unicode="&#x25a1;" horiz-adv-x="800" 
d="M60 13v681h680v-681h-680zM130 83h540v541h-540v-541z" />
    <glyph glyph-name="uni25AA" unicode="&#x25aa;" horiz-adv-x="766" 
d="M110 0v547h546v-547h-546z" />
    <glyph glyph-name="uni25AB" unicode="&#x25ab;" horiz-adv-x="766" 
d="M110 0v547h546v-547h-546zM185 76h396v396h-396v-396z" />
    <glyph glyph-name="uni25B6" unicode="&#x25b6;" horiz-adv-x="665" 
d="M110 -41v670l535 -335z" />
    <glyph glyph-name="uni25B7" unicode="&#x25b7;" horiz-adv-x="665" 
d="M110 -41v670l535 -335zM187 93l336 200l-336 205v-405z" />
    <glyph glyph-name="uni25B8" unicode="&#x25b8;" horiz-adv-x="465" 
d="M444 273l-334 -335v670z" />
    <glyph glyph-name="uni25B9" unicode="&#x25b9;" horiz-adv-x="465" 
d="M444 273l-334 -335v670zM334 273l-145 146v-292z" />
    <glyph glyph-name="uni25BA" unicode="&#x25ba;" horiz-adv-x="1013" 
d="M1013 273l-903 -335v670z" />
    <glyph glyph-name="uni25BB" unicode="&#x25bb;" horiz-adv-x="1013" 
d="M1013 273l-903 -335v670zM801 273l-611 219v-438z" />
    <glyph glyph-name="uni25C0" unicode="&#x25c0;" horiz-adv-x="665" 
d="M555 -41l-535 335l535 335v-670z" />
    <glyph glyph-name="uni25C1" unicode="&#x25c1;" horiz-adv-x="665" 
d="M555 -41l-535 335l535 335v-670zM478 93v405l-336 -205z" />
    <glyph glyph-name="uni25C2" unicode="&#x25c2;" horiz-adv-x="464" 
d="M354 -62l-334 336l334 334v-670z" />
    <glyph glyph-name="uni25C3" unicode="&#x25c3;" horiz-adv-x="464" 
d="M354 -62l-334 336l334 334v-670zM276 127v292l-146 -146z" />
    <glyph glyph-name="uni25C4" unicode="&#x25c4;" horiz-adv-x="1013" 
d="M903 -62l-903 334l903 336v-670z" />
    <glyph glyph-name="uni25C5" unicode="&#x25c5;" horiz-adv-x="1013" 
d="M903 -62l-903 334l903 336v-670zM823 54v438l-611 -220z" />
    <glyph glyph-name="uni25C6" unicode="&#x25c6;" horiz-adv-x="510" 
d="M255 172l-175 175l175 175l175 -175z" />
    <glyph glyph-name="uni25C9" unicode="&#x25c9;" horiz-adv-x="891" 
d="M801 351q0 -147 -105 -250q-104 -105 -250 -105q-148 0 -251 105q-105 103 -105 250t105 251q103 105 251 105q147 0 250 -105q105 -104 105 -251zM748 351q0 126 -89 214q-87 88 -213 88q-127 0 -214 -88q-88 -87 -88 -214q0 -126 88 -213q89 -89 214 -89q126 0 213 89
q89 86 89 213zM602 351q0 -64 -46 -110t-110 -46q-65 0 -111 46t-46 110q0 65 46 111t111 46q64 0 110 -46t46 -111z" />
    <glyph glyph-name="lozenge" unicode="&#x25ca;" horiz-adv-x="393" 
d="M379 353l-144 -353h-88l-136 355l144 353h87zM296 351l-85 251l-10 41h-5l-11 -40l-91 -246l84 -242l14 -49h5l14 49z" />
    <glyph glyph-name="uni25CB" unicode="&#x25cb;" horiz-adv-x="737" 
d="M368 -7q-117 0 -200 83t-83 200q0 118 82.5 200.5t200.5 82.5t200.5 -82.5t82.5 -200.5q0 -117 -83 -200t-200 -83zM368 73q85 0 145 59t60 144t-60 145t-145 60t-145 -60t-60 -145t60 -144t145 -59z" />
    <glyph glyph-name="uni25CE" unicode="&#x25ce;" horiz-adv-x="891" 
d="M797 361q0 -145 -103 -248t-248 -103q-146 0 -249 103t-103 248q0 146 103 249t249 103q145 0 248 -103t103 -249zM745 361q0 124 -88 212q-87 87 -211 87q-125 0 -212 -87t-87 -212q0 -124 87 -211q90 -88 212 -88q123 0 211 88q88 87 88 211zM653 361q0 -83 -61 -146
q-60 -60 -146 -60t-146 60q-61 61 -61 146q0 86 61 147q60 60 146 60t146 -60q61 -63 61 -147zM600 361q0 65 -45 110t-109 45q-65 0 -110 -45t-45 -110q0 -64 45 -109t110 -45q64 0 109 45t45 109zM508 361q0 -26 -18 -44t-44 -18t-44 18q-18 19 -18 44q0 26 18 44
q18 19 44 19q25 0 44 -19q18 -18 18 -44z" />
    <glyph glyph-name="uni25CF" unicode="&#x25cf;" horiz-adv-x="766" 
d="M382 -5q-115 0 -197 81.5t-82 196.5t81.5 196.5t197.5 81.5q115 0 196.5 -81.5t81.5 -196.5t-81.5 -196.5t-196.5 -81.5z" />
    <glyph glyph-name="uni25EF" unicode="&#x25ef;" horiz-adv-x="887" 
d="M444 -5q-149 0 -254 105t-105 254t105 254t254 105q148 0 253 -105t105 -254t-105 -254t-253 -105zM444 74q116 0 198 82t82 198t-82 198t-198 82t-198.5 -82t-82.5 -198t82.5 -198t198.5 -82z" />
    <glyph glyph-name="star" unicode="&#x2605;" horiz-adv-x="585" 
d="M128 105l72 195l-173 116l208 -8l56 201l57 -201l208 8l-173 -116l72 -195l-164 129z" />
    <glyph glyph-name="uni260F" unicode="&#x260f;" horiz-adv-x="658" 
d="M608 125q-89 -85 -126 -97q-16 -6 -42 4q-117 45 -250 231q-78 112 -107 182q-30 74 -33 129q5 32 10 40q12 19 57 51t72 45l102 -178l-64 -47l186 -259l58 50zM542 129l-73 80l-50 -44q-13 -13 -29 11l-219 305q-8 9 -6.5 17.5t8.5 11.5l51 43l-56 90
q-22 -12 -45.5 -41.5t-20.5 -52.5q19 -113 125 -258q125 -166 211 -207q20 -9 51 7.5t53 37.5z" />
    <glyph glyph-name="uni2612" unicode="&#x2612;" horiz-adv-x="766" 
d="M110 0v547h546v-547h-546zM188 118l154 155l-154 155v-310zM229 78h314l-160 154zM383 314l156 155h-312zM578 123v305l-154 -155z" />
    <glyph glyph-name="uni261C" unicode="&#x261c;" horiz-adv-x="765" 
d="M715 97h-67q-11 0 -38.5 -21t-54.5 -21h-188q-39 0 -60.5 20.5t-21.5 51.5q0 9 3 18q-21 7 -34 26t-13 41q0 14 8 32q-15 16 -15 42q0 11 6 27h-116q-35 0 -54.5 21t-19.5 50q0 30 21.5 52.5t60.5 22.5h263l-45 42q-30 29 -30 59q0 43 59 100l237 -190h98v-38h-112
l-222 178q-20 -20 -20 -43q0 -29 29 -53l108 -93h-365q-21 0 -32.5 -10.5t-11.5 -25.5q0 -14 9.5 -24t26.5 -10h334v-38h-178q-8 -14 -8 -22q0 -9 7 -17.5t22 -8.5h157v-38h-175q-5 -6 -5 -22q0 -26 47 -26h133v-38h-131q-4 -4 -4 -16q0 -14 14 -23t30 -9h188q18 0 44 21
t49 21h67v-38z" />
    <glyph glyph-name="uni261D" unicode="&#x261d;" horiz-adv-x="705" 
d="M655 361l-190 -237v-124h-38v138l178 222q-20 20 -43 20q-29 0 -53 -29l-93 -108v365q0 21 -10.5 32.5t-25.5 11.5q-14 0 -24 -9.5t-10 -26.5v-334h-38v178q-14 8 -22 8q-9 0 -17.5 -7t-8.5 -22v-157h-38v175q-6 5 -22 5q-26 0 -26 -47v-133h-38v130q-4 5 -16 5
q-14 0 -23 -14t-9 -30v-188q0 -18 21 -44t21 -49v-93h-38v93q0 11 -21 38.5t-21 54.5v188q0 39 20.5 60.5t51.5 21.5q9 0 18 -3q7 21 26 34t41 13q14 0 32 -8q18 15 42 15q11 0 27 -6v116q0 35 21 54.5t50 19.5q30 0 52.5 -21.5t22.5 -60.5v-263l42 45q28 30 59 30
q43 0 100 -59z" />
    <glyph glyph-name="uni261E" unicode="&#x261e;" horiz-adv-x="765" 
d="M715 384q0 -29 -19.5 -50t-54.5 -21h-116q6 -16 6 -27q0 -24 -15 -42q8 -18 8 -32q0 -22 -13 -41t-34 -26q3 -9 3 -18q0 -31 -21.5 -51.5t-60.5 -20.5h-188q-27 0 -54.5 21t-38.5 21h-67v38h67q23 0 49 -21t44 -21h188q16 0 30 9t14 23q0 12 -5 16h-130v38h133
q47 0 47 26q0 16 -5 22h-175v38h157q15 0 22 8.5t7 17.5q0 8 -8 22h-178v38h334q17 0 26.5 10t9.5 24q0 15 -11.5 25.5t-32.5 10.5h-365l108 93q29 24 29 53q0 23 -20 43l-222 -178h-112v38h98l237 190q59 -57 59 -100q0 -30 -30 -59l-45 -42h263q39 0 60.5 -22.5
t21.5 -52.5z" />
    <glyph glyph-name="uni261F" unicode="&#x261f;" horiz-adv-x="705" 
d="M655 361l-190 -237v-124h-38v138l178 222q-20 20 -43 20q-29 0 -53 -29l-93 -108v160q0 44 -26 44q-14 0 -24 -9.5t-10 -26.5v-129h-38v337q0 17 -9.5 27.5t-21.5 10.5t-19.5 -10.5t-7.5 -27.5v-337h-38v161q-6 5 -22 5q-15 0 -20.5 -6t-5.5 -27v-133h-38v130q-4 5 -16 5
q-14 0 -23 -14t-9 -30v-188q0 -18 21 -44t21 -49v-93h-38v93q0 11 -21 38.5t-21 54.5v188q0 39 20.5 60.5t51.5 21.5q9 0 18 -3q20 33 58 33q10 0 24 -7v153q0 28 22.5 47.5t47.5 19.5q26 0 45.5 -19t19.5 -44v-156q14 6 32 6q29 0 47 -21t18 -61v-58l42 45q27 28 67 28
q22 0 42 -13t50 -44z" />
    <glyph glyph-name="smileface" unicode="&#x263a;" horiz-adv-x="830" 
d="M415 136q-74 0 -132.5 46t-76.5 117l52 16q15 -54 58.5 -88t99.5 -34q58 0 102 35.5t56 91.5l50 -20q-16 -71 -74.5 -117.5t-134.5 -46.5zM298 397q-22 0 -37 14.5t-15 35.5t15 35.5t37 14.5q21 0 37 -14.5t16 -35.5t-16 -35.5t-37 -14.5zM415 -6q-149 0 -254 105.5
t-105 254.5t105 254t254 105t254 -105t105 -254t-105 -254.5t-254 -105.5zM415 67q119 0 203 84t84 203q0 118 -84.5 202t-202.5 84t-202.5 -84t-84.5 -202q0 -119 84 -203t203 -84zM532 397q-22 0 -37 14.5t-15 35.5t15 35.5t37 14.5q21 0 37 -14.5t16 -35.5t-16 -35.5
t-37 -14.5z" />
    <glyph glyph-name="earth" unicode="&#x2641;" horiz-adv-x="786" 
d="M753 354q0 -150 -105.5 -255t-254.5 -105t-254.5 105t-105.5 255q0 149 105.5 254.5t254.5 105.5t254.5 -105.5t105.5 -254.5zM202 561l-29 -21l-16 25l1 1h-2l1 -1q-82 -88 -82 -211q0 -133 92.5 -225.5t225.5 -92.5t225.5 92.5t92.5 225.5q0 33 -7 69l-5 -49l-49 -32
l17 -20l-28 -14l-10 18l-5 -1l5 -26l21 -12l-8 -7l-13 4l3 -10l11 -1l10 -19l30 -11l2 -10l-36 6l-48 51l19 -2l-27 64v16h-8l-3 -15l-27 -20v-19l-25 -6l-13 36l-9 3l1 21l-81 14l13 -21l18 5l14 -14l-14 -18l-39 -12l-34 67h-10l-1 -13l23 -48l18 -13l32 2l-54 -76l6 -6
l2 -24l-15 -15l-1 -18l-38 -46l-35 2l-27 77l8 11v19l-22 27l9 6l-22 14l-49 2l-26 27l-1 49l62 54l32 3l8 -9l-2 -13l25 -8l13 16l9 -14h40l6 6v24l-14 -24l-24 30l8 -30l-22 18l-3 19l-21 24l-4 -4l17 -20l-11 -19l-2 16l-22 17l-11 -10l-6 4l-41 -34l-14 35l26 -1l9 11
l-14 9l21 13l10 1l17 16l-5 18l10 4l6 -14l32 4l1 12l40 13l-6 7l-27 -7l-7 14l16 12l-9 10l-21 -27l8 -6l-2 -16l-20 -6l-5 12l-22 -3l2 19l36 49l44 9l60 -14l-11 -16l-23 2l15 -16l46 30h35l-20 27l23 26l33 14q-52 19 -111 19q-146 0 -235 -106l30 8zM564 625
q-40 20 -60 28l5 -11l-31 -11l-18 -23l36 -23l-6 11l22 24l45 -15zM438 219l-14 -51l-21 14l6 26l21 16zM702 277l-13 -25l-23 6l1 19l21 21zM251 496l-1 -13h-27l6 13l-15 21l12 11l6 -18zM218 491l-10 -11l-11 10l9 18zM296 419l-9 4l6 9z" />
    <glyph glyph-name="uni2661" unicode="&#x2661;" horiz-adv-x="673" 
d="M623 375q0 -74 -98 -188l-189 -223l-154 175q-58 65 -95 130t-37 106q0 82 49.5 132t112.5 50t125 -56q58 56 124 56q63 0 112.5 -50t49.5 -132zM564 375q0 59 -32.5 91t-70.5 32q-24 0 -43.5 -8.5t-35.5 -27.5t-24 -32t-22 -39q-22 42 -37 61q-39 46 -87 46
q-38 0 -70.5 -33t-32.5 -90q0 -29 31.5 -81.5t73.5 -101.5l123 -142l143 169q37 44 60.5 88t23.5 68z" />
    <glyph glyph-name="uni2665" unicode="&#x2665;" horiz-adv-x="673" 
d="M623 375q0 -74 -98 -188l-189 -223l-154 175q-58 65 -95 130t-37 106q0 82 49.5 132t112.5 50t125 -56q58 56 124 56q63 0 112.5 -50t49.5 -132z" />
    <glyph glyph-name="uni2708" unicode="&#x2708;" horiz-adv-x="786" 
d="M753 354q0 -149 -105.5 -254.5t-254.5 -105.5t-254.5 105.5t-105.5 254.5t105.5 254.5t254.5 105.5t254.5 -105.5t105.5 -254.5zM711 354q0 133 -92.5 225.5t-225.5 92.5t-225.5 -92.5t-92.5 -225.5t92.5 -225.5t225.5 -92.5t225.5 92.5t92.5 225.5zM572 512
q0 -15 -8 -25l-79 -87l85 -187l-43 -45l-115 161l-74 -76l14 -103l-36 -12l-44 96l-97 41l5 37l109 -13l74 77l-163 108l43 45l188 -78l86 81q10 10 23 10q14 0 23 -9t9 -21z" />
    <glyph glyph-name="uni2709" unicode="&#x2709;" horiz-adv-x="756" 
d="M706 51h-656v484h656v-484zM665 116v351l-186 -168zM642 495h-524l263 -227zM637 89l-190 182l-32 -31q-13 -13 -38 -13q-19 0 -37 17l-33 29l-190 -184h520zM278 300l-189 163v-351z" />
    <glyph glyph-name="uni270E" unicode="&#x270e;" horiz-adv-x="764" 
d="M714 498l-377 -380l-287 -108l111 278l383 380zM586 571l-45 41l-316 -320l45 -42zM657 496l-45 45l-316 -320l45 -46zM316 148l-121 118l-53 -123l43 -46z" />
    <glyph glyph-name="uni2740" unicode="&#x2740;" horiz-adv-x="434" 
d="M384 211l-137 -206v-5h-59v3l-138 208q16 4 37 4q29 0 50 -11q41 -24 51 -108v156q-42 12 -66 43.5t-24 72.5q0 22 0.5 102t0.5 102l71 -45l44 47l47 -48l74 46v-204q0 -41 -23.5 -72t-64.5 -43v-149q9 76 50 100q21 11 50 11zM282 368v112l-20 -20l-47 48l-45 -49
l-19 20v-111q0 -27 19 -46t46 -19t46.5 19t19.5 46z" />
    <glyph glyph-name="uni2780" unicode="&#x2780;" horiz-adv-x="840" 
d="M420 -5q-149 0 -254.5 105t-105.5 254t105.5 254t254.5 105t254.5 -105t105.5 -254q0 -148 -105.5 -253.5t-254.5 -105.5zM420 48q127 0 216.5 89.5t89.5 216.5t-89.5 216.5t-216.5 89.5t-216.5 -89.5t-89.5 -216.5t89.5 -216.5t216.5 -89.5zM401 182v312h-89v53l157 4
v-369h-68z" />
    <glyph glyph-name="uni2781" unicode="&#x2781;" horiz-adv-x="840" 
d="M287 192v51q10 8 33 24.5t33 24t29 22t28 22.5t22.5 21t20.5 22.5t14 21.5t10 23t3 23q0 29 -18 44t-45 15q-55 0 -89 -34l-28 42q47 49 123 49q53 0 88 -29.5t35 -80.5q0 -27 -12 -53.5t-26.5 -45t-43 -41t-45 -34t-49.5 -31.5h181v-56h-264zM420 -5q-149 0 -254.5 105
t-105.5 254t105.5 254t254.5 105t254.5 -105t105.5 -254q0 -148 -105.5 -253.5t-254.5 -105.5zM420 48q127 0 216.5 89.5t89.5 216.5t-89.5 216.5t-216.5 89.5t-216.5 -89.5t-89.5 -216.5t89.5 -216.5t216.5 -89.5z" />
    <glyph glyph-name="uni2782" unicode="&#x2782;" horiz-adv-x="840" 
d="M410 173q-54 0 -107 16l14 51q52 -13 87 -13q84 0 84 55q0 36 -26 50t-83 18v39q92 8 92 65q0 20 -17.5 32t-43.5 12q-34 0 -70 -17l-17 43q44 26 98 26q50 0 82.5 -24t32.5 -65q0 -28 -16 -51t-45 -35q38 -8 59 -33.5t21 -58.5q0 -56 -42 -83t-103 -27zM420 -5
q-149 0 -254.5 105t-105.5 254t105.5 254t254.5 105t254.5 -105t105.5 -254q0 -148 -105.5 -253.5t-254.5 -105.5zM420 48q127 0 216.5 89.5t89.5 216.5t-89.5 216.5t-216.5 89.5t-216.5 -89.5t-89.5 -216.5t89.5 -216.5t216.5 -89.5z" />
    <glyph glyph-name="uni2783" unicode="&#x2783;" horiz-adv-x="840" 
d="M420 -5q-149 0 -254.5 105t-105.5 254t105.5 254t254.5 105t254.5 -105t105.5 -254q0 -148 -105.5 -253.5t-254.5 -105.5zM420 48q127 0 216.5 89.5t89.5 216.5t-89.5 216.5t-216.5 89.5t-216.5 -89.5t-89.5 -216.5t89.5 -216.5t216.5 -89.5zM421 182v88h-168v57l132 220
h101v-225h62v-52h-62v-88h-65zM305 322h116v188z" />
    <glyph glyph-name="uni2784" unicode="&#x2784;" horiz-adv-x="840" 
d="M420 -5q-149 0 -254.5 105t-105.5 254t105.5 254t254.5 105t254.5 -105t105.5 -254q0 -148 -105.5 -253.5t-254.5 -105.5zM420 48q127 0 216.5 89.5t89.5 216.5t-89.5 216.5t-216.5 89.5t-216.5 -89.5t-89.5 -216.5t89.5 -216.5t216.5 -89.5zM409 163q-48 0 -104 14
l16 51q51 -13 87 -13q33 0 52 18t19 46q0 32 -19.5 48.5t-52.5 16.5q-37 0 -87 -5v198h216v-53h-154v-89h37q58 0 93 -28.5t35 -81.5q0 -56 -39 -89t-99 -33z" />
    <glyph glyph-name="uni2785" unicode="&#x2785;" horiz-adv-x="840" 
d="M420 -5q-149 0 -254.5 105t-105.5 254t105.5 254t254.5 105t254.5 -105t105.5 -254q0 -148 -105.5 -253.5t-254.5 -105.5zM420 48q127 0 216.5 89.5t89.5 216.5t-89.5 216.5t-216.5 89.5t-216.5 -89.5t-89.5 -216.5t89.5 -216.5t216.5 -89.5zM414 172q-70 0 -104.5 36.5
t-34.5 125.5q0 100 48.5 158t126.5 58q37 0 78 -12l-16 -52q-32 9 -65 9q-39 0 -66 -27.5t-35 -78.5q36 17 77 17q58 0 90.5 -27.5t32.5 -81.5q0 -60 -37.5 -92.5t-94.5 -32.5zM417 223q26 0 43 19.5t17 49.5q0 32 -17.5 49.5t-44.5 17.5q-34 0 -70 -13q0 -72 15 -97.5
t57 -25.5z" />
    <glyph glyph-name="uni2786" unicode="&#x2786;" horiz-adv-x="840" 
d="M420 -5q-149 0 -254.5 105t-105.5 254t105.5 254t254.5 105t254.5 -105t105.5 -254q0 -148 -105.5 -253.5t-254.5 -105.5zM420 48q127 0 216.5 89.5t89.5 216.5t-89.5 216.5t-216.5 89.5t-216.5 -89.5t-89.5 -216.5t89.5 -216.5t216.5 -89.5zM383 149l-63 21l169 297
h-190v60h258v-51z" />
    <glyph glyph-name="uni2787" unicode="&#x2787;" horiz-adv-x="840" 
d="M416 166q-137 0 -137 98q0 58 69 103q-56 31 -56 82q0 44 37 69t92 25q59 0 92.5 -24t33.5 -64q0 -54 -70 -90q81 -39 81 -94q0 -52 -38.5 -78.5t-103.5 -26.5zM418 213q32 0 52 16t20 46q0 29 -85 64q-7 3 -11 5q-49 -29 -49 -73q0 -58 73 -58zM420 -5
q-149 0 -254.5 105t-105.5 254t105.5 254t254.5 105t254.5 -105t105.5 -254q0 -148 -105.5 -253.5t-254.5 -105.5zM420 48q127 0 216.5 89.5t89.5 216.5t-89.5 216.5t-216.5 89.5t-216.5 -89.5t-89.5 -216.5t89.5 -216.5t216.5 -89.5zM428 386q51 32 51 62q0 45 -60 45
q-64 0 -64 -49q0 -12 11.5 -23t24 -17.5t37.5 -17.5z" />
    <glyph glyph-name="uni2788" unicode="&#x2788;" horiz-adv-x="840" 
d="M420 -5q-149 0 -254.5 105t-105.5 254t105.5 254t254.5 105t254.5 -105t105.5 -254q0 -148 -105.5 -253.5t-254.5 -105.5zM420 48q127 0 216.5 89.5t89.5 216.5t-89.5 216.5t-216.5 89.5t-216.5 -89.5t-89.5 -216.5t89.5 -216.5t216.5 -89.5zM385 165q-37 0 -78 12l16 52
q38 -9 64 -9q39 0 66.5 28t34.5 78q-32 -17 -76 -17q-58 0 -91 28t-33 81q0 61 38 93t94 32q70 0 105 -36.5t35 -124.5q0 -101 -49 -159t-126 -58zM420 356q28 0 70 14q-1 71 -15.5 96.5t-56.5 25.5q-27 0 -44 -19t-17 -50q0 -33 17.5 -50t45.5 -17z" />
    <glyph glyph-name="uni278A" unicode="&#x278a;" horiz-adv-x="840" 
d="M420 -5q-149 0 -254.5 105t-105.5 254t105.5 254t254.5 105t254.5 -105t105.5 -254q0 -148 -105.5 -253.5t-254.5 -105.5zM401 182h68v369l-157 -4v-53h89v-312z" />
    <glyph glyph-name="uni278B" unicode="&#x278b;" horiz-adv-x="840" 
d="M287 192h264v56h-181q33 20 49.5 31.5t45 34t43 41t26.5 45t12 53.5q0 51 -35 80.5t-88 29.5q-76 0 -123 -49l28 -42q34 34 89 34q27 0 45 -15t18 -44q0 -12 -3 -23t-10 -23t-14 -21.5t-20.5 -22.5t-22.5 -21t-28 -22.5t-29 -22t-33 -24t-33 -24.5v-51zM420 -5
q-149 0 -254.5 105t-105.5 254t105.5 254t254.5 105t254.5 -105t105.5 -254q0 -148 -105.5 -253.5t-254.5 -105.5z" />
    <glyph glyph-name="uni278C" unicode="&#x278c;" horiz-adv-x="840" 
d="M410 173q61 0 103 27t42 83q0 33 -21 58.5t-59 33.5q29 12 45 35t16 51q0 41 -32.5 65t-82.5 24q-54 0 -98 -26l17 -43q36 17 70 17q26 0 43.5 -12t17.5 -32q0 -57 -92 -65v-39q57 -4 83 -18t26 -50q0 -55 -84 -55q-35 0 -87 13l-14 -51q53 -16 107 -16zM420 -5
q-149 0 -254.5 105t-105.5 254t105.5 254t254.5 105t254.5 -105t105.5 -254q0 -148 -105.5 -253.5t-254.5 -105.5z" />
    <glyph glyph-name="uni278D" unicode="&#x278d;" horiz-adv-x="840" 
d="M420 -5q-149 0 -254.5 105t-105.5 254t105.5 254t254.5 105t254.5 -105t105.5 -254q0 -148 -105.5 -253.5t-254.5 -105.5zM421 182h65v88h62v52h-62v225h-101l-132 -220v-57h168v-88zM305 322l116 188v-188h-116z" />
    <glyph glyph-name="uni278E" unicode="&#x278e;" horiz-adv-x="840" 
d="M420 -5q-149 0 -254.5 105t-105.5 254t105.5 254t254.5 105t254.5 -105t105.5 -254q0 -148 -105.5 -253.5t-254.5 -105.5zM409 163q60 0 99 33t39 89q0 53 -35 81.5t-93 28.5h-37v89h154v53h-216v-198q50 5 87 5q33 0 52.5 -16.5t19.5 -48.5q0 -28 -19 -46t-52 -18
q-36 0 -87 13l-16 -51q56 -14 104 -14z" />
    <glyph glyph-name="uni278F" unicode="&#x278f;" horiz-adv-x="840" 
d="M420 -5q-149 0 -254.5 105t-105.5 254t105.5 254t254.5 105t254.5 -105t105.5 -254q0 -148 -105.5 -253.5t-254.5 -105.5zM414 172q57 0 94.5 32.5t37.5 92.5q0 54 -32.5 81.5t-90.5 27.5q-41 0 -77 -17q8 51 35 78.5t66 27.5q33 0 65 -9l16 52q-41 12 -78 12
q-78 0 -126.5 -58t-48.5 -158q0 -89 34.5 -125.5t104.5 -36.5zM417 223q-42 0 -57 25.5t-15 97.5q36 13 70 13q27 0 44.5 -17.5t17.5 -49.5q0 -30 -16.5 -49.5t-43.5 -19.5z" />
    <glyph glyph-name="uni2790" unicode="&#x2790;" horiz-adv-x="840" 
d="M420 -5q-149 0 -254.5 105t-105.5 254t105.5 254t254.5 105t254.5 -105t105.5 -254q0 -148 -105.5 -253.5t-254.5 -105.5zM383 149l174 327v51h-258v-60h190l-169 -297z" />
    <glyph glyph-name="uni2791" unicode="&#x2791;" horiz-adv-x="840" 
d="M416 166q65 0 103.5 26.5t38.5 78.5q0 55 -81 94q70 36 70 90q0 40 -33.5 64t-92.5 24q-55 0 -92 -25t-37 -69q0 -51 56 -82q-69 -45 -69 -103q0 -98 137 -98zM418 213q-73 0 -73 58q0 44 49 73q69 -29 83 -43q13 -12 13 -26q0 -30 -20 -46t-52 -16zM420 -5
q-149 0 -254.5 105t-105.5 254t105.5 254t254.5 105t254.5 -105t105.5 -254q0 -148 -105.5 -253.5t-254.5 -105.5zM428 386q-25 11 -37.5 17.5t-24 17.5t-11.5 23q0 49 64 49q60 0 60 -45q0 -30 -51 -62z" />
    <glyph glyph-name="uni2792" unicode="&#x2792;" horiz-adv-x="840" 
d="M385 165q77 0 126 58t49 159q0 88 -35 124.5t-105 36.5q-56 0 -94 -32t-38 -93q0 -53 33 -81t91 -28q44 0 76 17q-7 -50 -34.5 -78t-66.5 -28q-26 0 -64 9l-16 -52q41 -12 78 -12zM418 492q42 0 57 -26t15 -96q-42 -14 -70 -14t-45.5 17t-17.5 50q0 31 17.5 50t43.5 19z
M780 354q0 -148 -105.5 -253.5t-254.5 -105.5t-254.5 105t-105.5 254t105.5 254t254.5 105t254.5 -105t105.5 -254z" />
    <glyph glyph-name="swing" unicode="&#x301c;" horiz-adv-x="1005" 
d="M716 167q-57 0 -106 16.5t-84.5 40t-70 47.5t-77.5 40.5t-90 16.5q-64 0 -109.5 -23t-93.5 -68q-7 8 -26.5 29t-21.5 24q56 54 121.5 85t128.5 31q55 0 103.5 -17t85 -41t72 -48.5t78.5 -41.5t90 -17q90 -1 203 93l49 -52q-50 -50 -119 -82.5t-133 -32.5z" />
    <glyph glyph-name="apple" unicode="&#xf8ff;" horiz-adv-x="1241" 
d="M200 377v11h11v-11h-11zM160 377v11h11v-11h-11zM160 338v10h11v-10h-11zM200 338v10h11v-10h-11zM290 338v10h11v-10h10v-10h-11v10h-10zM290 377v11h10v10h11v-11h-10v-10h-11zM240 387v11h11v-10h10v-11h-11v10h-10zM240 328v10h10v10h11v-10h-10v-10h-11zM260 357v11
h10v10h11v-10h10v-11h-10v-10h-11v10h-10zM170 357v11h10v10h11v-10h10v-11h-10v-10h-11v10h-10zM100 357v11h10v10h11v-10h10v-11h-10v-10h-11v10h-10zM371 338h-21v9h-10v30h-10v11h10v10h11v-10h20v-11h-20v-29h20v-10zM431 347h-10v-9h-10v-10h-10v-10h-11v11h10v18h-10
v41h11v-40h19v40h11v-41zM480 348v29h-19v-29h19zM491 347h-10v-9h-20v-20h-11v70h31v-10h10v-31zM540 348v29h-19v-29h19zM551 347h-10v-9h-21v9h-10v31h10v10h21v-10h10v-31zM611 338h-21v9h-10v30h-10v11h10v10h11v-10h20v-11h-20v-29h20v-10zM671 338h-11v39h-19v-39
h-11v70h11v-20h20v-10h10v-40zM720 368v9h-19v-9h19zM731 338h-31v9h-10v31h10v10h21v-10h10v-21h-30v-9h30v-10zM780 348v29h-19v-29h19zM791 318h-11v20h-20v9h-10v31h10v10h31v-70zM851 338h-31v9h-10v41h11v-40h19v40h11v-50zM900 368v9h-19v-9h19zM911 338h-31v9h-10
v31h10v10h21v-10h10v-21h-30v-9h30v-10zM1041 388v-11h-11v11h11zM1041 348v-10h-11v10h11zM1081 348v-10h-11v10h11zM1081 388v-11h-11v11h11zM941 398v-10h10v-11h-11v10h-10v11h11zM951 348v-10h-10v-10h-11v10h10v10h11zM1001 338v-10h-11v10h-10v10h11v-10h10z
M1001 398v-11h-10v-10h-11v11h10v10h11zM981 368v-11h-10v-10h-11v10h-10v11h10v10h11v-10h10zM1071 368v-11h-10v-10h-11v10h-10v11h10v10h11v-10h10zM1131 378v-10h10v-11h-10v-10h-11v10h-10v11h10v10h11z" />
    <glyph glyph-name="comma.inferior" unicode="&#xfe50;" horiz-adv-x="202" 
d="M49 -52q18 47 18 86v51h58v-28q0 -55 -34 -109h-42z" />
    <glyph glyph-name="period.inferior" unicode="&#xfe52;" horiz-adv-x="209" 
d="M71 0v71h68v-71h-68z" />
    <glyph glyph-name="dollar.inferior" unicode="&#xfe69;" horiz-adv-x="259" 
d="M147 14l2 -57h-44l2 54q-50 3 -71 15l6 46q43 -12 74 -12q54 0 54 44q0 18 -13 30t-32 20t-38 18t-32 31.5t-13 53.5q0 36 19.5 59.5t50.5 31.5l-2 65h44l-2 -63q35 -3 58 -13l-8 -44q-31 12 -66 12q-41 0 -41 -41q0 -24 20 -40t44.5 -24.5t44.5 -31t20 -58.5
q0 -79 -77 -96z" />
    <glyph glyph-name="uni0045_uni02DA" horiz-adv-x="419" 
d="M317 822q0 -39 -26.5 -62.5t-65.5 -23.5q-40 0 -67.5 21.5t-27.5 62.5t27.5 65t65.5 24q36 0 65 -22t29 -65zM271 821q0 19 -14.5 32.5t-33.5 13.5q-20 0 -33 -12.5t-13 -31.5q0 -20 13.5 -33.5t33.5 -13.5t33.5 13t13.5 32zM390 0h-317v707h301v-69h-222v-249h206v-68
h-206v-250h238v-71z" />
    <glyph glyph-name="uni0046_uni00AF" horiz-adv-x="403" 
d="M345 766h-232v62h232v-62zM387 638h-235v-267h220v-71h-220v-300h-79v707h314v-69z" />
    <glyph glyph-name="Jacute" horiz-adv-x="223" 
d="M247 808l-175 -64l-21 49l170 84zM152 156q0 -133 -29.5 -213t-122.5 -135l-38 56q65 46 88 108t23 173v562h79v-551z" />
    <glyph glyph-name="uni004E_uni00AF" horiz-adv-x="564" 
d="M398 766h-232v62h232v-62zM490 0h-92l-250 563h-4l8 -113v-450h-79v707h91l251 -572h4l-7 118v454h78v-707z" />
    <glyph glyph-name="uni0050_uni00AF" horiz-adv-x="426" 
d="M419 483q0 -99 -56.5 -163.5t-161.5 -64.5h-17v72h22q57 0 94 38.5t37 112.5q0 76 -30.5 117t-84.5 41h-71v-636h-78v707h156q88 0 139 -59t51 -165zM325 766h-232v62h232v-62z" />
    <glyph glyph-name="uni0052_uni0060" horiz-adv-x="506" 
d="M503 53l-15 -64q-37 2 -77 27.5t-69 83.5l-89 182q-18 -4 -62 -4h-40v-278h-78v707h172q80 0 127 -53.5t47 -158.5q0 -136 -94 -190l78 -150q38 -72 100 -102zM337 490q0 146 -107 146h-79v-289h62q124 0 124 143zM246 744l-175 64l25 69l171 -84z" />
    <glyph glyph-name="uni0053_uni02D8" horiz-adv-x="400" 
d="M373 185q0 -93 -56.5 -143.5t-137.5 -50.5q-85 0 -153 50l31 62q64 -40 121 -40q50 0 82 29.5t32 87.5q0 34 -18 63t-45 49t-58.5 45.5t-58.5 49.5t-45 63t-18 86q0 80 49 127.5t120 47.5q68 0 129 -33l-24 -62q-52 24 -102 24q-44 0 -68.5 -26.5t-24.5 -75.5
q0 -32 18 -61t45.5 -49.5t59 -46t59 -50.5t45.5 -63t18 -83zM338 821q-15 -25 -51 -49t-82 -24q-79 0 -130 72l40 40q44 -48 91 -48q51 0 92 45z" />
    <glyph glyph-name="uni0056_uni00AF" horiz-adv-x="469" 
d="M344 766h-232v62h232v-62zM479 707l-206 -707h-96l-187 707h85l132 -528l18 -99h3l23 104l148 523h80z" />
    <glyph glyph-name="uni0058_uni00AF" horiz-adv-x="442" 
d="M439 0h-90l-102 247l-23 59h-2l-23 -56l-112 -250h-88l183 374l-153 333h90l81 -200l25 -63h2l26 63l90 200h84l-159 -332zM342 766h-232v62h232v-62z" />
    <glyph glyph-name="uni00CD_uni004A_uni0301" horiz-adv-x="444" 
d="M152 0h-79v707h79v-707zM249 808l-175 -64l-21 49l170 84zM468 808l-175 -64l-21 49l170 84zM373 156q0 -133 -29.5 -213t-122.5 -135l-38 56q65 46 88 108t23 173v562h79v-551z" />
    <glyph glyph-name="f.alt" horiz-adv-x="248" 
d="M312 756l-11 -69q-45 13 -81 13q-41 0 -61 -22.5t-20 -79.5v-52h83v-66h-83v-480h-77v480h-56v66h56v43q0 185 155 185q54 0 95 -18z" />
    <glyph glyph-name="g.alt" horiz-adv-x="462" 
d="M433 457h-73q13 -29 13 -83q0 -77 -44.5 -126t-110.5 -49q-53 0 -89 24v-98h115q80 0 121.5 -41t41.5 -108q0 -83 -56.5 -143t-151.5 -60q-78 0 -120.5 43t-42.5 109q0 67 60 136q-13 6 -23 22.5t-10 32.5q0 50 43 124q-45 48 -45 130q0 81 39.5 134t114.5 53
q69 0 101 -37l117 3v-66zM301 378q0 121 -82 121q-46 0 -66 -31t-20 -95q0 -116 84 -116t84 121zM336 -36q0 89 -102 89h-100q-25 -44 -25 -104q0 -47 25.5 -78t80.5 -31q57 0 89 35.5t32 88.5z" />
    <glyph glyph-name="uni0065_uni02DA" horiz-adv-x="393" 
d="M296 701q0 -39 -26.5 -62.5t-65.5 -23.5q-40 0 -67.5 21.5t-27.5 62.5t27.5 65t65.5 24q36 0 65 -22t29 -65zM250 700q0 19 -14.5 32.5t-33.5 13.5q-20 0 -33 -12.5t-13 -31.5q0 -20 13.5 -33.5t33.5 -13.5t33.5 13t13.5 32zM366 256h-257q0 -109 34 -150.5t101 -41.5
q43 0 102 21l14 -67q-47 -27 -133 -27q-95 0 -144 62.5t-49 209.5q0 153 50 224.5t132 71.5q150 0 150 -272v-31zM287 320q0 80 -20 127t-60 47q-84 0 -97 -174h177z" />
    <glyph glyph-name="uni0066_uni00AF" horiz-adv-x="248" 
d="M312 756l-11 -69q-45 13 -81 13q-41 0 -61 -22.5t-20 -79.5v-52h83v-66h-83v-480h-77v480h-56v66h56v43q0 185 155 185q54 0 95 -18zM238 -136h-232v65h232v-65z" />
    <glyph glyph-name="jacute" horiz-adv-x="195" 
d="M136 -21q0 -111 -36.5 -159t-104.5 -48q-25 0 -62 15l14 68q24 -10 45 -10q37 0 52.5 32t15.5 96v573h76v-567zM231 743l-156 -127l-38 45l148 138z" />
    <glyph glyph-name="dotlessj" horiz-adv-x="195" 
d="M136 -21q0 -111 -36.5 -159t-104.5 -48q-25 0 -62 15l14 68q24 -10 45 -10q37 0 52.5 32t15.5 96v573h76v-567z" />
    <glyph glyph-name="uni006E_uni00AF" horiz-adv-x="447" 
d="M338 668h-232v65h232v-65zM391 0h-76v345q0 75 -13 106.5t-57 31.5q-38 0 -109 -60v-423h-76v546h76v-60q4 7 19.5 22t46.5 32.5t61 17.5q35 0 60.5 -14t38 -33t19.5 -50t8.5 -53.5t1.5 -55.5v-352z" />
    <glyph glyph-name="uni0070_uni00AF" horiz-adv-x="433" 
d="M401 286q0 -157 -54.5 -225.5t-141.5 -68.5q-9 0 -19.5 0.5t-18.5 1.5t-15 2t-12 2h-4v-218h-76v766h76v-44q5 6 14 15t36.5 23.5t55.5 14.5q74 0 116.5 -72.5t42.5 -196.5zM324 267q0 215 -103 215q-35 0 -85 -43v-370q30 -7 70 -7q55 0 86.5 57t31.5 148zM327 668h-232
v65h232v-65z" />
    <glyph glyph-name="uni0072_uni0060" horiz-adv-x="283" 
d="M291 546l-10 -72q-21 9 -54 9q-28 0 -52.5 -23t-38.5 -55v-405h-76v546h76v-64h3q38 74 96 74q33 0 56 -10zM229 660l-36 -47l-159 127l45 56z" />
    <glyph glyph-name="uni0073_uni02D8" horiz-adv-x="337" 
d="M312 151q0 -77 -48.5 -118t-111.5 -41q-68 0 -123 24l11 68q65 -23 107 -23q38 0 64 23t26 58q0 30 -20.5 54t-49 43t-57.5 40.5t-49.5 55t-20.5 77.5q0 70 40.5 107t106.5 37q48 0 102 -23l-12 -65q-50 21 -97 21q-31 0 -48.5 -19t-17.5 -50q0 -29 20.5 -54t49.5 -44
t58 -40.5t49.5 -55t20.5 -75.5zM301 722q-17 -26 -53 -50t-83 -24q-81 0 -133 73l40 42q45 -49 94 -49q53 0 95 46z" />
    <glyph glyph-name="germandbls.alt" horiz-adv-x="449" 
d="M421 137q0 -76 -40 -112t-94 -36q-64 0 -114 27l16 64q50 -21 90 -21q65 0 65 73q0 26 -15.5 49t-38 41.5t-45 40.5t-38 57t-15.5 79q0 46 38.5 113.5t38.5 109.5q0 81 -59 81q-42 0 -57 -32.5t-15 -99.5v-571h-76v566q0 207 148 207q23 0 44.5 -6.5t43.5 -22.5t35 -49
t13 -79q0 -50 -38.5 -117t-38.5 -100q0 -32 15.5 -58.5t38 -46.5t45 -41t38 -50.5t15.5 -65.5z" />
    <glyph glyph-name="uni0076_uni00AF" horiz-adv-x="377" 
d="M303 668h-232v65h232v-65zM374 546l-145 -546h-95l-131 546h82l82 -374l14 -95h5l16 98l93 371h79z" />
    <glyph glyph-name="uni0078_uni00AF" horiz-adv-x="366" 
d="M366 0h-89l-92 219h-6l-91 -219h-89l143 279l-134 267h88l84 -207h6l86 207h84l-131 -265zM300 673h-232v65h232v-65z" />
    <glyph glyph-name="iacute_jacute" horiz-adv-x="386" 
d="M327 -21q0 -111 -36.5 -159t-104.5 -48q-25 0 -62 15l14 68q24 -10 45 -10q37 0 52.5 32t15.5 96v573h76v-567zM231 743l-156 -127l-38 45l148 138zM420 743l-156 -127l-38 45l148 138zM136 0h-76v546h76v-546z" />
    <glyph glyph-name="gbreve.alt" horiz-adv-x="437" 
d="M433 457h-73q13 -29 13 -83q0 -77 -44.5 -126t-110.5 -49q-53 0 -89 24v-98h115q80 0 121.5 -41t41.5 -108q0 -83 -56.5 -143t-151.5 -60q-78 0 -120.5 43t-42.5 109q0 67 60 136q-13 6 -23 22.5t-10 32.5q0 50 43 124q-45 48 -45 130q0 81 39.5 134t114.5 53
q69 0 101 -37l117 3v-66zM301 378q0 121 -82 121q-46 0 -66 -31t-20 -95q0 -116 84 -116t84 121zM336 -36q0 89 -102 89h-100q-25 -44 -25 -104q0 -47 25.5 -78t80.5 -31q57 0 89 35.5t32 88.5zM353 722q-17 -26 -53 -50t-83 -24q-81 0 -133 73l40 42q45 -49 94 -49
q53 0 95 46z" />
    <glyph glyph-name="gcircumflex.alt" horiz-adv-x="437" 
d="M364 676l-34 -46l-108 81l-110 -80l-35 45l144 113zM433 457h-73q13 -29 13 -83q0 -77 -44.5 -126t-110.5 -49q-53 0 -89 24v-98h115q80 0 121.5 -41t41.5 -108q0 -83 -56.5 -143t-151.5 -60q-78 0 -120.5 43t-42.5 109q0 67 60 136q-13 6 -23 22.5t-10 32.5q0 50 43 124
q-45 48 -45 130q0 81 39.5 134t114.5 53q69 0 101 -37l117 3v-66zM301 378q0 121 -82 121q-46 0 -66 -31t-20 -95q0 -116 84 -116t84 121zM336 -36q0 89 -102 89h-100q-25 -44 -25 -104q0 -47 25.5 -78t80.5 -31q57 0 89 35.5t32 88.5z" />
    <glyph glyph-name="gcommaaccent.alt" horiz-adv-x="437" 
d="M187 623l23 185h58l-12 -185h-69zM433 457h-73q13 -29 13 -83q0 -77 -44.5 -126t-110.5 -49q-53 0 -89 24v-98h115q80 0 121.5 -41t41.5 -108q0 -83 -56.5 -143t-151.5 -60q-78 0 -120.5 43t-42.5 109q0 67 60 136q-13 6 -23 22.5t-10 32.5q0 50 43 124q-45 48 -45 130
q0 81 39.5 134t114.5 53q69 0 101 -37l117 3v-66zM301 378q0 121 -82 121q-46 0 -66 -31t-20 -95q0 -116 84 -116t84 121zM336 -36q0 89 -102 89h-100q-25 -44 -25 -104q0 -47 25.5 -78t80.5 -31q57 0 89 35.5t32 88.5z" />
    <glyph glyph-name="gdotaccent.alt" horiz-adv-x="437" 
d="M433 457h-73q13 -29 13 -83q0 -77 -44.5 -126t-110.5 -49q-53 0 -89 24v-98h115q80 0 121.5 -41t41.5 -108q0 -83 -56.5 -143t-151.5 -60q-78 0 -120.5 43t-42.5 109q0 67 60 136q-13 6 -23 22.5t-10 32.5q0 50 43 124q-45 48 -45 130q0 81 39.5 134t114.5 53
q69 0 101 -37l117 3v-66zM301 378q0 121 -82 121q-46 0 -66 -31t-20 -95q0 -116 84 -116t84 121zM336 -36q0 89 -102 89h-100q-25 -44 -25 -104q0 -47 25.5 -78t80.5 -31q57 0 89 35.5t32 88.5zM276 715l-60 -60l-58 60l58 59z" />
    <glyph glyph-name="questiondown.cap" horiz-adv-x="284" 
d="M223 614h-84v91h84v-91zM246 68l-12 -73q-84 9 -138 58.5t-54 145.5q0 41 17.5 80.5t39 65.5t39 58.5t17.5 62.5q0 19 -6 61l67 16q11 -51 11 -78q0 -43 -17 -83t-37 -65t-37 -55t-17 -55q0 -58 36 -94.5t91 -44.5z" />
    <glyph glyph-name="question.smcp" horiz-adv-x="298" 
d="M262 448q0 -35 -16 -67t-35 -53t-35 -48.5t-16 -53.5q0 -22 4 -43l-53 -15q-9 31 -9 61q0 35 14 68.5t30.5 54.5t30.5 46t14 46q0 46 -27 70.5t-80 36.5l13 70q69 -9 117 -53.5t48 -119.5zM176 0h-80v83h80v-83z" />
    <glyph glyph-name="questiondown.smcp" horiz-adv-x="298" 
d="M49 99q0 35 16 67t35 53t35 48.5t16 53.5q0 22 -4 43l53 15q9 -31 9 -61q0 -45 -22.5 -85.5t-44.5 -72.5t-22 -57q0 -46 27 -70.5t80 -36.5l-13 -70q-69 9 -117 53.5t-48 119.5zM135 547h80v-83h-80v83z" />
    <glyph glyph-name="exclamdown.cap" horiz-adv-x="207" 
d="M141 615h-84v91h84v-91zM137 -1h-76v390l5 145h66l5 -145v-390z" />
    <glyph glyph-name="exclam.smcp" horiz-adv-x="265" 
d="M161 312l-4 -140h-62l-4 140v295h70v-295zM166 0h-81v83h81v-83z" />
    <glyph glyph-name="exclamdown.smcp" horiz-adv-x="265" 
d="M97 234l4 140h62l4 -140v-295h-70v295zM92 546h81v-83h-81v83z" />
    <glyph glyph-name="hyphen.cap" horiz-adv-x="264" 
d="M248 322h-232v69h232v-69z" />
    <glyph glyph-name="endash.cap" horiz-adv-x="461" 
d="M431 322h-401v69h401v-69z" />
    <glyph glyph-name="emdash.cap" horiz-adv-x="661" 
d="M631 322h-601v69h601v-69z" />
    <glyph glyph-name="slash.smcp" horiz-adv-x="316" 
d="M288 616l-193 -678h-67l194 678h66z" />
    <glyph glyph-name="backslash.smcp" horiz-adv-x="318" 
d="M223 -62l-193 678h65l195 -678h-67z" />
    <glyph glyph-name="parenleft.cap" horiz-adv-x="254" 
d="M254 808l-8 -9q-7 -9 -14.5 -19.5t-19 -28.5t-22.5 -39.5t-23 -48.5t-22 -59.5t-18 -69t-12.5 -80.5t-4.5 -90q0 -269 139 -464q3 -4 4 -5l-52 -42q-12 11 -27.5 31t-41 66t-46 100t-35.5 138t-15 175q0 92 15.5 173.5t36.5 133t47.5 94t42 59.5t26.5 26z" />
    <glyph glyph-name="parenright.cap" horiz-adv-x="255" 
d="M53 -149l-49 44q0 1 8 12.5t15.5 23t19.5 32t22 43t22 52t21.5 63t17 71t12 81.5t4.5 90q0 94 -18 177.5t-45.5 138t-45 81t-32.5 44.5l-3 3l50 41q16 -13 37.5 -40.5t54.5 -85t55 -152.5t22 -208q0 -112 -21.5 -210t-54.5 -160.5t-54 -93t-38 -47.5z" />
    <glyph glyph-name="bracketleft.cap" horiz-adv-x="255" 
d="M218 -142h-145v974h145v-70h-71v-834h71v-70z" />
    <glyph glyph-name="bracketright.cap" horiz-adv-x="255" 
d="M182 -142h-145v70h71v834h-71v70h145v-974z" />
    <glyph glyph-name="braceleft.cap" horiz-adv-x="253" 
d="M242 -142h-26q-65 0 -103.5 30.5t-38.5 112.5q0 19 1 30l16 195q2 32 -15.5 60t-45.5 28v75q28 0 46 26.5t15 60.5l-16 203q-13 172 141 172h26v-71q-59 0 -79 -23t-15 -84l13 -176q4 -54 -11 -92t-45 -53v-2q65 -42 56 -141l-13 -178q-4 -58 17 -80.5t77 -22.5v-70z" />
    <glyph glyph-name="braceright.cap" horiz-adv-x="253" 
d="M223 320q-28 0 -46 -27t-15 -61l16 -202q13 -172 -141 -172h-26v70q59 0 79 23t15 85l-13 176q-9 110 56 143v2q-65 42 -56 143l13 178q4 58 -17 80.5t-77 22.5v70h26q65 0 103.5 -30.5t38.5 -112.5q0 -19 -1 -30l-16 -195q-2 -32 15.5 -60t45.5 -28v-75z" />
    <glyph glyph-name="section.pnum_lnum" horiz-adv-x="367" 
d="M371 724l-30 -60q-40 28 -79 28q-19 0 -31 -19.5t-12 -48.5q0 -41 6 -79l53 -357q13 -87 13 -151q0 -107 -55.5 -180t-142.5 -73q-50 0 -95 30l22 62q37 -23 66 -23q20 0 29.5 25t9.5 60q0 31 -13 122l-47 345q-9 58 -9 104q0 119 56 185.5t145 66.5q33 0 65 -11t49 -26z
M217 90l-59 433q-4 28 -4 57q0 24 2.5 45.5t5.5 30.5l2 10l-3 3q-37 -51 -37 -135q0 -32 6 -72l58 -428q4 -31 4 -61q0 -52 -15 -97l3 -3q42 54 42 147q0 38 -5 70z" />
    <glyph glyph-name="numbersign.pnum_lnum" horiz-adv-x="373" 
d="M351 159h-68l-7 -159h-61l7 159h-85l-7 -159h-60l6 159h-55v67h59l10 254h-69v66h72l7 161h62l-8 -161h85l7 161h61l-7 -161h51v-66h-54l-11 -254h65v-67zM235 480h-84l-10 -254h84z" />
    <glyph glyph-name="ordfeminine.smcp" horiz-adv-x="323" 
d="M288 391h-65l-24 106h-75l-26 -106h-62l93 317h72zM284 300h-248v56h248v-56zM193 538q-3 17 -10 47.5t-11 49.5t-3 19h-11q-17 -74 -26 -116h61z" />
    <glyph glyph-name="quotedblleft.smcp" horiz-adv-x="323" 
d="M279 676q-21 -70 -21 -122v-80h-75v53q0 67 32 149h64zM154 676q-21 -70 -21 -122v-80h-75v53q0 67 32 149h64z" />
    <glyph glyph-name="quotedblright.smcp" horiz-adv-x="321" 
d="M265 623q0 -67 -32 -149h-63q21 76 21 122v80h74v-53zM140 623q0 -67 -32 -149h-64q22 73 22 122v80h74v-53z" />
    <glyph glyph-name="quoteleft.smcp" horiz-adv-x="208" 
d="M164 676q-21 -70 -21 -122v-80h-75v53q0 67 32 149h64z" />
    <glyph glyph-name="quoteright.smcp" horiz-adv-x="204" 
d="M140 623q0 -67 -32 -149h-64q22 73 22 122v80h74v-53z" />
    <glyph glyph-name="guilsinglright.cap" horiz-adv-x="207" 
d="M185 349l-101 -219l-59 22l82 197l-81 194l59 26z" />
    <glyph glyph-name="guilsinglleft.cap" horiz-adv-x="207" 
d="M182 547l-82 -197l81 -194l-58 -23l-101 217l100 220z" />
    <glyph glyph-name="guillemotleft.cap" horiz-adv-x="353" 
d="M328 547l-82 -197l82 -194l-59 -25l-100 219l100 219zM183 547l-82 -197l82 -194l-59 -25l-100 219l100 219z" />
    <glyph glyph-name="guillemotright.cap" horiz-adv-x="353" 
d="M330 349l-101 -220l-59 23l82 197l-81 194l59 25zM185 349l-101 -220q-1 0 -14.5 5.5t-28 11t-16.5 6.5l82 197l-81 194l59 25z" />
    <glyph glyph-name="asterisk.alt" horiz-adv-x="315" 
d="M287 698l-92 -54l43 -99l-80 71l-81 -71l43 99l-92 54l107 -10l23 104l23 -104z" />
    <glyph glyph-name="fi.alt" horiz-adv-x="452" 
d="M385 708q-39 -14 -87 -14q-14 0 -40 3t-37 3q-82 0 -82 -102v-52h253v-546h-77v480h-176v-480h-77v480h-56v66h56v43q0 185 156 185q13 0 42.5 -2.5t51.5 -3.5q20 0 62 4z" />
    <glyph glyph-name="fl.alt" horiz-adv-x="452" 
d="M392 0h-77v695q-18 -2 -49 1.5t-45 3.5q-40 0 -61 -23.5t-21 -78.5v-52h83v-66h-83v-480h-77v480h-56v66h56v43q0 185 156 185q12 0 41.5 -4t52.5 -4q45 0 80 5v-771z" />
    <glyph glyph-name="f_h.alt" horiz-adv-x="706" 
d="M392 0h-77v695q-18 -2 -49 1.5t-45 3.5q-40 0 -61 -23.5t-21 -78.5v-52h83v-66h-83v-480h-77v480h-56v66h56v43q0 185 156 185q12 0 41.5 -4t52.5 -4q45 0 80 5v-283q12 18 49 44.5t77 26.5q35 0 60.5 -14t38 -33t19.5 -50t8.5 -53.5t1.5 -55.5v-353h-75v346
q0 74 -13.5 105.5t-57.5 31.5q-36 0 -108 -58v-425z" />
    <glyph glyph-name="f_b.alt" horiz-adv-x="690" 
d="M62 0v480h-56v66h56v43q0 185 156 185q12 0 41.5 -4t52.5 -4q45 0 80 5v-700q21 -7 70 -7q55 0 86.5 59.5t31.5 152.5q0 95 -22 150.5t-79 55.5q-23 0 -50 -10l-6 64l11 4q10 4 24.5 7t29.5 3q82 0 125.5 -67.5t43.5 -190.5q0 -158 -55 -229t-141 -71q-80 0 -145 27v676
q-18 -2 -49.5 1.5t-45.5 3.5q-40 0 -61 -23.5t-21 -78.5v-52h83v-66h-83v-480h-77z" />
    <glyph glyph-name="f_j.alt" horiz-adv-x="453" 
d="M392 546v-568q0 -112 -36.5 -158.5t-105.5 -46.5q-28 0 -62 14l14 67q22 -9 45 -9q37 0 52.5 32t15.5 96v507h-176v-480h-77v480h-56v66h56v43q0 185 156 185q13 0 42.5 -2.5t51.5 -3.5q20 0 62 4l11 -64q-39 -14 -87 -14q-14 0 -40 3t-37 3q-82 0 -82 -102v-52h253z" />
    <glyph glyph-name="f_k.alt" horiz-adv-x="656" 
d="M656 52l-22 -61q-77 7 -135 114l-85 154l-16 29l23 49l135 209h87l-168 -256l79 -135q43 -73 102 -103zM392 0h-77v695q-18 -2 -49 1.5t-45 3.5q-40 0 -61 -23.5t-21 -78.5v-52h83v-66h-83v-480h-77v480h-56v66h56v43q0 185 156 185q12 0 41.5 -4t52.5 -4q45 0 80 5v-771
z" />
    <glyph glyph-name="f_f.alt" horiz-adv-x="507" 
d="M566 756l-11 -69q-45 13 -81 13q-41 0 -61 -22.5t-20 -79.5v-52h83v-66h-83v-480h-77v480h-177v-480h-77v480h-56v66h56v43q0 99 47.5 142t115.5 43q77 0 146 -30q37 30 100 30q54 0 95 -18zM139 598v-52h177v43q0 54 17 95q-41 17 -108 17q-86 0 -86 -103z" />
    <glyph glyph-name="f_f_i.alt" horiz-adv-x="704" 
d="M636 708q-41 -14 -87 -14q-14 0 -40 3t-37 3q-82 0 -82 -102v-52h253v-546h-77v480h-176v-480h-77v480h-174v-480h-77v480h-56v66h56v43q0 185 157 185q65 0 150 -31q37 31 100 31q13 0 42.5 -2.5t51.5 -3.5q20 0 62 4zM139 598v-52h174v43q0 58 17 95q-60 17 -110 17
q-41 0 -61 -23t-20 -80z" />
    <glyph glyph-name="f_f_l.alt" horiz-adv-x="705" 
d="M645 0h-77v695q-18 -2 -49 1.5t-45 3.5q-82 0 -82 -102v-52h83v-66h-83v-480h-76v480h-177v-480h-77v480h-56v66h56v43q0 99 47.5 142t115.5 43q77 0 146 -30q38 30 101 30q12 0 41 -4t52 -4q47 0 80 5v-771zM316 589q0 57 16 95q-40 17 -107 17q-86 0 -86 -103v-52h177
v43z" />
    <glyph glyph-name="f_f_j.alt" horiz-adv-x="698" 
d="M139 595v-49h174v43q0 60 17 100q-56 13 -101 13t-67.5 -24t-22.5 -83zM565 480h-176v-480h-76v480h-174v-480h-76v480h-56v66h56v44q0 186 164 186q66 0 150 -28q37 26 92 26q13 0 42 -2.5t51 -3.5q22 0 62 4l12 -64q-41 -14 -87 -14q-14 0 -40 3t-38 3q-82 0 -82 -102
v-52h253v-567q0 -112 -36.5 -159.5t-104.5 -47.5q-26 0 -63 15l14 68q24 -10 46 -10q67 0 67 128v507z" />
    <glyph glyph-name="Acute" horiz-adv-x="563" 
d="M382 808l-175 -64l-21 49l170 84z" />
    <glyph glyph-name="Breve" horiz-adv-x="425" 
d="M342 821q-15 -25 -51 -49t-82 -24q-79 0 -130 72l40 40q44 -48 91 -48q51 0 92 45z" />
    <glyph glyph-name="Caron" horiz-adv-x="464" 
d="M371 823l-145 -90l-143 89l27 47l116 -64l117 63z" />
    <glyph glyph-name="Circumflex" horiz-adv-x="464" 
d="M84 780l145 89l143 -89l-27 -46l-116 64l-116 -63z" />
    <glyph glyph-name="Dieresis" horiz-adv-x="309" 
d="M284 799l-54 -55l-54 55l54 53zM131 799l-54 -55l-53 55l53 53z" />
    <glyph glyph-name="Dotaccent" horiz-adv-x="238" 
d="M174 802l-54 -55l-54 55l54 53z" />
    <glyph glyph-name="Hungarumlaut" horiz-adv-x="534" 
d="M456 800l-168 -64l-20 49l162 81zM271 861l-135 -120l-36 38l122 134z" />
    <glyph glyph-name="Grave" horiz-adv-x="563" 
d="M356 744l-175 64l25 69l171 -84z" />
    <glyph glyph-name="Macron" 
d="M323 766h-232v62h232v-62z" />
    <glyph glyph-name="Tilde" horiz-adv-x="563" 
d="M418 807q-32 -45 -80 -45q-21 0 -57.5 11t-55.5 11q-26 0 -55 -20l-30 39q42 42 93 42q23 0 55 -11t46 -11q7 0 13 1.5t10.5 3t9 4.5t7 4.5t7 5.5t5.5 5z" />
    <glyph glyph-name="commaaccent" horiz-adv-x="230" 
d="M132 -60l-23 -185h-58l12 185h69z" />
    <glyph glyph-name="zero.opencirc" horiz-adv-x="840" 
d="M420 -5q-149 0 -254.5 105t-105.5 254t105.5 254t254.5 105t254.5 -105t105.5 -254q0 -148 -105.5 -253.5t-254.5 -105.5zM420 48q127 0 216.5 89.5t89.5 216.5t-89.5 216.5t-216.5 89.5t-216.5 -89.5t-89.5 -216.5t89.5 -216.5t216.5 -89.5zM415 165q-150 0 -150 183
q0 39 7.5 71t24.5 61t49 45t77 16q148 0 148 -182q0 -88 -37 -141t-119 -53zM417 218q87 0 87 137q0 132 -83 132q-89 0 -89 -138q0 -131 85 -131z" />
    <glyph glyph-name="zero.closecirc" horiz-adv-x="840" 
d="M420 -5q-149 0 -254.5 105t-105.5 254t105.5 254t254.5 105t254.5 -105t105.5 -254q0 -148 -105.5 -253.5t-254.5 -105.5zM415 165q82 0 119 53t37 141q0 182 -148 182q-45 0 -77 -16t-49 -45t-24.5 -61t-7.5 -71q0 -183 150 -183zM417 218q-85 0 -85 131q0 138 89 138
q83 0 83 -132q0 -137 -87 -137z" />
    <glyph glyph-name="zero.closecirc_fina" 
d="M136 226q110 0 110 137q0 129 -104 129q-113 0 -113 -137q0 -129 107 -129zM138 269q-55 0 -55 87q0 90 56 90q54 0 54 -86q0 -91 -55 -91zM0 -5v718q149 0 254.5 -105t105.5 -254t-105.5 -254t-254.5 -105z" />
    <glyph glyph-name="one.closecirc_fina" 
d="M0 -5v718q149 0 254.5 -105t105.5 -254t-105.5 -254t-254.5 -105zM115 228h55v261l-116 -3v-44h61v-214z" />
    <glyph glyph-name="two.closecirc_fina" 
d="M35 229h189v46h-122q55 32 87 63.5t32 73.5q0 36 -25 58t-65 22q-51 0 -88 -35l21 -35q24 22 61 22q18 0 29.5 -9.5t11.5 -27.5q0 -16 -9 -32t-33.5 -37.5t-37.5 -31t-51 -37.5v-40zM0 -5v718q149 0 254.5 -105t105.5 -254t-105.5 -254t-254.5 -105z" />
    <glyph glyph-name="three.closecirc_fina" 
d="M105 225q45 0 74.5 19t29.5 60q0 51 -53 65q40 15 40 58q0 31 -23.5 48t-61.5 17t-72 -18l14 -36q28 12 51 12q17 0 27.5 -8t10.5 -21q0 -36 -61 -43v-29q38 -2 55.5 -11t17.5 -32q0 -36 -54 -36q-23 0 -63 8l-9 -41q36 -12 77 -12zM0 -5v718q149 0 254.5 -105
t105.5 -254t-105.5 -254t-254.5 -105z" />
    <glyph glyph-name="four.closecirc_fina" 
d="M139 229h52v61h42v41h-42v157h-81l-88 -153v-45h117v-61zM0 -5v718q149 0 254.5 -105t105.5 -254t-105.5 -254t-254.5 -105zM63 331l76 127v-127h-76z" />
    <glyph glyph-name="five.closecirc_fina" 
d="M0 -5v718q149 0 254.5 -105t105.5 -254t-105.5 -254t-254.5 -105zM111 225q43 0 72.5 24t29.5 64q0 38 -25.5 58t-68.5 20h-22v55h106v43h-156v-142q27 3 62 3q47 0 47 -42q0 -19 -12 -30.5t-34 -11.5q-26 0 -63 10l-11 -41q40 -10 75 -10z" />
    <glyph glyph-name="six.closecirc_fina" 
d="M133 225q41 0 68.5 23t27.5 68q0 38 -23.5 57t-63.5 19q-26 0 -54 -14q5 33 23.5 51.5t44.5 18.5q21 0 47 -6l13 41q-29 10 -61 10q-55 0 -89.5 -40.5t-34.5 -110.5q0 -64 25.5 -90.5t76.5 -26.5zM135 267q-27 0 -36.5 16.5t-10.5 63.5q30 8 45 8q18 0 29 -11t11 -32
q0 -20 -11 -32.5t-27 -12.5zM0 -5v718q149 0 254.5 -105t105.5 -254t-105.5 -254t-254.5 -105z" />
    <glyph glyph-name="seven.closecirc_fina" 
d="M91 222l120 224v42h-183v-50h129l-118 -202zM0 -5v718q149 0 254.5 -105t105.5 -254t-105.5 -254t-254.5 -105z" />
    <glyph glyph-name="eight.closecirc_fina" 
d="M129 226q47 0 75 19.5t28 55.5q0 40 -55 66q47 25 47 62q0 29 -25 46t-67 17q-40 0 -67 -17.5t-27 -49.5q0 -37 39 -58q-48 -31 -48 -71q0 -70 100 -70zM130 264q-46 0 -46 38q0 29 30 47q3 -1 10 -4.5t10.5 -5t9 -4t8.5 -4.5t7.5 -4.5t6.5 -5t4.5 -5.5t3.5 -6t1 -6
q0 -19 -12.5 -29.5t-32.5 -10.5zM138 384q-15 6 -23.5 10.5t-16 11.5t-7.5 15q0 31 40 31q37 0 37 -28q0 -20 -30 -40zM0 -5v718q149 0 254.5 -105t105.5 -254t-105.5 -254t-254.5 -105z" />
    <glyph glyph-name="nine.closecirc_fina" 
d="M106 225q55 0 90 40.5t35 112.5q0 63 -25 89t-76 26q-42 0 -70 -22.5t-28 -67.5q0 -38 23.5 -57t64.5 -19q29 0 53 13q-5 -33 -23 -51t-44 -18q-21 0 -47 6l-13 -42q33 -10 60 -10zM129 364q-40 0 -40 42q0 20 11 32.5t28 12.5q27 0 36 -16.5t10 -61.5q-24 -9 -45 -9z
M0 -5v718q149 0 254.5 -105t105.5 -254t-105.5 -254t-254.5 -105z" />
    <glyph glyph-name="zero.closecirc_init" 
d="M288 226q111 0 111 137q0 130 -105 130q-112 0 -112 -137q0 -130 106 -130zM290 270q-54 0 -54 87q0 90 56 90q54 0 54 -86q0 -91 -56 -91zM420 -5q-149 0 -254.5 105t-105.5 254t105.5 254t254.5 105v-718z" />
    <glyph glyph-name="one.closecirc_init" 
d="M420 -5q-149 0 -254.5 105t-105.5 254t105.5 254t254.5 105v-718zM286 229h55v260l-116 -3v-43h61v-214z" />
    <glyph glyph-name="two.closecirc_init" 
d="M203 229h189v46h-121q35 21 57 37t42 43.5t20 56.5q0 36 -25.5 58t-65.5 22q-51 0 -88 -35l22 -35q24 22 60 22q18 0 29.5 -9.5t11.5 -27.5q0 -22 -21.5 -47.5t-42 -41.5t-67.5 -49v-40zM420 -5q-149 0 -254.5 105t-105.5 254t105.5 254t254.5 105v-718z" />
    <glyph glyph-name="three.closecirc_init" 
d="M279 225q45 0 74.5 19t29.5 60q0 51 -53 65q40 15 40 58q0 31 -23.5 48t-61.5 17t-72 -18l13 -36q30 12 52 12q17 0 27.5 -8t10.5 -21q0 -36 -61 -43v-29q38 -2 55 -11t17 -32q0 -36 -53 -36q-23 0 -63 8l-10 -41q38 -12 78 -12zM420 -5q-149 0 -254.5 105t-105.5 254
t105.5 254t254.5 105v-718z" />
    <glyph glyph-name="four.closecirc_init" 
d="M302 229h52v61h42v41h-42v157h-81l-88 -153v-45h117v-61zM420 -5q-149 0 -254.5 105t-105.5 254t105.5 254t254.5 105v-718zM226 331l76 127v-127h-76z" />
    <glyph glyph-name="five.closecirc_init" 
d="M285 224q43 0 72 24t29 64q0 39 -25.5 59t-68.5 20q-5 0 -13 -0.5t-9 -0.5v55h106v44h-156v-142q28 2 62 2q48 0 48 -42q0 -19 -12.5 -30.5t-34.5 -11.5q-20 0 -62 10l-12 -41q50 -10 76 -10zM420 -5q-149 0 -254.5 105t-105.5 254t105.5 254t254.5 105v-718z" />
    <glyph glyph-name="six.closecirc_init" 
d="M294 225q41 0 68.5 23t27.5 68q0 38 -23.5 57t-63.5 19q-26 0 -54 -14q5 33 23.5 51.5t44.5 18.5q19 0 47 -6l13 41q-29 10 -61 10q-55 0 -90 -40.5t-35 -110.5q0 -64 26 -90.5t77 -26.5zM296 267q-28 0 -37.5 16.5t-9.5 63.5q30 8 44 8q41 0 41 -43q0 -20 -11 -32.5
t-27 -12.5zM420 -5q-149 0 -254.5 105t-105.5 254t105.5 254t254.5 105v-718z" />
    <glyph glyph-name="seven.closecirc_init" 
d="M420 -5q-149 0 -254.5 105t-105.5 254t105.5 254t254.5 105v-718zM271 222l120 224v42h-183v-50h129l-118 -202z" />
    <glyph glyph-name="eight.closecirc_init" 
d="M288 226q46 0 74 19.5t28 55.5q0 41 -54 66q47 25 47 62q0 29 -25 46t-67 17q-40 0 -67 -17.5t-27 -49.5q0 -37 39 -58q-48 -31 -48 -71q0 -70 100 -70zM289 264q-46 0 -46 38q0 29 30 47q3 -1 10 -4.5t10.5 -5t9 -4t8.5 -4.5t7.5 -4.5t6.5 -5t4.5 -5.5t3.5 -6t1 -6
q0 -19 -12.5 -29.5t-32.5 -10.5zM297 384q-47 19 -47 37q0 31 40 31q36 0 36 -28q0 -21 -29 -40zM420 -5q-149 0 -254.5 105t-105.5 254t105.5 254t254.5 105v-718z" />
    <glyph glyph-name="nine.closecirc_init" 
d="M265 225q55 0 89.5 40.5t34.5 112.5q0 63 -25 89t-76 26q-42 0 -69.5 -22.5t-27.5 -67.5q0 -38 23.5 -57t63.5 -19q28 0 54 13q-5 -33 -23.5 -51t-44.5 -18q-21 0 -47 6l-13 -42q33 -10 61 -10zM287 364q-18 0 -29 10.5t-11 31.5q0 20 11 32.5t28 12.5q27 0 36 -16.5
t10 -61.5q-22 -9 -45 -9zM420 -5q-149 0 -254.5 105t-105.5 254t105.5 254t254.5 105v-718z" />
    <glyph glyph-name="zero.closecirc_medi" horiz-adv-x="230" 
d="M115 226q110 0 110 137q0 129 -104 129q-113 0 -113 -137q0 -129 107 -129zM117 268q-55 0 -55 88q0 91 56 91q54 0 54 -87q0 -92 -55 -92zM0 -5v718h230v-718h-230z" />
    <glyph glyph-name="one.closecirc_medi" horiz-adv-x="230" 
d="M104 229h55v260l-116 -3v-43h61v-214zM0 -5v718h230v-718h-230z" />
    <glyph glyph-name="two.closecirc_medi" horiz-adv-x="230" 
d="M20 229h190v46h-122q55 32 87 63.5t32 73.5q0 36 -25 58t-65 22q-52 0 -89 -35l22 -35q24 22 60 22q41 0 41 -37q0 -22 -21.5 -47.5t-42 -41.5t-67.5 -49v-40zM0 -5v718h230v-718h-230z" />
    <glyph glyph-name="three.closecirc_medi" horiz-adv-x="230" 
d="M102 225q45 0 75 19t30 60q0 51 -54 65q41 16 41 58q0 31 -24 48t-62 17t-72 -18l14 -36q28 12 51 12q17 0 28 -8t11 -21q0 -36 -62 -43v-29q38 -2 55.5 -11t17.5 -32q0 -36 -53 -36q-25 0 -63 8l-10 -41q38 -12 77 -12zM0 -5v718h230v-718h-230z" />
    <glyph glyph-name="four.closecirc_medi" horiz-adv-x="230" 
d="M130 229h52v61h33v41h-33v157h-81l-88 -153v-45h117v-61zM0 -5v718h230v-718h-230zM54 331l76 127v-127h-76z" />
    <glyph glyph-name="five.closecirc_medi" horiz-adv-x="230" 
d="M0 -5v718h230v-718h-230zM101 225q43 0 72.5 24t29.5 64q0 38 -25.5 58t-68.5 20h-22v55h106v43h-156v-142q27 3 61 3q48 0 48 -42q0 -19 -12 -30.5t-34 -11.5q-27 0 -63 10l-11 -41q40 -10 75 -10z" />
    <glyph glyph-name="six.closecirc_medi" horiz-adv-x="230" 
d="M119 225q41 0 68 23t27 68q0 76 -86 76q-26 0 -54 -14q5 33 23.5 51.5t44.5 18.5q19 0 47 -6l13 41q-29 10 -61 10q-55 0 -89.5 -40.5t-34.5 -110.5q0 -64 25.5 -90.5t76.5 -26.5zM121 267q-28 0 -37.5 16.5t-9.5 63.5q30 8 44 8q41 0 41 -43q0 -20 -11 -32.5t-27 -12.5z
M0 -5v718h230v-718h-230z" />
    <glyph glyph-name="seven.closecirc_medi" horiz-adv-x="230" 
d="M87 222l120 224v42h-183v-50h129l-118 -202zM0 -5v718h230v-718h-230z" />
    <glyph glyph-name="eight.closecirc_medi" horiz-adv-x="230" 
d="M114 226q46 0 74 19.5t28 55.5q0 40 -54 66q47 25 47 62q0 29 -25 46t-67 17q-40 0 -67 -17.5t-27 -49.5q0 -37 39 -58q-48 -30 -48 -71q0 -70 100 -70zM115 264q-46 0 -46 38q0 29 30 47q3 -1 10 -4.5t10.5 -5t9 -4t8.5 -4.5t7.5 -4.5t6.5 -5t4.5 -5.5t3.5 -6t1 -6
q0 -19 -12.5 -29.5t-32.5 -10.5zM122 384q-46 19 -46 37q0 31 40 31q36 0 36 -28q0 -20 -30 -40zM0 -5v718h230v-718h-230z" />
    <glyph glyph-name="nine.closecirc_medi" horiz-adv-x="230" 
d="M89 225q55 0 90 40.5t35 112.5q0 63 -25 89t-76 26q-42 0 -69.5 -22.5t-27.5 -67.5q0 -38 23.5 -57t63.5 -19q28 0 54 13q-5 -33 -23.5 -51t-44.5 -18q-21 0 -47 6l-13 -42q33 -10 60 -10zM112 364q-18 0 -29 10.5t-11 31.5q0 20 11 32.5t28 12.5q27 0 36 -16.5t10 -61.5
q-24 -9 -45 -9zM0 -5v718h230v-718h-230z" />
    <glyph glyph-name="zero.opencirc_fina" 
d="M0 -5v53q127 0 216.5 89.5t89.5 216.5t-89.5 216.5t-216.5 89.5v53q149 0 254.5 -105t105.5 -254t-105.5 -254t-254.5 -105zM136 226q-107 0 -107 129q0 137 113 137q104 0 104 -129q0 -137 -110 -137zM138 269q55 0 55 91q0 86 -54 86q-56 0 -56 -90q0 -87 55 -87z" />
    <glyph glyph-name="one.opencirc_fina" 
d="M0 -5v53q127 0 216.5 89.5t89.5 216.5t-89.5 216.5t-216.5 89.5v53q149 0 254.5 -105t105.5 -254t-105.5 -254t-254.5 -105zM115 228v214h-61v44l116 3v-261h-55z" />
    <glyph glyph-name="two.opencirc_fina" 
d="M35 229v40q38 28 51 37.5t37.5 31t33.5 37.5t9 32q0 18 -11.5 27.5t-29.5 9.5q-37 0 -61 -22l-21 35q37 35 88 35q40 0 65 -22t25 -58q0 -42 -32 -73.5t-87 -63.5h122v-46h-189zM0 -5v53q127 0 216.5 89.5t89.5 216.5t-89.5 216.5t-216.5 89.5v53q149 0 254.5 -105
t105.5 -254t-105.5 -254t-254.5 -105z" />
    <glyph glyph-name="three.opencirc_fina" 
d="M105 225q-41 0 -77 12l9 41q40 -8 63 -8q54 0 54 36q0 23 -17.5 32t-55.5 11v29q61 7 61 43q0 13 -10.5 21t-27.5 8q-23 0 -51 -12l-14 36q34 18 72 18t61.5 -17t23.5 -48q0 -43 -40 -58q53 -14 53 -65q0 -41 -29.5 -60t-74.5 -19zM0 -5v53q127 0 216.5 89.5t89.5 216.5
t-89.5 216.5t-216.5 89.5v53q149 0 254.5 -105t105.5 -254t-105.5 -254t-254.5 -105z" />
    <glyph glyph-name="four.opencirc_fina" 
d="M0 -5v53q127 0 216.5 89.5t89.5 216.5t-89.5 216.5t-216.5 89.5v53q149 0 254.5 -105t105.5 -254t-105.5 -254t-254.5 -105zM139 229v61h-117v45l88 153h81v-157h42v-41h-42v-61h-52zM63 331h76v127z" />
    <glyph glyph-name="five.opencirc_fina" 
d="M0 -5v53q127 0 216.5 89.5t89.5 216.5t-89.5 216.5t-216.5 89.5v53q149 0 254.5 -105t105.5 -254t-105.5 -254t-254.5 -105zM111 225q-35 0 -75 10l11 41q37 -10 63 -10q22 0 34 11.5t12 30.5q0 42 -47 42q-35 0 -62 -3v142h156v-43h-106v-55h22q43 0 68.5 -20t25.5 -58
q0 -40 -29.5 -64t-72.5 -24z" />
    <glyph glyph-name="six.opencirc_fina" 
d="M133 225q-51 0 -76.5 26.5t-25.5 90.5q0 70 34.5 110.5t89.5 40.5q32 0 61 -10l-13 -41q-26 6 -47 6q-26 0 -44.5 -18.5t-23.5 -51.5q28 14 54 14q40 0 63.5 -19t23.5 -57q0 -45 -27.5 -68t-68.5 -23zM0 -5v53q127 0 216.5 89.5t89.5 216.5t-89.5 216.5t-216.5 89.5v53
q149 0 254.5 -105t105.5 -254t-105.5 -254t-254.5 -105zM135 267q16 0 27 12.5t11 32.5q0 21 -11 32t-29 11q-15 0 -45 -8q1 -47 10.5 -63.5t36.5 -16.5z" />
    <glyph glyph-name="seven.opencirc_fina" 
d="M0 -5v53q127 0 216.5 89.5t89.5 216.5t-89.5 216.5t-216.5 89.5v53q149 0 254.5 -105t105.5 -254t-105.5 -254t-254.5 -105zM91 222l-52 14l118 202h-129v50h183v-42z" />
    <glyph glyph-name="eight.opencirc_fina" 
d="M129 226q-100 0 -100 70q0 40 48 71q-39 21 -39 58q0 32 27 49.5t67 17.5q42 0 67 -17t25 -46q0 -37 -47 -62q55 -26 55 -66q0 -36 -28 -55.5t-75 -19.5zM0 -5v53q127 0 216.5 89.5t89.5 216.5t-89.5 216.5t-216.5 89.5v53q149 0 254.5 -105t105.5 -254t-105.5 -254
t-254.5 -105zM130 264q20 0 32.5 10.5t12.5 29.5q0 3 -1 6t-3.5 6t-4.5 5.5t-6.5 5t-7.5 4.5t-8.5 4.5t-9 4t-10.5 5t-10 4.5q-30 -18 -30 -47q0 -38 46 -38zM138 384q30 20 30 40q0 28 -37 28q-40 0 -40 -31q0 -8 7.5 -15t16 -11.5t23.5 -10.5z" />
    <glyph glyph-name="nine.opencirc_fina" 
d="M106 225q-27 0 -60 10l13 42q26 -6 47 -6q26 0 44 18t23 51q-24 -13 -53 -13q-41 0 -64.5 19t-23.5 57q0 45 28 67.5t70 22.5q51 0 76 -26t25 -89q0 -72 -35 -112.5t-90 -40.5zM0 -5v53q127 0 216.5 89.5t89.5 216.5t-89.5 216.5t-216.5 89.5v53q149 0 254.5 -105
t105.5 -254t-105.5 -254t-254.5 -105zM129 364q21 0 45 9q-1 45 -10 61.5t-36 16.5q-17 0 -28 -12.5t-11 -32.5q0 -42 40 -42z" />
    <glyph glyph-name="zero.opencirc_init" 
d="M420 -5q-149 0 -254.5 105t-105.5 254t105.5 254t254.5 105v-53q-127 0 -216.5 -89.5t-89.5 -216.5t89.5 -216.5t216.5 -89.5v-53zM288 226q-106 0 -106 130q0 137 112 137q105 0 105 -130q0 -137 -111 -137zM290 270q56 0 56 91q0 86 -54 86q-56 0 -56 -90q0 -87 54 -87
z" />
    <glyph glyph-name="one.opencirc_init" 
d="M420 -5q-149 0 -254.5 105t-105.5 254t105.5 254t254.5 105v-53q-127 0 -216.5 -89.5t-89.5 -216.5t89.5 -216.5t216.5 -89.5v-53zM286 229v214h-61v43l116 3v-260h-55z" />
    <glyph glyph-name="two.opencirc_init" 
d="M203 229v40q47 33 67.5 49t42 41.5t21.5 47.5q0 18 -11.5 27.5t-29.5 9.5q-36 0 -60 -22l-22 35q37 35 88 35q40 0 65.5 -22t25.5 -58q0 -29 -20 -56.5t-42 -43.5t-57 -37h121v-46h-189zM420 -5q-149 0 -254.5 105t-105.5 254t105.5 254t254.5 105v-53
q-127 0 -216.5 -89.5t-89.5 -216.5t89.5 -216.5t216.5 -89.5v-53z" />
    <glyph glyph-name="three.opencirc_init" 
d="M279 225q-40 0 -78 12l10 41q40 -8 63 -8q53 0 53 36q0 23 -17 32t-55 11v29q61 7 61 43q0 13 -10.5 21t-27.5 8q-22 0 -52 -12l-13 36q34 18 72 18t61.5 -17t23.5 -48q0 -43 -40 -58q53 -14 53 -65q0 -41 -29.5 -60t-74.5 -19zM420 -5q-149 0 -254.5 105t-105.5 254
t105.5 254t254.5 105v-53q-127 0 -216.5 -89.5t-89.5 -216.5t89.5 -216.5t216.5 -89.5v-53z" />
    <glyph glyph-name="four.opencirc_init" 
d="M420 -5q-149 0 -254.5 105t-105.5 254t105.5 254t254.5 105v-53q-127 0 -216.5 -89.5t-89.5 -216.5t89.5 -216.5t216.5 -89.5v-53zM302 229v61h-117v45l88 153h81v-157h42v-41h-42v-61h-52zM226 331h76v127z" />
    <glyph glyph-name="five.opencirc_init" 
d="M285 224q-26 0 -76 10l12 41q42 -10 62 -10q22 0 34.5 11.5t12.5 30.5q0 42 -48 42q-34 0 -62 -2v142h156v-44h-106v-55q1 0 9 0.5t13 0.5q43 0 68.5 -20t25.5 -59q0 -40 -29 -64t-72 -24zM420 -5q-149 0 -254.5 105t-105.5 254t105.5 254t254.5 105v-53
q-127 0 -216.5 -89.5t-89.5 -216.5t89.5 -216.5t216.5 -89.5v-53z" />
    <glyph glyph-name="six.opencirc_init" 
d="M294 225q-51 0 -77 26.5t-26 90.5q0 70 35 110.5t90 40.5q32 0 61 -10l-13 -41q-28 6 -47 6q-26 0 -44.5 -18.5t-23.5 -51.5q28 14 54 14q40 0 63.5 -19t23.5 -57q0 -45 -27.5 -68t-68.5 -23zM420 -5q-149 0 -254.5 105t-105.5 254t105.5 254t254.5 105v-53
q-127 0 -216.5 -89.5t-89.5 -216.5t89.5 -216.5t216.5 -89.5v-53zM296 267q16 0 27 12.5t11 32.5q0 43 -41 43q-14 0 -44 -8q0 -47 9.5 -63.5t37.5 -16.5z" />
    <glyph glyph-name="seven.opencirc_init" 
d="M420 -5q-149 0 -254.5 105t-105.5 254t105.5 254t254.5 105v-53q-127 0 -216.5 -89.5t-89.5 -216.5t89.5 -216.5t216.5 -89.5v-53zM271 222l-52 14l118 202h-129v50h183v-42z" />
    <glyph glyph-name="eight.opencirc_init" 
d="M288 226q-100 0 -100 70q0 40 48 71q-39 21 -39 58q0 32 27 49.5t67 17.5q42 0 67 -17t25 -46q0 -37 -47 -62q54 -25 54 -66q0 -36 -28 -55.5t-74 -19.5zM420 -5q-149 0 -254.5 105t-105.5 254t105.5 254t254.5 105v-53q-127 0 -216.5 -89.5t-89.5 -216.5t89.5 -216.5
t216.5 -89.5v-53zM289 264q20 0 32.5 10.5t12.5 29.5q0 3 -1 6t-3.5 6t-4.5 5.5t-6.5 5t-7.5 4.5t-8.5 4.5t-9 4t-10.5 5t-10 4.5q-30 -18 -30 -47q0 -38 46 -38zM297 384q29 19 29 40q0 28 -36 28q-40 0 -40 -31q0 -18 47 -37z" />
    <glyph glyph-name="nine.opencirc_init" 
d="M265 225q-28 0 -61 10l13 42q26 -6 47 -6q26 0 44.5 18t23.5 51q-26 -13 -54 -13q-40 0 -63.5 19t-23.5 57q0 45 27.5 67.5t69.5 22.5q51 0 76 -26t25 -89q0 -72 -34.5 -112.5t-89.5 -40.5zM420 -5q-149 0 -254.5 105t-105.5 254t105.5 254t254.5 105v-53
q-127 0 -216.5 -89.5t-89.5 -216.5t89.5 -216.5t216.5 -89.5v-53zM287 364q23 0 45 9q-1 45 -10 61.5t-36 16.5q-17 0 -28 -12.5t-11 -32.5q0 -21 11 -31.5t29 -10.5z" />
    <glyph glyph-name="zero.opencirc_medi" horiz-adv-x="230" 
d="M115 226q-107 0 -107 129q0 137 113 137q104 0 104 -129q0 -137 -110 -137zM117 269q55 0 55 91q0 86 -54 86q-56 0 -56 -90q0 -87 55 -87zM0 -5v53h230v-53h-230zM0 660v53h230v-53h-230z" />
    <glyph glyph-name="one.opencirc_medi" horiz-adv-x="230" 
d="M104 229v214h-61v43l116 3v-260h-55zM0 -5v53h230v-53h-230zM0 660v53h230v-53h-230z" />
    <glyph glyph-name="two.opencirc_medi" horiz-adv-x="230" 
d="M20 229v40q47 33 67.5 49t42 41.5t21.5 47.5q0 37 -41 37q-36 0 -60 -22l-22 35q37 35 89 35q40 0 65 -22t25 -58q0 -42 -32 -73.5t-87 -63.5h122v-46h-190zM0 -5v53h230v-53h-230zM0 660v53h230v-53h-230z" />
    <glyph glyph-name="three.opencirc_medi" horiz-adv-x="230" 
d="M102 225q-39 0 -77 12l10 41q38 -8 63 -8q53 0 53 36q0 23 -17.5 32t-55.5 11v29q62 7 62 43q0 13 -11 21t-28 8q-23 0 -51 -12l-14 36q34 18 72 18t62 -17t24 -48q0 -42 -41 -58q54 -14 54 -65q0 -41 -30 -60t-75 -19zM0 -5v53h230v-53h-230zM0 660v53h230v-53h-230z
" />
    <glyph glyph-name="four.opencirc_medi" horiz-adv-x="230" 
d="M130 229v61h-117v45l88 153h81v-157h34v-41h-34v-61h-52zM0 -5v53h230v-53h-230zM0 660v53h230v-53h-230zM54 331h76v127z" />
    <glyph glyph-name="five.opencirc_medi" horiz-adv-x="230" 
d="M101 225q-35 0 -75 10l11 41q36 -10 63 -10q22 0 34 11.5t12 30.5q0 42 -48 42q-34 0 -61 -3v142h156v-43h-106v-55h22q43 0 68.5 -20t25.5 -58q0 -40 -29.5 -64t-72.5 -24zM0 660v53h230v-53h-230zM0 -5v53h230v-53h-230z" />
    <glyph glyph-name="six.opencirc_medi" horiz-adv-x="230" 
d="M119 225q-51 0 -77 26.5t-26 90.5q0 70 35 110.5t90 40.5q32 0 61 -10l-13 -41q-28 6 -47 6q-26 0 -44.5 -18.5t-23.5 -51.5q28 14 54 14q40 0 63.5 -19t23.5 -57q0 -45 -27.5 -68t-68.5 -23zM121 267q16 0 27 12.5t11 32.5q0 43 -41 43q-14 0 -44 -8q0 -47 9.5 -63.5
t37.5 -16.5zM0 -5v53h230v-53h-230zM0 660v53h230v-53h-230z" />
    <glyph glyph-name="seven.opencirc_medi" horiz-adv-x="230" 
d="M87 222l-52 14l118 202h-129v50h183v-42zM0 -5v53h230v-53h-230zM0 660v53h230v-53h-230z" />
    <glyph glyph-name="eight.opencirc_medi" horiz-adv-x="230" 
d="M114 226q-101 0 -101 70q0 41 49 71q-39 21 -39 58q0 32 27 49.5t67 17.5q42 0 67 -17t25 -46q0 -37 -47 -62q54 -26 54 -66q0 -36 -28 -55.5t-74 -19.5zM115 264q20 0 32.5 10.5t12.5 29.5q0 3 -1 6t-3.5 6t-4.5 5.5t-6.5 5t-7.5 4.5t-8.5 4.5t-9 4t-10.5 5t-10 4.5
q-30 -18 -30 -47q0 -38 46 -38zM122 384q30 20 30 40q0 28 -36 28q-40 0 -40 -31q0 -18 46 -37zM0 -5v53h230v-53h-230zM0 660v53h230v-53h-230z" />
    <glyph glyph-name="nine.opencirc_medi" horiz-adv-x="230" 
d="M89 225q-27 0 -60 10l13 42q26 -6 47 -6q26 0 44.5 18t23.5 51q-26 -13 -54 -13q-40 0 -63.5 19t-23.5 57q0 45 27.5 67.5t69.5 22.5q51 0 76 -26t25 -89q0 -72 -35 -112.5t-90 -40.5zM112 364q21 0 45 9q-1 45 -10 61.5t-36 16.5q-17 0 -28 -12.5t-11 -32.5
q0 -21 11 -31.5t29 -10.5zM0 -5v53h230v-53h-230zM0 660v53h230v-53h-230z" />
    <glyph glyph-name="zero.tnum_lnum_zero" horiz-adv-x="438" 
d="M410 364q0 -173 -46.5 -273t-147.5 -100q-187 0 -187 351q0 75 9.5 137.5t31 117t62 85.5t96.5 31q182 0 182 -349zM107 346q0 -139 30 -207l136 485q-22 19 -49 19q-37 0 -62 -26t-36 -73.5t-15 -93t-4 -104.5zM332 358q0 141 -29 209l-136 -485q22 -20 52 -20
q35 0 59 24.5t35 70.5t15 92.5t4 108.5z" />
    <glyph glyph-name="zero.pnum_lnum" horiz-adv-x="448" 
d="M414 364q0 -373 -193 -373q-187 0 -187 351q0 75 9.5 137.5t31 117t62 85.5t96.5 31q181 0 181 -349zM337 358q0 285 -108 285q-37 0 -62 -26t-36 -73.5t-15 -93t-4 -104.5q0 -284 112 -284q35 0 58.5 25t35 70.5t15.5 92.5t4 108z" />
    <glyph glyph-name="one.pnum_lnum" horiz-adv-x="273" 
d="M187 0h-75v637h-101v64l176 6v-707z" />
    <glyph glyph-name="two.pnum_lnum" horiz-adv-x="359" 
d="M345 0h-343v66q13 19 66 91.5t83.5 118t60 113t29.5 119.5q0 73 -22 104t-65 31q-37 0 -67 -15.5t-46 -31.5l-24 59q19 21 56 40.5t87 19.5q159 0 159 -203q0 -54 -18 -109t-57 -118t-69 -103.5t-86 -111.5h256v-70z" />
    <glyph glyph-name="three.pnum_lnum" horiz-adv-x="358" 
d="M327 190q0 -104 -47.5 -151.5t-127.5 -47.5q-83 0 -140 34l18 67q66 -26 114 -26q107 0 107 122q0 62 -37.5 101t-100.5 45v68q49 4 82 43t33 92q0 54 -22.5 80t-57.5 26q-20 0 -42 -6.5t-34 -12.5l-12 -7l-24 61q56 37 117 37q69 0 109 -45t40 -125q0 -60 -27.5 -104.5
t-59.5 -63.5q42 -20 77 -67.5t35 -119.5z" />
    <glyph glyph-name="four.pnum_lnum" horiz-adv-x="403" 
d="M393 192h-88v-192h-75v192h-222v72l197 443h100v-444h88v-71zM230 263v357h-4l-30 -92l-113 -265h147z" />
    <glyph glyph-name="five.pnum_lnum" horiz-adv-x="382" 
d="M350 216q0 -105 -48 -165t-131 -60q-74 0 -131 24l18 74q54 -21 112 -21q45 0 74.5 38t29.5 99q0 73 -30.5 108t-79.5 35q-43 0 -104 -8v367h272v-72h-199v-217q9 0 26 0.5t27 0.5q77 0 120.5 -53.5t43.5 -149.5z" />
    <glyph glyph-name="six.pnum_lnum" horiz-adv-x="410" 
d="M383 228q0 -112 -44.5 -176.5t-124.5 -64.5q-94 0 -135.5 74.5t-41.5 241.5q0 191 58 301t168 110q53 0 84 -17l-14 -68q-27 12 -70 12q-150 0 -150 -344q0 -58 4 -98t15.5 -74t33 -51t53.5 -17q41 0 64.5 46.5t23.5 109.5q0 71 -25.5 111.5t-67.5 40.5q-19 0 -59 -8
l-2 67q39 12 71 12q80 0 119.5 -58t39.5 -150z" />
    <glyph glyph-name="seven.pnum_lnum" horiz-adv-x="326" 
d="M325 630l-222 -642l-75 24l222 621h-248v74h323v-77z" />
    <glyph glyph-name="eight.pnum_lnum" horiz-adv-x="411" 
d="M382 172q0 -86 -48.5 -133.5t-130.5 -47.5q-79 0 -126 45t-47 126q0 65 31 113t93 97q-54 47 -78 86.5t-24 95.5q0 77 42 118.5t118 41.5q71 0 111 -45t40 -109q0 -57 -25.5 -98.5t-82.5 -90.5q62 -51 94.5 -96t32.5 -103zM289 550q0 98 -78 98q-88 0 -88 -97
q0 -40 21.5 -72.5t59.5 -68.5q85 71 85 140zM306 178q0 65 -103 154q-97 -70 -97 -163q0 -52 26.5 -81.5t74.5 -29.5q99 0 99 120z" />
    <glyph glyph-name="nine.pnum_lnum" horiz-adv-x="414" 
d="M379 395q0 -216 -53.5 -312.5t-177.5 -96.5q-43 0 -81 15l13 70q45 -12 67 -12q35 0 61 12t42.5 37t27.5 53.5t16 71.5t6.5 80.5t1.5 90.5q0 61 -9.5 111.5t-33.5 87.5t-60 37q-41 0 -64.5 -44t-23.5 -105q0 -166 92 -166q20 0 60 10l5 -67q-41 -13 -78 -13
q-78 0 -117 58.5t-39 163.5q0 107 45.5 171t124.5 64q85 0 130 -85.5t45 -231.5z" />
    <glyph glyph-name="zero.tnum_lnum" horiz-adv-x="470" 
d="M424 364q0 -173 -46.5 -273t-147.5 -100q-186 0 -186 351q0 75 9.5 137t30.5 117t61.5 86t96.5 31q182 0 182 -349zM346 358q0 285 -108 285q-37 0 -61.5 -26t-35.5 -73.5t-15 -93t-4 -104.5q0 -284 111 -284q35 0 59 24.5t35 70.5t15 92.5t4 108.5z" />
    <glyph glyph-name="one.tnum_lnum" horiz-adv-x="470" 
d="M380 0h-282v71h104v566h-105v64l180 6v-636h103v-71z" />
    <glyph glyph-name="two.tnum_lnum" horiz-adv-x="470" 
d="M411 0h-343v66q13 19 66 91.5t83.5 118t60 113t29.5 119.5q0 73 -22 104t-65 31q-37 0 -68 -16t-45 -31l-24 59q19 21 56 40.5t87 19.5q37 0 66 -12t46 -31.5t28 -47t15 -54.5t4 -58q0 -54 -18 -109t-57 -118t-69 -103.5t-86 -111.5h256v-70z" />
    <glyph glyph-name="three.tnum_lnum" horiz-adv-x="470" 
d="M392 190q0 -104 -47.5 -151.5t-127.5 -47.5q-83 0 -140 34l17 67q69 -26 115 -26q107 0 107 122q0 62 -37.5 101t-100.5 45v68q49 4 82 43t33 92q0 54 -22.5 80t-57.5 26q-20 0 -42 -6.5t-35 -12.5l-12 -7l-23 61q55 37 117 37q69 0 108.5 -45t39.5 -125
q0 -60 -27.5 -104.5t-59.5 -63.5q42 -20 77.5 -67.5t35.5 -119.5z" />
    <glyph glyph-name="four.tnum_lnum" horiz-adv-x="470" 
d="M433 192h-89v-192h-74v192h-223v72l198 443h99v-444h89v-71zM270 263v357h-5l-30 -92l-113 -265h148z" />
    <glyph glyph-name="five.tnum_lnum" horiz-adv-x="470" 
d="M401 216q0 -105 -48 -165t-131 -60q-75 0 -132 24l18 74q54 -21 112 -21q46 0 75.5 38t29.5 99q0 73 -31 108t-80 35q-42 0 -104 -8v367h273v-72h-199v-217q9 0 25.5 0.5t26.5 0.5q78 0 121.5 -53.5t43.5 -149.5z" />
    <glyph glyph-name="six.tnum_lnum" horiz-adv-x="470" 
d="M414 228q0 -112 -44.5 -176.5t-124.5 -64.5q-93 0 -135 75t-42 241q0 190 58.5 300.5t167.5 110.5q53 0 84 -17l-13 -68q-28 12 -70 12q-45 0 -76.5 -31.5t-47 -86t-21.5 -109t-6 -117.5q0 -118 22.5 -179t83.5 -61q41 0 64.5 46.5t23.5 109.5q0 71 -25 111.5t-68 40.5
q-19 0 -59 -8l-2 67q41 12 71 12q81 0 120 -58t39 -150z" />
    <glyph glyph-name="seven.tnum_lnum" horiz-adv-x="470" 
d="M407 630l-222 -641l-74 23l221 621h-272v74h347v-77z" />
    <glyph glyph-name="eight.tnum_lnum" horiz-adv-x="470" 
d="M409 172q0 -87 -48 -134t-131 -47q-78 0 -125 45t-47 126q0 65 31 113t92 97q-54 48 -78 87t-24 95q0 77 42.5 118.5t117.5 41.5q72 0 111.5 -45t39.5 -109q0 -57 -25.5 -98.5t-81.5 -90.5q62 -51 94 -96t32 -103zM317 550q0 98 -79 98q-44 0 -66 -25.5t-22 -71.5
q0 -40 21.5 -72.5t59.5 -68.5q86 70 86 140zM333 178q0 67 -103 154q-96 -70 -96 -163q0 -52 26.5 -81.5t73.5 -29.5q99 0 99 120z" />
    <glyph glyph-name="nine.tnum_lnum" horiz-adv-x="470" 
d="M411 395q0 -216 -53.5 -312.5t-178.5 -96.5q-43 0 -81 15l13 70q45 -12 68 -12q42 0 71 19t45 48t25 78t11 92t2 108q0 61 -9.5 111.5t-33.5 87.5t-60 37q-41 0 -64 -43.5t-23 -105.5q0 -166 92 -166q20 0 60 10l5 -67q-41 -13 -78 -13q-78 0 -117 58.5t-39 163.5
q0 107 45.5 171t123.5 64q85 0 130.5 -86t45.5 -231z" />
    <glyph glyph-name="zero.zero" horiz-adv-x="500" 
d="M465 275q0 -132 -60 -207.5t-156 -75.5t-154.5 74.5t-58.5 204.5t59 206.5t157 76.5q96 0 154.5 -77t58.5 -202zM114 271q0 -76 30 -125l190 297q-36 42 -83 42q-59 0 -98 -57t-39 -157zM388 274q0 65 -27 121l-192 -295q35 -39 81 -39q57 0 97.5 59t40.5 154z" />
    <glyph glyph-name="zero.tnum_onum" horiz-adv-x="470" 
d="M449 275q0 -132 -60 -207.5t-156 -75.5t-154.5 74.5t-58.5 204.5t59 206.5t157 76.5q96 0 154.5 -77t58.5 -202zM372 274q0 91 -39.5 151t-97.5 60q-59 0 -98 -57t-39 -157q0 -92 39.5 -151t96.5 -59t97.5 59t40.5 154z" />
    <glyph glyph-name="one.tnum_onum" horiz-adv-x="470" 
d="M377 0h-281v71h104v408h-105v64l181 7v-479h101v-71z" />
    <glyph glyph-name="two.tnum_onum" horiz-adv-x="470" 
d="M389 0h-308v61q4 5 28.5 33t38.5 45t39 48.5t40.5 54.5t32.5 50.5t25 50.5t8 41q0 98 -72 98q-50 0 -100 -41l-25 59q20 21 55 37t74 16q75 0 110 -44t35 -119q0 -118 -202 -323h221v-67z" />
    <glyph glyph-name="three.tnum_onum" horiz-adv-x="470" 
d="M392 29q0 -104 -47.5 -151t-127.5 -47q-79 0 -139 33l17 68q65 -27 114 -27q108 0 108 122q0 62 -38 101.5t-100 44.5v68q49 5 82 44t33 92t-23 79t-58 26q-12 0 -25 -2.5t-23.5 -6t-18.5 -7t-14 -6.5l-7 -3l-23 60q56 37 117 37q68 0 108 -44.5t40 -125.5
q0 -60 -27.5 -104t-59.5 -64q42 -20 77 -67t35 -120z" />
    <glyph glyph-name="four.tnum_onum" horiz-adv-x="470" 
d="M429 28h-88v-189h-76v189h-224v71l193 447h107v-450h88v-68zM265 96v381h-3l-40 -112l-103 -269h146z" />
    <glyph glyph-name="five.tnum_onum" horiz-adv-x="470" 
d="M390 55q0 -105 -48.5 -165t-131.5 -60q-77 0 -131 23l18 75q54 -21 112 -21q46 0 75.5 38t29.5 99q0 73 -31 108t-80 35q-42 0 -104 -8v367h273v-72h-199v-216q36 2 52 2q78 0 121.5 -54.5t43.5 -150.5z" />
    <glyph glyph-name="six.tnum_onum" horiz-adv-x="470" 
d="M409 228q0 -112 -44.5 -176.5t-124.5 -64.5q-94 0 -135.5 74.5t-41.5 241.5q0 191 58 301t168 110q53 0 84 -17l-14 -68q-27 12 -70 12q-150 0 -150 -344q0 -58 4 -98t15.5 -74t33 -51t53.5 -17q41 0 64.5 46.5t23.5 109.5q0 71 -25.5 111.5t-67.5 40.5q-19 0 -59 -8
l-2 67q39 12 71 12q80 0 119.5 -58t39.5 -150z" />
    <glyph glyph-name="seven.tnum_onum" horiz-adv-x="470" 
d="M396 468l-223 -645l-73 27l221 622h-248v74h323v-78z" />
    <glyph glyph-name="eight.tnum_onum" horiz-adv-x="470" 
d="M411 172q0 -87 -48 -134.5t-131 -47.5q-79 0 -126 45.5t-47 126.5q0 66 31.5 115t89.5 95q-50 44 -74.5 84t-24.5 98q0 78 42.5 119t117.5 41q72 0 111.5 -44.5t39.5 -109.5q0 -60 -25 -100.5t-79 -88.5q58 -47 90.5 -93t32.5 -106zM316 550q0 41 -18 68.5t-58 27.5
q-43 0 -64.5 -25t-21.5 -70q0 -63 79 -138q83 71 83 137zM333 178q0 65 -101 150q-94 -71 -94 -159q0 -51 26 -80t72 -29t71.5 29.5t25.5 88.5z" />
    <glyph glyph-name="nine.tnum_onum" horiz-adv-x="470" 
d="M408 236q0 -215 -53.5 -312t-178.5 -97q-40 0 -81 16l13 70q39 -13 68 -13q42 0 71 19t45 48t25 78t11 92t2 108q0 61 -9.5 111.5t-33.5 87.5t-60 37q-41 0 -64 -43.5t-23 -105.5q0 -166 91 -166q22 0 61 11l4 -68q-41 -13 -78 -13q-78 0 -116.5 58.5t-38.5 163.5
q0 108 45 172t124 64q85 0 130.5 -86t45.5 -232z" />
    <glyph glyph-name="registered.pnum_lnum" horiz-adv-x="615" 
d="M577 353q0 -164 -73.5 -264.5t-202.5 -100.5q-125 0 -193.5 101.5t-68.5 265.5q0 165 75 262.5t201 97.5q123 0 192.5 -102t69.5 -260zM517 354q0 138 -56.5 223t-153.5 85q-99 0 -154 -83t-55 -223q0 -136 54 -224.5t152 -88.5q105 0 159 85.5t54 225.5zM469 197
l-20 -44q-68 10 -104 80l-43 82h-44v-155h-62v414h108q51 0 80.5 -34.5t29.5 -96.5q0 -71 -55 -111l38 -69q20 -38 72 -66zM351 439q0 83 -56 83h-37v-155h29q64 0 64 72z" />
    <glyph glyph-name="copyright.pnum_lnum" horiz-adv-x="615" 
d="M578 351q0 -164 -73.5 -264t-202.5 -100q-125 0 -193.5 101t-68.5 265q0 165 75.5 263t200.5 98q127 0 194.5 -101.5t67.5 -261.5zM518 352q0 138 -56.5 223t-153.5 85q-98 0 -153.5 -83.5t-55.5 -222.5q0 -136 54 -224.5t152 -88.5q105 0 159 85.5t54 225.5zM418 532
l-23 -52q-37 24 -73 24q-42 0 -69.5 -36.5t-27.5 -108.5q0 -73 29.5 -112t76.5 -39q27 0 74 19l15 -55q-49 -27 -97 -27q-78 0 -120 59t-42 150q0 96 43 154t117 58q52 0 97 -34z" />
    <glyph glyph-name="Euro.pnum_lnum" horiz-adv-x="435" 
d="M408 24q-33 -20 -60.5 -26t-72.5 -6q-95 0 -147 68t-70 169h-58v63h50q-2 23 -2 57q0 40 3 64h-51v62h59q9 48 24.5 88t41 74.5t63.5 54.5t86 20q75 0 132 -38l-19 -61q-55 30 -114 30q-57 0 -91.5 -45.5t-48.5 -122.5h172v-62h-181q-3 -25 -3 -54q0 -35 3 -67h181v-63
h-170q31 -166 153 -166q56 0 102 25z" />
    <glyph glyph-name="dollar.pnum_lnum" horiz-adv-x="399" 
d="M367 183q0 -84 -40 -130.5t-106 -56.5l1 -95h-66l2 91q-68 3 -128 44l21 70q66 -41 128 -41q47 0 81.5 27t34.5 85q0 35 -18.5 65t-46 51t-60 47t-60 50.5t-46 63t-18.5 83.5q0 65 31 109.5t81 58.5l-2 95h66l-1 -89q63 -4 113 -35l-20 -65q-58 30 -110 30
q-40 0 -64 -27.5t-24 -73.5q0 -39 26 -72t63 -59t73.5 -54.5t62.5 -72.5t26 -99z" />
    <glyph glyph-name="cent.pnum_lnum" horiz-adv-x="362" 
d="M336 115q-40 -19 -88 -20l1 -95h-65l1 99q-79 15 -115 82.5t-36 195.5q0 116 39.5 190.5t111.5 90.5l-1 96h65l-1 -94q49 -4 89 -32l-18 -65q-49 30 -97 30q-52 0 -84 -57t-32 -157q0 -112 30.5 -163.5t108.5 -51.5q13 0 27 2.5t30.5 6.5t26.5 6z" />
    </font>
</defs>
</svg>
